G04 (created by PCBNEW-RS274X (2012-apr-16-27)-stable) date Thu 15 Aug 2013 10:18:16 PM CEST*
G01*
G70*
G90*
%MOIN*%
G04 Gerber Fmt 3.4, Leading zero omitted, Abs format*
%FSLAX34Y34*%
G04 APERTURE LIST*
%ADD10C,0.006000*%
%ADD11C,0.000100*%
%ADD12C,0.010000*%
%ADD13C,0.060000*%
%ADD14C,0.032000*%
G04 APERTURE END LIST*
G54D10*
G54D11*
G36*
X39463Y-25423D02*
X39430Y-25423D01*
X39397Y-25425D01*
X39363Y-25430D01*
X39338Y-25434D01*
X39314Y-25440D01*
X39272Y-25454D01*
X39232Y-25471D01*
X39193Y-25492D01*
X39157Y-25516D01*
X39123Y-25542D01*
X39092Y-25572D01*
X39063Y-25603D01*
X39037Y-25637D01*
X39014Y-25673D01*
X38994Y-25711D01*
X38977Y-25750D01*
X38964Y-25791D01*
X38954Y-25833D01*
X38948Y-25876D01*
X38946Y-25920D01*
X38947Y-25965D01*
X38953Y-26009D01*
X38962Y-26051D01*
X38973Y-26090D01*
X38987Y-26127D01*
X39002Y-26162D01*
X39019Y-26193D01*
X39036Y-26223D01*
X39054Y-26249D01*
X39074Y-26279D01*
X39096Y-26308D01*
X39118Y-26336D01*
X39139Y-26363D01*
X39158Y-26388D01*
X39170Y-26406D01*
X39182Y-26425D01*
X39194Y-26446D01*
X39206Y-26469D01*
X39219Y-26493D01*
X39232Y-26520D01*
X39244Y-26549D01*
X39257Y-26581D01*
X39270Y-26615D01*
X39283Y-26652D01*
X39296Y-26693D01*
X39309Y-26737D01*
X39321Y-26784D01*
X39334Y-26835D01*
X39346Y-26890D01*
X39358Y-26949D01*
X39370Y-27013D01*
X39377Y-27055D01*
X39383Y-27096D01*
X39389Y-27134D01*
X39395Y-27172D01*
X39400Y-27208D01*
X39404Y-27243D01*
X39408Y-27277D01*
X39412Y-27310D01*
X39415Y-27343D01*
X39418Y-27376D01*
X39421Y-27409D01*
X39424Y-27442D01*
X39426Y-27475D01*
X39428Y-27508D01*
X39430Y-27542D01*
X39432Y-27577D01*
X39434Y-27613D01*
X39436Y-27651D01*
X39438Y-27690D01*
X39440Y-27730D01*
X39442Y-27772D01*
X39444Y-27817D01*
X39447Y-27863D01*
X39450Y-27912D01*
X39453Y-27964D01*
X39456Y-28018D01*
X39460Y-28075D01*
X39461Y-28112D01*
X39462Y-28147D01*
X39462Y-28182D01*
X39463Y-28218D01*
X39502Y-28208D01*
X39542Y-28199D01*
X39581Y-28191D01*
X39621Y-28182D01*
X39660Y-28174D01*
X39700Y-28167D01*
X39740Y-28159D01*
X39779Y-28152D01*
X39818Y-28145D01*
X39857Y-28139D01*
X39895Y-28132D01*
X39934Y-28126D01*
X39971Y-28120D01*
X40008Y-28114D01*
X40045Y-28109D01*
X40081Y-28103D01*
X40116Y-28098D01*
X40151Y-28093D01*
X40151Y-28096D01*
X40162Y-28132D01*
X40173Y-28169D01*
X40184Y-28206D01*
X40195Y-28243D01*
X40206Y-28280D01*
X40217Y-28316D01*
X40228Y-28353D01*
X40238Y-28390D01*
X40249Y-28426D01*
X40259Y-28461D01*
X40269Y-28496D01*
X40272Y-28496D01*
X40312Y-28491D01*
X40351Y-28487D01*
X40390Y-28484D01*
X40429Y-28480D01*
X40468Y-28477D01*
X40508Y-28474D01*
X40547Y-28471D01*
X40675Y-28463D01*
X40803Y-28457D01*
X40931Y-28454D01*
X41059Y-28454D01*
X41186Y-28456D01*
X41312Y-28460D01*
X41439Y-28467D01*
X41564Y-28477D01*
X41689Y-28489D01*
X41814Y-28503D01*
X41938Y-28520D01*
X42062Y-28539D01*
X42184Y-28561D01*
X42306Y-28585D01*
X42428Y-28612D01*
X42548Y-28640D01*
X42668Y-28671D01*
X42787Y-28704D01*
X42906Y-28740D01*
X43023Y-28778D01*
X43139Y-28818D01*
X43255Y-28860D01*
X43369Y-28904D01*
X43483Y-28951D01*
X43596Y-28999D01*
X43707Y-29050D01*
X43818Y-29103D01*
X43927Y-29158D01*
X44035Y-29215D01*
X44142Y-29274D01*
X44248Y-29335D01*
X44352Y-29398D01*
X44379Y-29371D01*
X44405Y-29343D01*
X44432Y-29314D01*
X44460Y-29286D01*
X44487Y-29257D01*
X44513Y-29228D01*
X44540Y-29200D01*
X44565Y-29172D01*
X44590Y-29145D01*
X44614Y-29118D01*
X44637Y-29093D01*
X44671Y-29114D01*
X44705Y-29136D01*
X44739Y-29158D01*
X44773Y-29180D01*
X44807Y-29203D01*
X44841Y-29226D01*
X44875Y-29249D01*
X44909Y-29272D01*
X44942Y-29295D01*
X44975Y-29319D01*
X45007Y-29342D01*
X45039Y-29365D01*
X45070Y-29388D01*
X45100Y-29410D01*
X45129Y-29432D01*
X45158Y-29454D01*
X45141Y-29486D01*
X45123Y-29517D01*
X45106Y-29548D01*
X45088Y-29579D01*
X45071Y-29610D01*
X45054Y-29641D01*
X45037Y-29673D01*
X45019Y-29703D01*
X45003Y-29734D01*
X44986Y-29764D01*
X44971Y-29793D01*
X44956Y-29822D01*
X44984Y-29844D01*
X45012Y-29867D01*
X45039Y-29889D01*
X45066Y-29912D01*
X45093Y-29935D01*
X45120Y-29959D01*
X45147Y-29982D01*
X45235Y-30058D01*
X45321Y-30136D01*
X45406Y-30215D01*
X45489Y-30296D01*
X45571Y-30378D01*
X45652Y-30462D01*
X45731Y-30548D01*
X45809Y-30635D01*
X45884Y-30723D01*
X45959Y-30813D01*
X46032Y-30905D01*
X46103Y-30998D01*
X46172Y-31092D01*
X46240Y-31187D01*
X46307Y-31284D01*
X46371Y-31383D01*
X46434Y-31482D01*
X46495Y-31583D01*
X46554Y-31686D01*
X46611Y-31789D01*
X46667Y-31894D01*
X46720Y-32000D01*
X46772Y-32108D01*
X46822Y-32216D01*
X46870Y-32326D01*
X46915Y-32437D01*
X46959Y-32549D01*
X47001Y-32663D01*
X47041Y-32777D01*
X47078Y-32893D01*
X47114Y-33010D01*
X47147Y-33127D01*
X47110Y-33129D01*
X47072Y-33130D01*
X47035Y-33131D01*
X46999Y-33133D01*
X46963Y-33134D01*
X46929Y-33134D01*
X46913Y-33135D01*
X46888Y-33135D01*
X46854Y-33136D01*
X46814Y-33137D01*
X46768Y-33138D01*
X46719Y-33139D01*
X46668Y-33139D01*
X46616Y-33140D01*
X46565Y-33141D01*
X46516Y-33142D01*
X46471Y-33143D01*
X46431Y-33144D01*
X46398Y-33144D01*
X46374Y-33145D01*
X46359Y-33145D01*
X46346Y-33172D01*
X46335Y-33199D01*
X46325Y-33228D01*
X46316Y-33256D01*
X46307Y-33283D01*
X46293Y-33322D01*
X46284Y-33346D01*
X46273Y-33375D01*
X46261Y-33409D01*
X46249Y-33446D01*
X46237Y-33486D01*
X46227Y-33527D01*
X46220Y-33568D01*
X46181Y-33575D01*
X46143Y-33581D01*
X46106Y-33587D01*
X46071Y-33592D01*
X46037Y-33597D01*
X46004Y-33602D01*
X45971Y-33606D01*
X45938Y-33609D01*
X45904Y-33613D01*
X45870Y-33616D01*
X45835Y-33619D01*
X45799Y-33622D01*
X45761Y-33624D01*
X45721Y-33626D01*
X45679Y-33629D01*
X45635Y-33631D01*
X45587Y-33633D01*
X45536Y-33634D01*
X45499Y-33636D01*
X45461Y-33637D01*
X45422Y-33639D01*
X45383Y-33641D01*
X45344Y-33642D01*
X45304Y-33644D01*
X45263Y-33646D01*
X45223Y-33648D01*
X45182Y-33650D01*
X45141Y-33653D01*
X45100Y-33655D01*
X45058Y-33658D01*
X45017Y-33661D01*
X44975Y-33664D01*
X44934Y-33667D01*
X44893Y-33670D01*
X44851Y-33674D01*
X44810Y-33677D01*
X44769Y-33681D01*
X44729Y-33685D01*
X44689Y-33690D01*
X44649Y-33694D01*
X44609Y-33699D01*
X44570Y-33704D01*
X44532Y-33709D01*
X44494Y-33714D01*
X44456Y-33720D01*
X44420Y-33726D01*
X44384Y-33732D01*
X44350Y-33738D01*
X44315Y-33744D01*
X44280Y-33751D01*
X44245Y-33759D01*
X44209Y-33766D01*
X44172Y-33774D01*
X44136Y-33783D01*
X44099Y-33792D01*
X44062Y-33801D01*
X44024Y-33810D01*
X43987Y-33819D01*
X43949Y-33829D01*
X43911Y-33839D01*
X43923Y-33875D01*
X43934Y-33911D01*
X43946Y-33947D01*
X43956Y-33983D01*
X43967Y-34019D01*
X43976Y-34056D01*
X43986Y-34093D01*
X43995Y-34130D01*
X44003Y-34167D01*
X44011Y-34205D01*
X44019Y-34242D01*
X44026Y-34280D01*
X44032Y-34319D01*
X44038Y-34357D01*
X44043Y-34395D01*
X44048Y-34434D01*
X44052Y-34472D01*
X44055Y-34510D01*
X44058Y-34549D01*
X44061Y-34587D01*
X44063Y-34625D01*
X44065Y-34663D01*
X44066Y-34701D01*
X44068Y-34739D01*
X44106Y-34735D01*
X44145Y-34732D01*
X44184Y-34729D01*
X44222Y-34725D01*
X44261Y-34721D01*
X44299Y-34717D01*
X44336Y-34713D01*
X44373Y-34709D01*
X44410Y-34704D01*
X44446Y-34699D01*
X44482Y-34694D01*
X44516Y-34689D01*
X44550Y-34683D01*
X44586Y-34677D01*
X44623Y-34669D01*
X44660Y-34662D01*
X44697Y-34654D01*
X44735Y-34646D01*
X44773Y-34637D01*
X44811Y-34627D01*
X44850Y-34618D01*
X44889Y-34608D01*
X44929Y-34598D01*
X44968Y-34587D01*
X45008Y-34576D01*
X45047Y-34565D01*
X45087Y-34554D01*
X45127Y-34543D01*
X45166Y-34531D01*
X45206Y-34520D01*
X45245Y-34508D01*
X45285Y-34496D01*
X45324Y-34484D01*
X45363Y-34472D01*
X45402Y-34460D01*
X45440Y-34448D01*
X45478Y-34436D01*
X45516Y-34424D01*
X45553Y-34412D01*
X45589Y-34401D01*
X45626Y-34389D01*
X45661Y-34377D01*
X45710Y-34362D01*
X45755Y-34348D01*
X45798Y-34335D01*
X45839Y-34322D01*
X45878Y-34311D01*
X45915Y-34300D01*
X45950Y-34291D01*
X45985Y-34282D01*
X46019Y-34273D01*
X46052Y-34265D01*
X46085Y-34257D01*
X46118Y-34250D01*
X46151Y-34243D01*
X46186Y-34236D01*
X46221Y-34229D01*
X46257Y-34222D01*
X46295Y-34215D01*
X46335Y-34207D01*
X46354Y-34242D01*
X46374Y-34276D01*
X46396Y-34308D01*
X46418Y-34339D01*
X46442Y-34368D01*
X46466Y-34396D01*
X46491Y-34423D01*
X46557Y-34492D01*
X46634Y-34450D01*
X46658Y-34439D01*
X46687Y-34426D01*
X46720Y-34412D01*
X46716Y-34372D01*
X46712Y-34332D01*
X46707Y-34290D01*
X46702Y-34249D01*
X46697Y-34207D01*
X46692Y-34165D01*
X46686Y-34123D01*
X46680Y-34083D01*
X46674Y-34042D01*
X46668Y-34003D01*
X46663Y-33966D01*
X46657Y-33929D01*
X46651Y-33895D01*
X46646Y-33863D01*
X46640Y-33832D01*
X46634Y-33795D01*
X46627Y-33758D01*
X46621Y-33722D01*
X46614Y-33685D01*
X46607Y-33648D01*
X46599Y-33611D01*
X46592Y-33574D01*
X46584Y-33538D01*
X46577Y-33501D01*
X46569Y-33465D01*
X46560Y-33429D01*
X46552Y-33393D01*
X46543Y-33357D01*
X46856Y-33357D01*
X46863Y-33357D01*
X46936Y-33353D01*
X46960Y-33351D01*
X46984Y-33350D01*
X47109Y-33353D01*
X47106Y-33346D01*
X47138Y-33346D01*
X47170Y-33346D01*
X47203Y-33346D01*
X47217Y-33346D01*
X47251Y-33345D01*
X47286Y-33343D01*
X47321Y-33341D01*
X47356Y-33339D01*
X47382Y-33336D01*
X47408Y-33332D01*
X47442Y-33332D01*
X47477Y-33331D01*
X47511Y-33331D01*
X47545Y-33331D01*
X47580Y-33330D01*
X47616Y-33329D01*
X47624Y-33360D01*
X47634Y-33391D01*
X47643Y-33422D01*
X47651Y-33454D01*
X47658Y-33492D01*
X47664Y-33531D01*
X47670Y-33569D01*
X47676Y-33607D01*
X47682Y-33645D01*
X47689Y-33682D01*
X47696Y-33719D01*
X47704Y-33755D01*
X47711Y-33792D01*
X47717Y-33829D01*
X47720Y-33860D01*
X47722Y-33891D01*
X47724Y-33923D01*
X47727Y-33954D01*
X47701Y-33961D01*
X47674Y-33968D01*
X47647Y-33975D01*
X47526Y-34009D01*
X47522Y-34013D01*
X47487Y-34024D01*
X47453Y-34036D01*
X47418Y-34048D01*
X47389Y-34055D01*
X47360Y-34061D01*
X47331Y-34068D01*
X47346Y-34206D01*
X47358Y-34344D01*
X47367Y-34481D01*
X47372Y-34618D01*
X47375Y-34754D01*
X47375Y-34890D01*
X47372Y-35026D01*
X47366Y-35161D01*
X47358Y-35295D01*
X47346Y-35429D01*
X47332Y-35562D01*
X47315Y-35695D01*
X47295Y-35827D01*
X47272Y-35958D01*
X47247Y-36088D01*
X47219Y-36218D01*
X47188Y-36347D01*
X47155Y-36475D01*
X47119Y-36602D01*
X47081Y-36728D01*
X47040Y-36853D01*
X46996Y-36977D01*
X46950Y-37100D01*
X46902Y-37222D01*
X46851Y-37342D01*
X46798Y-37462D01*
X46742Y-37580D01*
X46684Y-37697D01*
X46624Y-37813D01*
X46561Y-37927D01*
X46496Y-38040D01*
X46429Y-38152D01*
X46451Y-38173D01*
X46475Y-38196D01*
X46498Y-38218D01*
X46524Y-38242D01*
X46549Y-38266D01*
X46575Y-38290D01*
X46600Y-38314D01*
X46626Y-38338D01*
X46652Y-38362D01*
X46679Y-38386D01*
X46706Y-38411D01*
X46734Y-38437D01*
X46738Y-38440D01*
X46719Y-38470D01*
X46699Y-38500D01*
X46680Y-38530D01*
X46661Y-38560D01*
X46641Y-38590D01*
X46621Y-38619D01*
X46601Y-38649D01*
X46581Y-38678D01*
X46561Y-38707D01*
X46538Y-38739D01*
X46516Y-38770D01*
X46493Y-38802D01*
X46470Y-38833D01*
X46447Y-38865D01*
X46424Y-38896D01*
X46400Y-38927D01*
X46377Y-38957D01*
X46370Y-38954D01*
X46345Y-38941D01*
X46321Y-38928D01*
X46297Y-38916D01*
X46186Y-38853D01*
X46182Y-38853D01*
X46161Y-38841D01*
X46140Y-38829D01*
X46137Y-38829D01*
X46113Y-38815D01*
X46088Y-38801D01*
X46060Y-38787D01*
X46030Y-38773D01*
X46002Y-38759D01*
X45920Y-38861D01*
X45836Y-38961D01*
X45750Y-39059D01*
X45662Y-39155D01*
X45572Y-39249D01*
X45480Y-39342D01*
X45386Y-39433D01*
X45290Y-39522D01*
X45192Y-39609D01*
X45092Y-39694D01*
X44991Y-39777D01*
X44888Y-39859D01*
X44782Y-39938D01*
X44676Y-40015D01*
X44567Y-40090D01*
X44457Y-40162D01*
X44345Y-40233D01*
X44231Y-40301D01*
X44115Y-40367D01*
X43998Y-40431D01*
X43880Y-40492D01*
X43760Y-40551D01*
X43638Y-40608D01*
X43515Y-40662D01*
X43390Y-40714D01*
X43264Y-40763D01*
X43136Y-40809D01*
X43007Y-40853D01*
X42877Y-40895D01*
X42745Y-40933D01*
X42612Y-40969D01*
X42477Y-41003D01*
X42479Y-41041D01*
X42481Y-41081D01*
X42484Y-41121D01*
X42486Y-41161D01*
X42488Y-41200D01*
X42622Y-41168D01*
X42754Y-41133D01*
X42886Y-41096D01*
X43016Y-41056D01*
X43145Y-41013D01*
X43272Y-40968D01*
X43398Y-40921D01*
X43522Y-40871D01*
X43646Y-40818D01*
X43767Y-40764D01*
X43887Y-40707D01*
X44006Y-40647D01*
X44123Y-40586D01*
X44239Y-40522D01*
X44353Y-40456D01*
X44466Y-40387D01*
X44577Y-40317D01*
X44686Y-40244D01*
X44793Y-40170D01*
X44899Y-40093D01*
X45004Y-40015D01*
X45106Y-39934D01*
X45207Y-39852D01*
X45306Y-39767D01*
X45403Y-39681D01*
X45499Y-39593D01*
X45593Y-39503D01*
X45684Y-39411D01*
X45774Y-39317D01*
X45862Y-39222D01*
X45949Y-39125D01*
X46033Y-39027D01*
X46057Y-39039D01*
X46081Y-39051D01*
X46193Y-39110D01*
X46226Y-39128D01*
X46259Y-39147D01*
X46293Y-39165D01*
X46327Y-39184D01*
X46360Y-39203D01*
X46394Y-39221D01*
X46411Y-39228D01*
X46432Y-39203D01*
X46453Y-39178D01*
X46474Y-39154D01*
X46495Y-39129D01*
X46515Y-39103D01*
X46558Y-39127D01*
X46599Y-39149D01*
X46638Y-39170D01*
X46675Y-39191D01*
X46711Y-39210D01*
X46745Y-39229D01*
X46779Y-39247D01*
X46811Y-39264D01*
X46841Y-39281D01*
X46871Y-39298D01*
X46901Y-39314D01*
X46929Y-39329D01*
X46957Y-39345D01*
X46984Y-39360D01*
X47016Y-39378D01*
X47047Y-39396D01*
X47078Y-39414D01*
X47109Y-39432D01*
X47141Y-39450D01*
X47172Y-39470D01*
X47205Y-39490D01*
X47238Y-39511D01*
X47272Y-39533D01*
X47306Y-39556D01*
X47343Y-39581D01*
X47380Y-39607D01*
X47433Y-39644D01*
X47481Y-39680D01*
X47526Y-39714D01*
X47567Y-39747D01*
X47604Y-39778D01*
X47639Y-39808D01*
X47670Y-39836D01*
X47698Y-39863D01*
X47724Y-39889D01*
X47747Y-39913D01*
X47767Y-39937D01*
X47786Y-39959D01*
X47803Y-39981D01*
X47818Y-40001D01*
X47832Y-40021D01*
X47844Y-40040D01*
X47856Y-40058D01*
X47873Y-40088D01*
X47888Y-40118D01*
X47904Y-40148D01*
X47920Y-40180D01*
X47939Y-40214D01*
X47943Y-40214D01*
X47959Y-40242D01*
X47979Y-40270D01*
X48001Y-40300D01*
X48026Y-40329D01*
X48055Y-40358D01*
X48086Y-40386D01*
X48120Y-40412D01*
X48158Y-40437D01*
X48198Y-40457D01*
X48238Y-40473D01*
X48280Y-40486D01*
X48322Y-40495D01*
X48365Y-40500D01*
X48407Y-40501D01*
X48450Y-40498D01*
X48492Y-40492D01*
X48534Y-40482D01*
X48574Y-40469D01*
X48614Y-40453D01*
X48652Y-40433D01*
X48689Y-40409D01*
X48723Y-40383D01*
X48756Y-40353D01*
X48786Y-40320D01*
X48814Y-40284D01*
X48829Y-40263D01*
X48842Y-40242D01*
X48862Y-40202D01*
X48878Y-40162D01*
X48891Y-40120D01*
X48899Y-40078D01*
X48905Y-40035D01*
X48906Y-39992D01*
X48904Y-39950D01*
X48899Y-39908D01*
X48890Y-39866D01*
X48877Y-39825D01*
X48861Y-39786D01*
X48842Y-39748D01*
X48820Y-39711D01*
X48794Y-39676D01*
X48764Y-39644D01*
X48732Y-39613D01*
X48696Y-39586D01*
X48665Y-39566D01*
X48633Y-39548D01*
X48601Y-39534D01*
X48569Y-39521D01*
X48539Y-39511D01*
X48509Y-39503D01*
X48480Y-39495D01*
X48453Y-39489D01*
X48450Y-39485D01*
X48412Y-39479D01*
X48376Y-39474D01*
X48342Y-39469D01*
X48309Y-39464D01*
X48276Y-39457D01*
X48255Y-39453D01*
X48233Y-39448D01*
X48209Y-39442D01*
X48185Y-39435D01*
X48158Y-39427D01*
X48131Y-39417D01*
X48101Y-39406D01*
X48070Y-39393D01*
X48037Y-39378D01*
X48001Y-39362D01*
X47964Y-39342D01*
X47924Y-39321D01*
X47882Y-39296D01*
X47837Y-39269D01*
X47789Y-39239D01*
X47739Y-39206D01*
X47686Y-39169D01*
X47650Y-39144D01*
X47615Y-39119D01*
X47583Y-39095D01*
X47552Y-39072D01*
X47522Y-39049D01*
X47494Y-39026D01*
X47466Y-39004D01*
X47439Y-38982D01*
X47413Y-38960D01*
X47387Y-38937D01*
X47361Y-38915D01*
X47336Y-38892D01*
X47310Y-38869D01*
X47284Y-38846D01*
X47257Y-38821D01*
X47230Y-38796D01*
X47202Y-38770D01*
X47173Y-38744D01*
X47143Y-38716D01*
X47111Y-38687D01*
X47078Y-38656D01*
X47043Y-38625D01*
X47006Y-38591D01*
X46967Y-38556D01*
X46925Y-38520D01*
X46942Y-38492D01*
X46958Y-38464D01*
X46973Y-38436D01*
X46989Y-38409D01*
X47005Y-38381D01*
X46991Y-38367D01*
X46962Y-38342D01*
X46933Y-38316D01*
X46905Y-38292D01*
X46878Y-38267D01*
X46850Y-38242D01*
X46823Y-38218D01*
X46796Y-38194D01*
X46769Y-38170D01*
X46743Y-38145D01*
X46716Y-38121D01*
X46689Y-38096D01*
X46750Y-37989D01*
X46809Y-37881D01*
X46865Y-37772D01*
X46920Y-37661D01*
X46972Y-37550D01*
X47023Y-37437D01*
X47071Y-37323D01*
X47118Y-37209D01*
X47162Y-37093D01*
X47204Y-36977D01*
X47243Y-36860D01*
X47281Y-36741D01*
X47316Y-36622D01*
X47350Y-36503D01*
X47380Y-36382D01*
X47409Y-36260D01*
X47435Y-36138D01*
X47459Y-36015D01*
X47481Y-35892D01*
X47501Y-35768D01*
X47518Y-35643D01*
X47532Y-35518D01*
X47544Y-35392D01*
X47554Y-35265D01*
X47562Y-35139D01*
X47566Y-35011D01*
X47569Y-34883D01*
X47569Y-34755D01*
X47566Y-34626D01*
X47561Y-34498D01*
X47553Y-34368D01*
X47543Y-34239D01*
X47567Y-34232D01*
X47592Y-34225D01*
X47713Y-34183D01*
X47750Y-34173D01*
X47787Y-34163D01*
X47824Y-34153D01*
X47861Y-34144D01*
X47898Y-34134D01*
X47936Y-34124D01*
X47953Y-34121D01*
X47950Y-34083D01*
X47946Y-34044D01*
X47943Y-34006D01*
X47932Y-33961D01*
X47983Y-33946D01*
X48031Y-33932D01*
X48076Y-33918D01*
X48120Y-33905D01*
X48162Y-33892D01*
X48202Y-33880D01*
X48240Y-33868D01*
X48277Y-33856D01*
X48313Y-33845D01*
X48347Y-33834D01*
X48381Y-33824D01*
X48414Y-33814D01*
X48447Y-33804D01*
X48479Y-33795D01*
X48511Y-33785D01*
X48543Y-33777D01*
X48575Y-33768D01*
X48607Y-33759D01*
X48640Y-33751D01*
X48674Y-33743D01*
X48709Y-33735D01*
X48744Y-33727D01*
X48781Y-33720D01*
X48819Y-33712D01*
X48859Y-33704D01*
X48901Y-33697D01*
X48965Y-33686D01*
X49024Y-33677D01*
X49080Y-33670D01*
X49133Y-33664D01*
X49181Y-33660D01*
X49227Y-33657D01*
X49269Y-33655D01*
X49309Y-33655D01*
X49345Y-33655D01*
X49380Y-33657D01*
X49411Y-33659D01*
X49441Y-33662D01*
X49468Y-33665D01*
X49494Y-33669D01*
X49517Y-33673D01*
X49540Y-33678D01*
X49561Y-33683D01*
X49594Y-33692D01*
X49627Y-33702D01*
X49661Y-33713D01*
X49697Y-33724D01*
X49734Y-33735D01*
X49734Y-33739D01*
X49765Y-33746D01*
X49799Y-33752D01*
X49834Y-33756D01*
X49872Y-33758D01*
X49911Y-33758D01*
X49952Y-33755D01*
X49995Y-33749D01*
X50039Y-33739D01*
X50082Y-33725D01*
X50122Y-33708D01*
X50161Y-33687D01*
X50197Y-33664D01*
X50230Y-33637D01*
X50262Y-33607D01*
X50290Y-33576D01*
X50316Y-33541D01*
X50339Y-33505D01*
X50358Y-33467D01*
X50375Y-33427D01*
X50388Y-33386D01*
X50397Y-33343D01*
X50403Y-33300D01*
X50405Y-33256D01*
X50403Y-33211D01*
X50397Y-33166D01*
X50395Y-33141D01*
X50390Y-33117D01*
X50379Y-33081D01*
X50364Y-33046D01*
X50347Y-33013D01*
X50328Y-32980D01*
X50307Y-32950D01*
X50283Y-32921D01*
X50258Y-32894D01*
X50231Y-32869D01*
X50202Y-32846D01*
X50172Y-32825D01*
X50137Y-32805D01*
X50101Y-32788D01*
X50064Y-32773D01*
X50025Y-32762D01*
X49986Y-32754D01*
X49946Y-32750D01*
X49905Y-32748D01*
X49863Y-32750D01*
X49821Y-32756D01*
X49785Y-32764D01*
X49750Y-32774D01*
X49717Y-32786D01*
X49686Y-32799D01*
X49657Y-32814D01*
X49630Y-32829D01*
X49603Y-32846D01*
X49578Y-32864D01*
X49578Y-32860D01*
X49547Y-32882D01*
X49518Y-32903D01*
X49491Y-32923D01*
X49464Y-32942D01*
X49436Y-32961D01*
X49418Y-32973D01*
X49398Y-32985D01*
X49378Y-32997D01*
X49356Y-33009D01*
X49331Y-33022D01*
X49305Y-33035D01*
X49277Y-33047D01*
X49246Y-33060D01*
X49212Y-33073D01*
X49176Y-33086D01*
X49136Y-33099D01*
X49092Y-33112D01*
X49046Y-33124D01*
X48995Y-33137D01*
X48940Y-33149D01*
X48881Y-33161D01*
X48818Y-33173D01*
X48776Y-33180D01*
X48736Y-33186D01*
X48697Y-33192D01*
X48659Y-33198D01*
X48623Y-33203D01*
X48587Y-33207D01*
X48552Y-33212D01*
X48518Y-33215D01*
X48484Y-33219D01*
X48450Y-33222D01*
X48417Y-33224D01*
X48383Y-33227D01*
X48349Y-33229D01*
X48314Y-33232D01*
X48279Y-33234D01*
X48243Y-33236D01*
X48207Y-33238D01*
X48169Y-33240D01*
X48130Y-33242D01*
X48089Y-33244D01*
X48047Y-33246D01*
X48003Y-33248D01*
X47957Y-33251D01*
X47910Y-33253D01*
X47860Y-33256D01*
X47807Y-33259D01*
X47800Y-33207D01*
X47772Y-33100D01*
X47755Y-33100D01*
X47718Y-33102D01*
X47681Y-33104D01*
X47643Y-33107D01*
X47606Y-33109D01*
X47569Y-33110D01*
X47533Y-33112D01*
X47496Y-33114D01*
X47460Y-33116D01*
X47424Y-33117D01*
X47388Y-33119D01*
X47352Y-33121D01*
X47333Y-33050D01*
X47313Y-32980D01*
X47292Y-32910D01*
X47271Y-32840D01*
X47249Y-32771D01*
X47226Y-32702D01*
X47202Y-32634D01*
X47178Y-32566D01*
X47153Y-32499D01*
X47127Y-32431D01*
X47101Y-32365D01*
X47074Y-32298D01*
X47046Y-32233D01*
X47017Y-32167D01*
X46988Y-32102D01*
X46958Y-32037D01*
X46928Y-31973D01*
X46897Y-31909D01*
X46865Y-31846D01*
X46832Y-31783D01*
X46799Y-31720D01*
X46766Y-31658D01*
X46731Y-31597D01*
X46696Y-31535D01*
X46661Y-31475D01*
X46624Y-31414D01*
X46587Y-31354D01*
X46550Y-31295D01*
X46512Y-31236D01*
X46473Y-31177D01*
X46434Y-31119D01*
X46394Y-31062D01*
X46374Y-31032D01*
X46353Y-31003D01*
X46332Y-30974D01*
X46312Y-30946D01*
X46291Y-30917D01*
X46269Y-30889D01*
X46248Y-30860D01*
X46220Y-30823D01*
X46191Y-30786D01*
X46163Y-30750D01*
X46134Y-30713D01*
X46104Y-30677D01*
X46075Y-30641D01*
X46045Y-30606D01*
X46015Y-30570D01*
X45985Y-30535D01*
X45954Y-30500D01*
X45924Y-30466D01*
X45893Y-30431D01*
X45862Y-30397D01*
X45830Y-30363D01*
X45799Y-30329D01*
X45767Y-30295D01*
X45735Y-30262D01*
X45702Y-30229D01*
X45670Y-30196D01*
X45637Y-30164D01*
X45604Y-30131D01*
X45571Y-30099D01*
X45538Y-30067D01*
X45504Y-30036D01*
X45470Y-30004D01*
X45436Y-29973D01*
X45402Y-29942D01*
X45367Y-29911D01*
X45333Y-29881D01*
X45298Y-29850D01*
X45263Y-29820D01*
X45227Y-29791D01*
X45245Y-29755D01*
X45264Y-29720D01*
X45282Y-29684D01*
X45300Y-29649D01*
X45319Y-29614D01*
X45337Y-29579D01*
X45355Y-29544D01*
X45373Y-29510D01*
X45391Y-29477D01*
X45408Y-29444D01*
X45425Y-29412D01*
X45400Y-29392D01*
X45376Y-29372D01*
X45350Y-29352D01*
X45325Y-29331D01*
X45300Y-29312D01*
X45326Y-29264D01*
X45351Y-29219D01*
X45374Y-29176D01*
X45396Y-29135D01*
X45417Y-29096D01*
X45437Y-29059D01*
X45456Y-29023D01*
X45475Y-28988D01*
X45493Y-28955D01*
X45510Y-28922D01*
X45527Y-28891D01*
X45544Y-28860D01*
X45561Y-28830D01*
X45577Y-28800D01*
X45594Y-28771D01*
X45611Y-28741D01*
X45629Y-28712D01*
X45646Y-28682D01*
X45665Y-28652D01*
X45682Y-28624D01*
X45700Y-28596D01*
X45719Y-28567D01*
X45739Y-28537D01*
X45760Y-28507D01*
X45781Y-28476D01*
X45804Y-28443D01*
X45827Y-28411D01*
X45849Y-28380D01*
X45870Y-28350D01*
X45890Y-28322D01*
X45911Y-28295D01*
X45930Y-28270D01*
X45950Y-28246D01*
X45985Y-28203D01*
X46019Y-28166D01*
X46051Y-28132D01*
X46081Y-28102D01*
X46110Y-28075D01*
X46138Y-28052D01*
X46163Y-28031D01*
X46188Y-28012D01*
X46212Y-27996D01*
X46234Y-27981D01*
X46255Y-27968D01*
X46279Y-27954D01*
X46303Y-27941D01*
X46328Y-27930D01*
X46354Y-27918D01*
X46382Y-27906D01*
X46411Y-27891D01*
X46444Y-27867D01*
X46476Y-27842D01*
X46507Y-27816D01*
X46536Y-27791D01*
X46563Y-27765D01*
X46588Y-27738D01*
X46609Y-27711D01*
X46634Y-27672D01*
X46654Y-27633D01*
X46671Y-27592D01*
X46683Y-27550D01*
X46692Y-27508D01*
X46697Y-27465D01*
X46699Y-27422D01*
X46697Y-27379D01*
X46691Y-27337D01*
X46681Y-27295D01*
X46669Y-27254D01*
X46652Y-27214D01*
X46632Y-27176D01*
X46609Y-27139D01*
X46583Y-27104D01*
X46553Y-27071D01*
X46520Y-27041D01*
X46484Y-27013D01*
X46463Y-26996D01*
X46443Y-26982D01*
X46403Y-26962D01*
X46362Y-26946D01*
X46320Y-26934D01*
X46278Y-26925D01*
X46235Y-26920D01*
X46192Y-26919D01*
X46149Y-26922D01*
X46106Y-26928D01*
X46065Y-26938D01*
X46024Y-26951D01*
X45984Y-26967D01*
X45945Y-26987D01*
X45908Y-27010D01*
X45874Y-27036D01*
X45841Y-27066D01*
X45810Y-27099D01*
X45783Y-27134D01*
X45760Y-27170D01*
X45740Y-27206D01*
X45724Y-27241D01*
X45711Y-27276D01*
X45700Y-27310D01*
X45692Y-27343D01*
X45686Y-27374D01*
X45679Y-27411D01*
X45674Y-27448D01*
X45670Y-27484D01*
X45666Y-27519D01*
X45661Y-27551D01*
X45657Y-27572D01*
X45651Y-27594D01*
X45645Y-27617D01*
X45638Y-27641D01*
X45629Y-27667D01*
X45619Y-27694D01*
X45607Y-27723D01*
X45594Y-27754D01*
X45579Y-27787D01*
X45561Y-27821D01*
X45541Y-27858D01*
X45519Y-27898D01*
X45494Y-27940D01*
X45467Y-27984D01*
X45436Y-28031D01*
X45403Y-28081D01*
X45366Y-28134D01*
X45342Y-28169D01*
X45318Y-28202D01*
X45295Y-28234D01*
X45272Y-28264D01*
X45250Y-28293D01*
X45228Y-28321D01*
X45207Y-28348D01*
X45185Y-28375D01*
X45164Y-28401D01*
X45142Y-28427D01*
X45121Y-28452D01*
X45099Y-28478D01*
X45077Y-28503D01*
X45054Y-28529D01*
X45031Y-28555D01*
X45008Y-28581D01*
X44983Y-28608D01*
X44958Y-28636D01*
X44932Y-28665D01*
X44905Y-28695D01*
X44877Y-28726D01*
X44848Y-28759D01*
X44817Y-28793D01*
X44785Y-28828D01*
X44752Y-28866D01*
X44717Y-28905D01*
X44683Y-28884D01*
X44649Y-28863D01*
X44616Y-28843D01*
X44581Y-28822D01*
X44555Y-28851D01*
X44528Y-28880D01*
X44500Y-28910D01*
X44473Y-28939D01*
X44446Y-28968D01*
X44419Y-28997D01*
X44393Y-29026D01*
X44367Y-29054D01*
X44342Y-29082D01*
X44317Y-29109D01*
X44293Y-29134D01*
X44186Y-29074D01*
X44078Y-29015D01*
X43969Y-28959D01*
X43858Y-28904D01*
X43747Y-28851D01*
X43634Y-28801D01*
X43521Y-28753D01*
X43406Y-28706D01*
X43290Y-28662D01*
X43174Y-28620D01*
X43057Y-28581D01*
X42938Y-28543D01*
X42819Y-28508D01*
X42699Y-28474D01*
X42579Y-28443D01*
X42457Y-28415D01*
X42335Y-28388D01*
X42212Y-28364D01*
X42089Y-28343D01*
X41965Y-28323D01*
X41840Y-28306D01*
X41715Y-28292D01*
X41589Y-28279D01*
X41462Y-28269D01*
X41335Y-28262D01*
X41208Y-28257D01*
X41080Y-28255D01*
X40952Y-28255D01*
X40823Y-28257D01*
X40694Y-28262D01*
X40565Y-28270D01*
X40436Y-28280D01*
X40424Y-28242D01*
X40413Y-28204D01*
X40401Y-28166D01*
X40390Y-28128D01*
X40378Y-28091D01*
X40367Y-28054D01*
X40356Y-28017D01*
X40345Y-27980D01*
X40335Y-27944D01*
X40324Y-27909D01*
X40314Y-27874D01*
X40280Y-27878D01*
X40248Y-27882D01*
X40217Y-27885D01*
X40186Y-27888D01*
X40154Y-27891D01*
X40140Y-27841D01*
X40126Y-27793D01*
X40112Y-27748D01*
X40099Y-27704D01*
X40086Y-27663D01*
X40074Y-27623D01*
X40063Y-27584D01*
X40051Y-27547D01*
X40041Y-27512D01*
X40030Y-27477D01*
X40020Y-27443D01*
X40011Y-27410D01*
X40001Y-27378D01*
X39992Y-27345D01*
X39983Y-27313D01*
X39975Y-27281D01*
X39966Y-27249D01*
X39958Y-27216D01*
X39950Y-27183D01*
X39943Y-27150D01*
X39935Y-27115D01*
X39927Y-27079D01*
X39920Y-27042D01*
X39912Y-27004D01*
X39905Y-26964D01*
X39897Y-26923D01*
X39887Y-26859D01*
X39878Y-26799D01*
X39870Y-26743D01*
X39864Y-26691D01*
X39860Y-26642D01*
X39857Y-26597D01*
X39855Y-26554D01*
X39854Y-26515D01*
X39854Y-26478D01*
X39855Y-26444D01*
X39857Y-26412D01*
X39859Y-26383D01*
X39863Y-26355D01*
X39866Y-26330D01*
X39871Y-26306D01*
X39875Y-26284D01*
X39880Y-26263D01*
X39892Y-26226D01*
X39903Y-26191D01*
X39913Y-26158D01*
X39923Y-26127D01*
X39932Y-26096D01*
X39940Y-26065D01*
X39946Y-26031D01*
X39951Y-25995D01*
X39954Y-25956D01*
X39954Y-25916D01*
X39952Y-25875D01*
X39946Y-25832D01*
X39937Y-25792D01*
X39925Y-25754D01*
X39911Y-25716D01*
X39893Y-25681D01*
X39873Y-25647D01*
X39850Y-25616D01*
X39825Y-25586D01*
X39798Y-25558D01*
X39769Y-25533D01*
X39738Y-25509D01*
X39707Y-25490D01*
X39675Y-25473D01*
X39642Y-25458D01*
X39608Y-25446D01*
X39573Y-25436D01*
X39537Y-25429D01*
X39500Y-25425D01*
X39463Y-25423D01*
X39463Y-25423D01*
X39463Y-25423D01*
G37*
G36*
X39533Y-28419D02*
X39399Y-28451D01*
X39266Y-28486D01*
X39135Y-28524D01*
X39005Y-28564D01*
X38876Y-28607D01*
X38749Y-28652D01*
X38623Y-28700D01*
X38498Y-28750D01*
X38375Y-28803D01*
X38254Y-28858D01*
X38134Y-28915D01*
X38015Y-28975D01*
X37898Y-29037D01*
X37783Y-29101D01*
X37669Y-29167D01*
X37556Y-29236D01*
X37446Y-29306D01*
X37337Y-29379D01*
X37229Y-29454D01*
X37123Y-29531D01*
X37019Y-29610D01*
X36917Y-29691D01*
X36816Y-29773D01*
X36717Y-29858D01*
X36620Y-29945D01*
X36525Y-30033D01*
X36431Y-30123D01*
X36339Y-30215D01*
X36250Y-30309D01*
X36162Y-30404D01*
X36075Y-30501D01*
X35991Y-30600D01*
X35965Y-30588D01*
X35939Y-30575D01*
X35828Y-30520D01*
X35795Y-30502D01*
X35762Y-30483D01*
X35729Y-30465D01*
X35697Y-30446D01*
X35664Y-30427D01*
X35630Y-30409D01*
X35609Y-30398D01*
X35589Y-30423D01*
X35569Y-30448D01*
X35549Y-30473D01*
X35528Y-30498D01*
X35509Y-30523D01*
X35463Y-30498D01*
X35419Y-30474D01*
X35377Y-30452D01*
X35337Y-30430D01*
X35299Y-30410D01*
X35262Y-30390D01*
X35227Y-30371D01*
X35193Y-30353D01*
X35160Y-30335D01*
X35128Y-30318D01*
X35097Y-30301D01*
X35066Y-30285D01*
X35036Y-30268D01*
X35007Y-30252D01*
X34978Y-30235D01*
X34949Y-30219D01*
X34921Y-30202D01*
X34892Y-30185D01*
X34863Y-30167D01*
X34833Y-30148D01*
X34803Y-30129D01*
X34772Y-30109D01*
X34741Y-30089D01*
X34709Y-30067D01*
X34675Y-30044D01*
X34640Y-30020D01*
X34588Y-29982D01*
X34539Y-29946D01*
X34495Y-29912D01*
X34454Y-29880D01*
X34416Y-29848D01*
X34382Y-29819D01*
X34351Y-29791D01*
X34323Y-29764D01*
X34297Y-29738D01*
X34274Y-29713D01*
X34253Y-29690D01*
X34234Y-29667D01*
X34218Y-29646D01*
X34202Y-29625D01*
X34189Y-29606D01*
X34176Y-29587D01*
X34165Y-29568D01*
X34148Y-29539D01*
X34132Y-29509D01*
X34117Y-29478D01*
X34100Y-29446D01*
X34081Y-29412D01*
X34065Y-29385D01*
X34045Y-29357D01*
X34023Y-29328D01*
X33998Y-29299D01*
X33969Y-29271D01*
X33938Y-29244D01*
X33904Y-29218D01*
X33870Y-29196D01*
X33835Y-29177D01*
X33798Y-29161D01*
X33761Y-29149D01*
X33724Y-29139D01*
X33686Y-29133D01*
X33648Y-29130D01*
X33609Y-29130D01*
X33571Y-29132D01*
X33533Y-29138D01*
X33495Y-29146D01*
X33458Y-29158D01*
X33422Y-29172D01*
X33387Y-29189D01*
X33354Y-29208D01*
X33321Y-29231D01*
X33291Y-29256D01*
X33262Y-29283D01*
X33235Y-29314D01*
X33210Y-29346D01*
X33195Y-29365D01*
X33182Y-29384D01*
X33162Y-29424D01*
X33146Y-29465D01*
X33133Y-29507D01*
X33125Y-29549D01*
X33119Y-29591D01*
X33118Y-29634D01*
X33120Y-29677D01*
X33125Y-29719D01*
X33134Y-29761D01*
X33147Y-29801D01*
X33163Y-29841D01*
X33182Y-29879D01*
X33204Y-29916D01*
X33230Y-29950D01*
X33260Y-29983D01*
X33292Y-30013D01*
X33328Y-30041D01*
X33364Y-30064D01*
X33400Y-30083D01*
X33436Y-30099D01*
X33472Y-30113D01*
X33507Y-30123D01*
X33540Y-30132D01*
X33571Y-30138D01*
X33578Y-30141D01*
X33615Y-30147D01*
X33649Y-30152D01*
X33681Y-30155D01*
X33712Y-30160D01*
X33745Y-30166D01*
X33766Y-30170D01*
X33788Y-30175D01*
X33811Y-30181D01*
X33836Y-30189D01*
X33863Y-30197D01*
X33891Y-30207D01*
X33921Y-30218D01*
X33952Y-30231D01*
X33986Y-30247D01*
X34022Y-30264D01*
X34059Y-30283D01*
X34099Y-30305D01*
X34142Y-30330D01*
X34187Y-30357D01*
X34235Y-30387D01*
X34285Y-30421D01*
X34338Y-30457D01*
X34373Y-30482D01*
X34406Y-30505D01*
X34437Y-30529D01*
X34467Y-30551D01*
X34496Y-30573D01*
X34524Y-30595D01*
X34551Y-30617D01*
X34578Y-30638D01*
X34603Y-30660D01*
X34629Y-30681D01*
X34654Y-30703D01*
X34679Y-30725D01*
X34704Y-30747D01*
X34730Y-30770D01*
X34755Y-30793D01*
X34781Y-30817D01*
X34808Y-30841D01*
X34836Y-30866D01*
X34864Y-30892D01*
X34894Y-30919D01*
X34925Y-30947D01*
X34957Y-30977D01*
X34990Y-31007D01*
X35026Y-31039D01*
X35063Y-31072D01*
X35102Y-31107D01*
X35085Y-31135D01*
X35069Y-31163D01*
X35052Y-31192D01*
X35036Y-31221D01*
X35019Y-31249D01*
X35029Y-31259D01*
X35059Y-31285D01*
X35087Y-31310D01*
X35116Y-31336D01*
X35144Y-31361D01*
X35172Y-31386D01*
X35199Y-31410D01*
X35227Y-31435D01*
X35254Y-31460D01*
X35281Y-31484D01*
X35308Y-31509D01*
X35335Y-31534D01*
X35274Y-31641D01*
X35216Y-31749D01*
X35159Y-31858D01*
X35105Y-31968D01*
X35052Y-32080D01*
X35002Y-32192D01*
X34953Y-32306D01*
X34907Y-32420D01*
X34863Y-32536D01*
X34821Y-32652D01*
X34781Y-32769D01*
X34743Y-32888D01*
X34707Y-33007D01*
X34674Y-33126D01*
X34643Y-33247D01*
X34614Y-33368D01*
X34588Y-33490D01*
X34564Y-33613D01*
X34542Y-33736D01*
X34522Y-33860D01*
X34505Y-33985D01*
X34490Y-34110D01*
X34478Y-34236D01*
X34468Y-34362D01*
X34460Y-34489D01*
X34455Y-34616D01*
X34452Y-34744D01*
X34452Y-34872D01*
X34455Y-35001D01*
X34460Y-35129D01*
X34467Y-35259D01*
X34477Y-35388D01*
X34455Y-35395D01*
X34432Y-35402D01*
X34314Y-35440D01*
X34277Y-35451D01*
X34240Y-35462D01*
X34202Y-35473D01*
X34164Y-35484D01*
X34126Y-35495D01*
X34088Y-35506D01*
X34071Y-35509D01*
X34076Y-35547D01*
X34083Y-35586D01*
X34088Y-35624D01*
X34092Y-35648D01*
X34095Y-35673D01*
X34045Y-35687D01*
X33996Y-35702D01*
X33950Y-35715D01*
X33906Y-35729D01*
X33864Y-35741D01*
X33824Y-35753D01*
X33785Y-35765D01*
X33748Y-35776D01*
X33712Y-35787D01*
X33677Y-35797D01*
X33643Y-35807D01*
X33610Y-35817D01*
X33577Y-35826D01*
X33544Y-35835D01*
X33512Y-35844D01*
X33480Y-35852D01*
X33447Y-35861D01*
X33415Y-35869D01*
X33382Y-35877D01*
X33348Y-35885D01*
X33313Y-35892D01*
X33277Y-35900D01*
X33240Y-35907D01*
X33201Y-35915D01*
X33161Y-35922D01*
X33120Y-35930D01*
X33056Y-35940D01*
X32996Y-35949D01*
X32940Y-35957D01*
X32887Y-35963D01*
X32838Y-35967D01*
X32793Y-35970D01*
X32750Y-35972D01*
X32710Y-35973D01*
X32673Y-35973D01*
X32639Y-35972D01*
X32607Y-35970D01*
X32577Y-35968D01*
X32550Y-35964D01*
X32524Y-35961D01*
X32500Y-35956D01*
X32477Y-35952D01*
X32456Y-35947D01*
X32424Y-35938D01*
X32393Y-35927D01*
X32363Y-35915D01*
X32330Y-35903D01*
X32293Y-35891D01*
X32290Y-35895D01*
X32259Y-35887D01*
X32226Y-35880D01*
X32191Y-35875D01*
X32154Y-35871D01*
X32115Y-35870D01*
X32075Y-35872D01*
X32033Y-35878D01*
X31988Y-35887D01*
X31946Y-35901D01*
X31905Y-35919D01*
X31866Y-35940D01*
X31830Y-35964D01*
X31796Y-35991D01*
X31765Y-36020D01*
X31736Y-36052D01*
X31710Y-36087D01*
X31687Y-36124D01*
X31667Y-36162D01*
X31650Y-36202D01*
X31637Y-36244D01*
X31627Y-36286D01*
X31621Y-36330D01*
X31619Y-36374D01*
X31621Y-36419D01*
X31627Y-36464D01*
X31629Y-36489D01*
X31634Y-36513D01*
X31648Y-36555D01*
X31665Y-36595D01*
X31686Y-36633D01*
X31710Y-36669D01*
X31737Y-36703D01*
X31767Y-36734D01*
X31800Y-36763D01*
X31834Y-36788D01*
X31871Y-36811D01*
X31909Y-36831D01*
X31949Y-36847D01*
X31990Y-36860D01*
X32033Y-36870D01*
X32076Y-36876D01*
X32120Y-36878D01*
X32165Y-36876D01*
X32210Y-36871D01*
X32246Y-36863D01*
X32279Y-36853D01*
X32311Y-36841D01*
X32341Y-36828D01*
X32368Y-36813D01*
X32394Y-36798D01*
X32419Y-36782D01*
X32443Y-36766D01*
X32446Y-36766D01*
X32478Y-36744D01*
X32507Y-36724D01*
X32535Y-36704D01*
X32563Y-36685D01*
X32592Y-36666D01*
X32610Y-36654D01*
X32629Y-36642D01*
X32650Y-36630D01*
X32672Y-36617D01*
X32696Y-36605D01*
X32722Y-36592D01*
X32751Y-36579D01*
X32782Y-36566D01*
X32815Y-36553D01*
X32852Y-36540D01*
X32892Y-36528D01*
X32935Y-36515D01*
X32982Y-36502D01*
X33033Y-36490D01*
X33087Y-36478D01*
X33146Y-36466D01*
X33210Y-36454D01*
X33252Y-36447D01*
X33292Y-36440D01*
X33331Y-36434D01*
X33368Y-36429D01*
X33404Y-36424D01*
X33439Y-36419D01*
X33474Y-36416D01*
X33508Y-36412D01*
X33541Y-36409D01*
X33574Y-36406D01*
X33607Y-36403D01*
X33640Y-36401D01*
X33673Y-36399D01*
X33707Y-36397D01*
X33742Y-36395D01*
X33777Y-36393D01*
X33813Y-36391D01*
X33850Y-36390D01*
X33889Y-36388D01*
X33930Y-36386D01*
X33972Y-36384D01*
X34015Y-36382D01*
X34061Y-36379D01*
X34110Y-36377D01*
X34160Y-36374D01*
X34213Y-36371D01*
X34219Y-36397D01*
X34224Y-36423D01*
X34252Y-36530D01*
X34269Y-36530D01*
X34307Y-36528D01*
X34345Y-36525D01*
X34382Y-36523D01*
X34419Y-36521D01*
X34456Y-36519D01*
X34493Y-36518D01*
X34530Y-36516D01*
X34567Y-36514D01*
X34603Y-36513D01*
X34639Y-36511D01*
X34675Y-36509D01*
X34710Y-36635D01*
X34747Y-36759D01*
X34786Y-36881D01*
X34828Y-37003D01*
X34871Y-37123D01*
X34917Y-37242D01*
X34966Y-37360D01*
X35016Y-37477D01*
X35068Y-37592D01*
X35123Y-37706D01*
X35180Y-37818D01*
X35238Y-37929D01*
X35299Y-38039D01*
X35362Y-38147D01*
X35426Y-38254D01*
X35493Y-38360D01*
X35561Y-38464D01*
X35631Y-38566D01*
X35704Y-38667D01*
X35778Y-38767D01*
X35853Y-38865D01*
X35931Y-38961D01*
X36010Y-39056D01*
X36091Y-39149D01*
X36174Y-39241D01*
X36258Y-39331D01*
X36344Y-39419D01*
X36431Y-39506D01*
X36520Y-39591D01*
X36611Y-39674D01*
X36703Y-39756D01*
X36797Y-39836D01*
X36783Y-39862D01*
X36769Y-39888D01*
X36713Y-39996D01*
X36696Y-40029D01*
X36678Y-40063D01*
X36660Y-40098D01*
X36642Y-40132D01*
X36624Y-40166D01*
X36606Y-40200D01*
X36595Y-40214D01*
X36621Y-40235D01*
X36648Y-40256D01*
X36674Y-40277D01*
X36701Y-40298D01*
X36727Y-40318D01*
X36702Y-40364D01*
X36678Y-40408D01*
X36656Y-40450D01*
X36634Y-40490D01*
X36614Y-40528D01*
X36594Y-40565D01*
X36575Y-40600D01*
X36557Y-40634D01*
X36539Y-40666D01*
X36522Y-40698D01*
X36505Y-40729D01*
X36489Y-40759D01*
X36472Y-40789D01*
X36456Y-40818D01*
X36439Y-40847D01*
X36423Y-40875D01*
X36406Y-40904D01*
X36389Y-40933D01*
X36371Y-40962D01*
X36352Y-40991D01*
X36333Y-41021D01*
X36313Y-41051D01*
X36293Y-41083D01*
X36271Y-41115D01*
X36248Y-41148D01*
X36224Y-41183D01*
X36186Y-41236D01*
X36150Y-41284D01*
X36116Y-41329D01*
X36083Y-41370D01*
X36051Y-41407D01*
X36021Y-41442D01*
X35992Y-41473D01*
X35964Y-41501D01*
X35938Y-41526D01*
X35913Y-41550D01*
X35889Y-41570D01*
X35866Y-41589D01*
X35844Y-41606D01*
X35823Y-41621D01*
X35803Y-41635D01*
X35784Y-41647D01*
X35765Y-41659D01*
X35736Y-41676D01*
X35706Y-41691D01*
X35675Y-41707D01*
X35643Y-41723D01*
X35609Y-41742D01*
X35613Y-41746D01*
X35585Y-41762D01*
X35557Y-41780D01*
X35528Y-41801D01*
X35500Y-41825D01*
X35471Y-41852D01*
X35444Y-41882D01*
X35418Y-41916D01*
X35394Y-41954D01*
X35373Y-41994D01*
X35357Y-42035D01*
X35344Y-42077D01*
X35335Y-42120D01*
X35330Y-42163D01*
X35329Y-42206D01*
X35331Y-42249D01*
X35337Y-42292D01*
X35346Y-42334D01*
X35359Y-42375D01*
X35375Y-42415D01*
X35395Y-42454D01*
X35418Y-42491D01*
X35445Y-42526D01*
X35474Y-42559D01*
X35507Y-42589D01*
X35543Y-42617D01*
X35562Y-42632D01*
X35581Y-42645D01*
X35610Y-42659D01*
X35639Y-42670D01*
X35668Y-42680D01*
X35707Y-42691D01*
X35747Y-42699D01*
X35787Y-42704D01*
X35827Y-42705D01*
X35867Y-42704D01*
X35907Y-42700D01*
X35946Y-42693D01*
X35985Y-42682D01*
X36023Y-42669D01*
X36059Y-42653D01*
X36095Y-42634D01*
X36129Y-42612D01*
X36161Y-42587D01*
X36191Y-42559D01*
X36219Y-42529D01*
X36245Y-42496D01*
X36267Y-42460D01*
X36286Y-42423D01*
X36301Y-42387D01*
X36312Y-42352D01*
X36322Y-42317D01*
X36329Y-42284D01*
X36335Y-42253D01*
X36338Y-42253D01*
X36344Y-42215D01*
X36349Y-42179D01*
X36353Y-42145D01*
X36357Y-42112D01*
X36363Y-42079D01*
X36368Y-42054D01*
X36374Y-42028D01*
X36382Y-42001D01*
X36392Y-41971D01*
X36403Y-41940D01*
X36416Y-41906D01*
X36432Y-41870D01*
X36450Y-41831D01*
X36471Y-41789D01*
X36495Y-41745D01*
X36522Y-41697D01*
X36538Y-41670D01*
X36555Y-41643D01*
X36572Y-41614D01*
X36591Y-41584D01*
X36611Y-41553D01*
X36632Y-41521D01*
X36654Y-41489D01*
X36677Y-41456D01*
X36699Y-41426D01*
X36721Y-41396D01*
X36742Y-41367D01*
X36763Y-41340D01*
X36783Y-41313D01*
X36804Y-41287D01*
X36827Y-41258D01*
X36851Y-41231D01*
X36874Y-41204D01*
X36898Y-41178D01*
X36922Y-41151D01*
X36946Y-41124D01*
X36967Y-41100D01*
X36988Y-41076D01*
X37010Y-41052D01*
X37032Y-41027D01*
X37055Y-41001D01*
X37079Y-40974D01*
X37103Y-40947D01*
X37129Y-40918D01*
X37155Y-40889D01*
X37182Y-40858D01*
X37211Y-40826D01*
X37240Y-40793D01*
X37271Y-40758D01*
X37304Y-40721D01*
X37332Y-40739D01*
X37360Y-40756D01*
X37389Y-40774D01*
X37418Y-40791D01*
X37446Y-40808D01*
X37456Y-40794D01*
X37482Y-40765D01*
X37507Y-40736D01*
X37533Y-40708D01*
X37558Y-40680D01*
X37583Y-40652D01*
X37607Y-40624D01*
X37632Y-40597D01*
X37657Y-40570D01*
X37681Y-40543D01*
X37706Y-40516D01*
X37731Y-40489D01*
X37838Y-40549D01*
X37946Y-40608D01*
X38055Y-40665D01*
X38166Y-40719D01*
X38277Y-40772D01*
X38390Y-40823D01*
X38503Y-40871D01*
X38618Y-40918D01*
X38733Y-40962D01*
X38849Y-41004D01*
X38966Y-41044D01*
X39084Y-41082D01*
X39203Y-41117D01*
X39323Y-41151D01*
X39444Y-41182D01*
X39565Y-41210D01*
X39687Y-41237D01*
X39809Y-41261D01*
X39933Y-41283D01*
X40057Y-41302D01*
X40181Y-41320D01*
X40306Y-41334D01*
X40432Y-41347D01*
X40559Y-41357D01*
X40685Y-41364D01*
X40813Y-41369D01*
X40940Y-41372D01*
X41069Y-41372D01*
X41197Y-41369D01*
X41326Y-41364D01*
X41455Y-41356D01*
X41585Y-41346D01*
X41592Y-41370D01*
X41599Y-41395D01*
X41640Y-41516D01*
X41651Y-41553D01*
X41662Y-41590D01*
X41672Y-41627D01*
X41682Y-41664D01*
X41692Y-41701D01*
X41703Y-41739D01*
X41706Y-41749D01*
X41743Y-41746D01*
X41780Y-41742D01*
X41818Y-41739D01*
X41866Y-41732D01*
X41881Y-41783D01*
X41896Y-41832D01*
X41909Y-41878D01*
X41923Y-41922D01*
X41935Y-41964D01*
X41948Y-42004D01*
X41959Y-42043D01*
X41971Y-42080D01*
X41982Y-42116D01*
X41992Y-42150D01*
X42002Y-42184D01*
X42012Y-42217D01*
X42022Y-42250D01*
X42031Y-42282D01*
X42040Y-42313D01*
X42048Y-42345D01*
X42057Y-42377D01*
X42065Y-42410D01*
X42073Y-42443D01*
X42081Y-42476D01*
X42089Y-42511D01*
X42096Y-42547D01*
X42104Y-42584D01*
X42112Y-42622D01*
X42119Y-42662D01*
X42127Y-42704D01*
X42137Y-42768D01*
X42146Y-42827D01*
X42154Y-42883D01*
X42160Y-42936D01*
X42165Y-42984D01*
X42168Y-43030D01*
X42171Y-43072D01*
X42172Y-43112D01*
X42172Y-43148D01*
X42171Y-43183D01*
X42170Y-43214D01*
X42167Y-43244D01*
X42164Y-43271D01*
X42161Y-43297D01*
X42157Y-43320D01*
X42152Y-43343D01*
X42147Y-43364D01*
X42138Y-43396D01*
X42127Y-43427D01*
X42115Y-43457D01*
X42103Y-43490D01*
X42092Y-43527D01*
X42095Y-43534D01*
X42088Y-43565D01*
X42081Y-43598D01*
X42075Y-43634D01*
X42072Y-43672D01*
X42071Y-43711D01*
X42072Y-43752D01*
X42078Y-43794D01*
X42087Y-43836D01*
X42100Y-43876D01*
X42115Y-43915D01*
X42134Y-43951D01*
X42155Y-43986D01*
X42180Y-44019D01*
X42206Y-44050D01*
X42235Y-44078D01*
X42266Y-44104D01*
X42299Y-44127D01*
X42333Y-44148D01*
X42370Y-44166D01*
X42404Y-44179D01*
X42439Y-44190D01*
X42475Y-44199D01*
X42512Y-44204D01*
X42550Y-44208D01*
X42588Y-44208D01*
X42626Y-44206D01*
X42665Y-44200D01*
X42688Y-44196D01*
X42710Y-44190D01*
X42750Y-44177D01*
X42788Y-44160D01*
X42825Y-44141D01*
X42859Y-44119D01*
X42892Y-44094D01*
X42923Y-44066D01*
X42951Y-44037D01*
X42977Y-44005D01*
X43000Y-43971D01*
X43021Y-43936D01*
X43039Y-43899D01*
X43054Y-43861D01*
X43066Y-43822D01*
X43075Y-43781D01*
X43080Y-43740D01*
X43082Y-43698D01*
X43080Y-43656D01*
X43075Y-43614D01*
X43065Y-43572D01*
X43053Y-43534D01*
X43038Y-43499D01*
X43021Y-43466D01*
X43003Y-43435D01*
X42985Y-43407D01*
X42967Y-43381D01*
X42963Y-43378D01*
X42941Y-43347D01*
X42921Y-43319D01*
X42901Y-43292D01*
X42882Y-43266D01*
X42863Y-43239D01*
X42851Y-43221D01*
X42839Y-43201D01*
X42827Y-43181D01*
X42815Y-43158D01*
X42802Y-43134D01*
X42790Y-43107D01*
X42777Y-43079D01*
X42765Y-43047D01*
X42752Y-43013D01*
X42740Y-42976D01*
X42727Y-42936D01*
X42715Y-42893D01*
X42702Y-42846D01*
X42690Y-42795D01*
X42678Y-42740D01*
X42666Y-42681D01*
X42654Y-42617D01*
X42647Y-42575D01*
X42641Y-42534D01*
X42635Y-42496D01*
X42629Y-42458D01*
X42624Y-42422D01*
X42620Y-42387D01*
X42616Y-42352D01*
X42612Y-42319D01*
X42609Y-42286D01*
X42606Y-42253D01*
X42603Y-42220D01*
X42601Y-42187D01*
X42598Y-42154D01*
X42596Y-42120D01*
X42594Y-42086D01*
X42592Y-42050D01*
X42590Y-42014D01*
X42588Y-41977D01*
X42586Y-41938D01*
X42584Y-41897D01*
X42582Y-41855D01*
X42580Y-41810D01*
X42577Y-41763D01*
X42574Y-41714D01*
X42571Y-41663D01*
X42568Y-41608D01*
X42564Y-41551D01*
X42562Y-41515D01*
X42560Y-41481D01*
X42559Y-41447D01*
X42557Y-41412D01*
X42528Y-41419D01*
X42498Y-41426D01*
X42463Y-41434D01*
X42428Y-41441D01*
X42392Y-41449D01*
X42357Y-41456D01*
X42321Y-41463D01*
X42286Y-41469D01*
X42250Y-41476D01*
X42214Y-41482D01*
X42179Y-41489D01*
X42144Y-41495D01*
X42110Y-41501D01*
X42075Y-41507D01*
X42040Y-41513D01*
X42005Y-41518D01*
X41970Y-41523D01*
X41949Y-41523D01*
X41929Y-41523D01*
X41901Y-41528D01*
X41873Y-41534D01*
X41865Y-41505D01*
X41857Y-41475D01*
X41849Y-41447D01*
X41814Y-41329D01*
X41811Y-41322D01*
X41801Y-41287D01*
X41792Y-41254D01*
X41783Y-41221D01*
X41773Y-41191D01*
X41762Y-41161D01*
X41752Y-41131D01*
X41614Y-41146D01*
X41476Y-41158D01*
X41339Y-41166D01*
X41203Y-41172D01*
X41066Y-41175D01*
X40931Y-41175D01*
X40795Y-41172D01*
X40660Y-41166D01*
X40526Y-41158D01*
X40393Y-41146D01*
X40260Y-41132D01*
X40127Y-41115D01*
X39996Y-41095D01*
X39865Y-41073D01*
X39735Y-41048D01*
X39605Y-41020D01*
X39477Y-40990D01*
X39349Y-40956D01*
X39223Y-40921D01*
X39097Y-40883D01*
X38972Y-40842D01*
X38849Y-40798D01*
X38726Y-40753D01*
X38604Y-40704D01*
X38484Y-40654D01*
X38365Y-40600D01*
X38246Y-40545D01*
X38130Y-40487D01*
X38014Y-40426D01*
X37900Y-40364D01*
X37787Y-40299D01*
X37675Y-40232D01*
X37655Y-40252D01*
X37633Y-40273D01*
X37613Y-40294D01*
X37609Y-40301D01*
X37585Y-40327D01*
X37561Y-40352D01*
X37537Y-40378D01*
X37513Y-40403D01*
X37489Y-40429D01*
X37465Y-40455D01*
X37441Y-40482D01*
X37416Y-40509D01*
X37390Y-40537D01*
X37387Y-40541D01*
X37357Y-40521D01*
X37327Y-40502D01*
X37297Y-40482D01*
X37267Y-40462D01*
X37237Y-40442D01*
X37208Y-40422D01*
X37178Y-40401D01*
X37149Y-40381D01*
X37120Y-40360D01*
X37088Y-40338D01*
X37056Y-40315D01*
X37024Y-40293D01*
X36992Y-40270D01*
X36960Y-40246D01*
X36928Y-40223D01*
X36897Y-40200D01*
X36866Y-40176D01*
X36870Y-40173D01*
X36882Y-40148D01*
X36895Y-40124D01*
X36908Y-40100D01*
X36970Y-39989D01*
X36977Y-39985D01*
X36986Y-39964D01*
X36995Y-39943D01*
X37002Y-39937D01*
X37014Y-39912D01*
X37026Y-39888D01*
X37039Y-39860D01*
X37051Y-39832D01*
X37064Y-39805D01*
X36968Y-39727D01*
X36873Y-39647D01*
X36780Y-39566D01*
X36688Y-39483D01*
X36598Y-39398D01*
X36510Y-39311D01*
X36423Y-39223D01*
X36338Y-39132D01*
X36255Y-39040D01*
X36173Y-38947D01*
X36093Y-38851D01*
X36015Y-38754D01*
X35939Y-38656D01*
X35865Y-38555D01*
X35792Y-38453D01*
X35722Y-38350D01*
X35653Y-38245D01*
X35587Y-38138D01*
X35522Y-38030D01*
X35460Y-37921D01*
X35399Y-37810D01*
X35341Y-37698D01*
X35285Y-37584D01*
X35231Y-37469D01*
X35179Y-37352D01*
X35130Y-37234D01*
X35082Y-37115D01*
X35037Y-36994D01*
X34994Y-36872D01*
X34954Y-36749D01*
X34916Y-36625D01*
X34880Y-36499D01*
X34917Y-36498D01*
X34954Y-36496D01*
X34990Y-36495D01*
X35027Y-36494D01*
X35062Y-36493D01*
X35095Y-36492D01*
X35111Y-36492D01*
X35136Y-36491D01*
X35170Y-36491D01*
X35210Y-36490D01*
X35256Y-36489D01*
X35305Y-36488D01*
X35356Y-36487D01*
X35408Y-36486D01*
X35459Y-36485D01*
X35508Y-36484D01*
X35553Y-36483D01*
X35593Y-36483D01*
X35626Y-36482D01*
X35650Y-36482D01*
X35665Y-36482D01*
X35679Y-36455D01*
X35692Y-36428D01*
X35703Y-36398D01*
X35712Y-36370D01*
X35721Y-36343D01*
X35734Y-36305D01*
X35743Y-36281D01*
X35753Y-36252D01*
X35764Y-36218D01*
X35775Y-36181D01*
X35785Y-36141D01*
X35794Y-36100D01*
X35800Y-36058D01*
X35840Y-36051D01*
X35878Y-36045D01*
X35914Y-36039D01*
X35949Y-36034D01*
X35983Y-36029D01*
X36017Y-36024D01*
X36050Y-36020D01*
X36083Y-36016D01*
X36116Y-36012D01*
X36150Y-36008D01*
X36185Y-36005D01*
X36221Y-36002D01*
X36259Y-36000D01*
X36299Y-35997D01*
X36341Y-35995D01*
X36386Y-35993D01*
X36433Y-35991D01*
X36484Y-35989D01*
X36522Y-35987D01*
X36560Y-35986D01*
X36598Y-35984D01*
X36638Y-35983D01*
X36677Y-35981D01*
X36717Y-35980D01*
X36758Y-35978D01*
X36798Y-35976D01*
X36839Y-35974D01*
X36881Y-35972D01*
X36922Y-35970D01*
X36964Y-35968D01*
X37005Y-35965D01*
X37047Y-35963D01*
X37088Y-35960D01*
X37130Y-35957D01*
X37171Y-35954D01*
X37213Y-35950D01*
X37254Y-35947D01*
X37294Y-35943D01*
X37335Y-35939D01*
X37375Y-35935D01*
X37414Y-35931D01*
X37454Y-35926D01*
X37492Y-35921D01*
X37530Y-35916D01*
X37568Y-35910D01*
X37604Y-35904D01*
X37640Y-35898D01*
X37675Y-35892D01*
X37709Y-35885D01*
X37745Y-35878D01*
X37780Y-35870D01*
X37817Y-35861D01*
X37853Y-35853D01*
X37890Y-35843D01*
X37927Y-35834D01*
X37965Y-35824D01*
X38002Y-35814D01*
X38040Y-35804D01*
X38078Y-35794D01*
X38116Y-35784D01*
X38104Y-35748D01*
X38093Y-35712D01*
X38082Y-35676D01*
X38071Y-35640D01*
X38061Y-35604D01*
X38051Y-35567D01*
X38042Y-35530D01*
X38033Y-35493D01*
X38024Y-35456D01*
X38016Y-35418D01*
X38009Y-35381D01*
X38002Y-35343D01*
X37995Y-35304D01*
X37989Y-35266D01*
X37984Y-35228D01*
X37979Y-35189D01*
X37974Y-35151D01*
X37970Y-35113D01*
X37967Y-35075D01*
X37964Y-35036D01*
X37961Y-34998D01*
X37959Y-34960D01*
X37958Y-34922D01*
X37956Y-34884D01*
X37918Y-34888D01*
X37879Y-34891D01*
X37841Y-34895D01*
X37802Y-34899D01*
X37764Y-34903D01*
X37727Y-34907D01*
X37690Y-34912D01*
X37653Y-34917D01*
X37617Y-34922D01*
X37581Y-34927D01*
X37546Y-34932D01*
X37511Y-34938D01*
X37477Y-34943D01*
X37441Y-34950D01*
X37405Y-34957D01*
X37368Y-34965D01*
X37330Y-34973D01*
X37292Y-34981D01*
X37254Y-34990D01*
X37216Y-34999D01*
X37177Y-35009D01*
X37137Y-35019D01*
X37098Y-35029D01*
X37058Y-35039D01*
X37019Y-35050D01*
X36979Y-35061D01*
X36939Y-35072D01*
X36899Y-35084D01*
X36859Y-35095D01*
X36819Y-35107D01*
X36780Y-35119D01*
X36740Y-35131D01*
X36701Y-35143D01*
X36662Y-35155D01*
X36623Y-35167D01*
X36584Y-35179D01*
X36546Y-35191D01*
X36509Y-35202D01*
X36471Y-35214D01*
X36435Y-35226D01*
X36398Y-35238D01*
X36363Y-35249D01*
X36314Y-35264D01*
X36269Y-35279D01*
X36226Y-35292D01*
X36185Y-35304D01*
X36146Y-35316D01*
X36109Y-35326D01*
X36074Y-35336D01*
X36039Y-35345D01*
X36005Y-35354D01*
X35972Y-35362D01*
X35939Y-35369D01*
X35906Y-35377D01*
X35873Y-35384D01*
X35838Y-35391D01*
X35803Y-35398D01*
X35767Y-35405D01*
X35729Y-35412D01*
X35689Y-35419D01*
X35670Y-35384D01*
X35651Y-35350D01*
X35630Y-35317D01*
X35608Y-35285D01*
X35585Y-35255D01*
X35561Y-35227D01*
X35536Y-35200D01*
X35467Y-35134D01*
X35390Y-35180D01*
X35368Y-35190D01*
X35342Y-35201D01*
X35311Y-35214D01*
X35314Y-35254D01*
X35318Y-35295D01*
X35322Y-35337D01*
X35327Y-35379D01*
X35331Y-35421D01*
X35336Y-35463D01*
X35340Y-35505D01*
X35345Y-35546D01*
X35350Y-35586D01*
X35355Y-35626D01*
X35360Y-35664D01*
X35365Y-35700D01*
X35370Y-35735D01*
X35375Y-35767D01*
X35380Y-35798D01*
X35387Y-35835D01*
X35394Y-35871D01*
X35401Y-35908D01*
X35409Y-35945D01*
X35417Y-35981D01*
X35426Y-36017D01*
X35434Y-36054D01*
X35443Y-36090D01*
X35452Y-36126D01*
X35461Y-36162D01*
X35470Y-36198D01*
X35479Y-36234D01*
X35488Y-36270D01*
X35168Y-36273D01*
X35165Y-36270D01*
X35095Y-36273D01*
X35066Y-36275D01*
X35036Y-36277D01*
X34918Y-36270D01*
X34918Y-36277D01*
X34888Y-36279D01*
X34856Y-36282D01*
X34824Y-36284D01*
X34792Y-36285D01*
X34759Y-36285D01*
X34725Y-36285D01*
X34691Y-36286D01*
X34657Y-36286D01*
X34623Y-36287D01*
X34587Y-36289D01*
X34551Y-36290D01*
X34515Y-36292D01*
X34478Y-36294D01*
X34442Y-36296D01*
X34404Y-36298D01*
X34401Y-36301D01*
X34394Y-36267D01*
X34387Y-36232D01*
X34380Y-36197D01*
X34377Y-36180D01*
X34369Y-36146D01*
X34362Y-36114D01*
X34355Y-36081D01*
X34348Y-36048D01*
X34341Y-36015D01*
X34335Y-35982D01*
X34329Y-35945D01*
X34326Y-35908D01*
X34322Y-35871D01*
X34319Y-35834D01*
X34314Y-35798D01*
X34307Y-35758D01*
X34300Y-35719D01*
X34293Y-35680D01*
X34297Y-35676D01*
X34322Y-35667D01*
X34348Y-35657D01*
X34373Y-35648D01*
X34495Y-35617D01*
X34502Y-35617D01*
X34537Y-35606D01*
X34571Y-35594D01*
X34606Y-35582D01*
X34635Y-35573D01*
X34664Y-35564D01*
X34693Y-35555D01*
X34678Y-35417D01*
X34666Y-35279D01*
X34657Y-35142D01*
X34652Y-35006D01*
X34649Y-34869D01*
X34649Y-34734D01*
X34652Y-34598D01*
X34658Y-34463D01*
X34666Y-34329D01*
X34678Y-34196D01*
X34692Y-34063D01*
X34709Y-33930D01*
X34729Y-33799D01*
X34752Y-33668D01*
X34777Y-33538D01*
X34805Y-33408D01*
X34836Y-33280D01*
X34869Y-33152D01*
X34905Y-33026D01*
X34943Y-32900D01*
X34984Y-32775D01*
X35028Y-32652D01*
X35074Y-32529D01*
X35122Y-32407D01*
X35173Y-32287D01*
X35226Y-32168D01*
X35282Y-32050D01*
X35340Y-31933D01*
X35400Y-31817D01*
X35463Y-31703D01*
X35528Y-31590D01*
X35595Y-31478D01*
X35574Y-31458D01*
X35552Y-31437D01*
X35529Y-31416D01*
X35533Y-31412D01*
X35507Y-31388D01*
X35481Y-31364D01*
X35454Y-31340D01*
X35427Y-31316D01*
X35400Y-31292D01*
X35372Y-31267D01*
X35345Y-31243D01*
X35317Y-31218D01*
X35290Y-31193D01*
X35309Y-31163D01*
X35328Y-31133D01*
X35347Y-31102D01*
X35367Y-31072D01*
X35386Y-31042D01*
X35406Y-31012D01*
X35426Y-30982D01*
X35446Y-30952D01*
X35467Y-30923D01*
X35489Y-30891D01*
X35512Y-30859D01*
X35534Y-30828D01*
X35557Y-30797D01*
X35580Y-30765D01*
X35604Y-30734D01*
X35627Y-30703D01*
X35651Y-30673D01*
X35675Y-30685D01*
X35700Y-30698D01*
X35724Y-30711D01*
X35838Y-30770D01*
X35845Y-30777D01*
X35865Y-30787D01*
X35884Y-30798D01*
X35911Y-30813D01*
X35939Y-30829D01*
X35966Y-30842D01*
X35993Y-30854D01*
X36019Y-30867D01*
X36101Y-30766D01*
X36185Y-30666D01*
X36271Y-30568D01*
X36359Y-30471D01*
X36449Y-30376D01*
X36541Y-30283D01*
X36635Y-30192D01*
X36730Y-30103D01*
X36828Y-30016D01*
X36928Y-29930D01*
X37029Y-29847D01*
X37133Y-29765D01*
X37238Y-29686D01*
X37345Y-29609D01*
X37453Y-29534D01*
X37564Y-29461D01*
X37676Y-29390D01*
X37790Y-29321D01*
X37905Y-29255D01*
X38022Y-29191D01*
X38141Y-29129D01*
X38261Y-29070D01*
X38382Y-29013D01*
X38506Y-28959D01*
X38630Y-28907D01*
X38757Y-28858D01*
X38884Y-28811D01*
X39013Y-28767D01*
X39144Y-28725D01*
X39276Y-28686D01*
X39409Y-28650D01*
X39543Y-28617D01*
X39542Y-28578D01*
X39539Y-28539D01*
X39537Y-28499D01*
X39535Y-28459D01*
X39533Y-28419D01*
X39533Y-28419D01*
X39533Y-28419D01*
G37*
G36*
X40849Y-28548D02*
X40810Y-28549D01*
X40770Y-28550D01*
X40731Y-28552D01*
X40692Y-28554D01*
X40653Y-28556D01*
X40613Y-28559D01*
X40574Y-28562D01*
X40535Y-28565D01*
X40495Y-28568D01*
X40456Y-28572D01*
X40416Y-28575D01*
X40377Y-28579D01*
X40337Y-28584D01*
X40298Y-28588D01*
X40258Y-28593D01*
X40218Y-28598D01*
X40179Y-28603D01*
X40144Y-28608D01*
X40108Y-28612D01*
X40073Y-28617D01*
X40038Y-28622D01*
X40002Y-28627D01*
X39967Y-28632D01*
X39932Y-28638D01*
X39929Y-28638D01*
X39893Y-28645D01*
X39858Y-28652D01*
X39824Y-28659D01*
X39790Y-28667D01*
X39755Y-28674D01*
X39721Y-28682D01*
X39686Y-28690D01*
X39650Y-28698D01*
X39615Y-28706D01*
X39580Y-28714D01*
X39544Y-28723D01*
X39509Y-28731D01*
X39474Y-28740D01*
X39439Y-28749D01*
X39316Y-28782D01*
X39194Y-28818D01*
X39074Y-28855D01*
X38954Y-28895D01*
X38836Y-28938D01*
X38719Y-28982D01*
X38603Y-29029D01*
X38489Y-29078D01*
X38375Y-29129D01*
X38264Y-29182D01*
X38153Y-29237D01*
X38044Y-29294D01*
X37936Y-29354D01*
X37830Y-29415D01*
X37725Y-29478D01*
X37621Y-29543D01*
X37519Y-29610D01*
X37419Y-29679D01*
X37320Y-29750D01*
X37222Y-29823D01*
X37126Y-29897D01*
X37032Y-29973D01*
X36939Y-30051D01*
X36848Y-30131D01*
X36758Y-30212D01*
X36670Y-30295D01*
X36584Y-30380D01*
X36499Y-30466D01*
X36417Y-30553D01*
X36336Y-30643D01*
X36256Y-30733D01*
X36179Y-30825D01*
X36157Y-30852D01*
X36134Y-30879D01*
X36112Y-30905D01*
X36090Y-30932D01*
X36069Y-30959D01*
X36047Y-30986D01*
X36026Y-31013D01*
X36004Y-31041D01*
X35983Y-31069D01*
X35962Y-31097D01*
X35942Y-31125D01*
X35921Y-31153D01*
X35900Y-31182D01*
X35880Y-31211D01*
X35860Y-31240D01*
X35839Y-31270D01*
X35819Y-31301D01*
X35800Y-31331D01*
X35780Y-31362D01*
X35761Y-31392D01*
X35741Y-31423D01*
X35720Y-31456D01*
X35699Y-31490D01*
X35678Y-31524D01*
X35657Y-31559D01*
X35637Y-31593D01*
X35616Y-31627D01*
X35613Y-31638D01*
X35546Y-31755D01*
X35481Y-31873D01*
X35419Y-31993D01*
X35359Y-32114D01*
X35302Y-32236D01*
X35248Y-32360D01*
X35196Y-32485D01*
X35147Y-32611D01*
X35100Y-32738D01*
X35056Y-32867D01*
X35015Y-32996D01*
X34977Y-33127D01*
X34942Y-33258D01*
X34909Y-33391D01*
X34879Y-33524D01*
X34852Y-33659D01*
X34828Y-33794D01*
X34807Y-33930D01*
X34789Y-34067D01*
X34774Y-34204D01*
X34762Y-34342D01*
X34753Y-34481D01*
X34747Y-34620D01*
X34744Y-34760D01*
X34745Y-34901D01*
X34748Y-35042D01*
X34755Y-35183D01*
X34765Y-35325D01*
X34779Y-35467D01*
X34795Y-35609D01*
X34815Y-35752D01*
X34838Y-35895D01*
X34835Y-35895D01*
X34842Y-35934D01*
X34849Y-35973D01*
X34856Y-36012D01*
X34863Y-36050D01*
X34871Y-36089D01*
X34879Y-36127D01*
X34887Y-36166D01*
X34894Y-36166D01*
X34901Y-36190D01*
X34908Y-36214D01*
X35363Y-36211D01*
X35354Y-36176D01*
X35346Y-36140D01*
X35338Y-36105D01*
X35331Y-36070D01*
X35323Y-36034D01*
X35316Y-35998D01*
X35309Y-35963D01*
X35302Y-35927D01*
X35296Y-35891D01*
X35289Y-35855D01*
X35283Y-35818D01*
X35276Y-35780D01*
X35270Y-35743D01*
X35264Y-35705D01*
X35259Y-35667D01*
X35254Y-35629D01*
X35249Y-35591D01*
X35244Y-35553D01*
X35239Y-35516D01*
X35235Y-35478D01*
X35231Y-35440D01*
X34984Y-35523D01*
X34971Y-35397D01*
X34960Y-35272D01*
X34951Y-35146D01*
X34945Y-35021D01*
X34942Y-34897D01*
X34941Y-34772D01*
X34943Y-34648D01*
X34947Y-34525D01*
X34954Y-34402D01*
X34963Y-34279D01*
X34975Y-34157D01*
X34989Y-34036D01*
X35006Y-33915D01*
X35025Y-33795D01*
X35046Y-33675D01*
X35070Y-33557D01*
X35096Y-33438D01*
X35124Y-33321D01*
X35155Y-33204D01*
X35187Y-33089D01*
X35223Y-32974D01*
X35260Y-32860D01*
X35299Y-32746D01*
X35341Y-32634D01*
X35385Y-32523D01*
X35431Y-32413D01*
X35479Y-32303D01*
X35530Y-32195D01*
X35582Y-32088D01*
X35636Y-31982D01*
X35693Y-31877D01*
X35752Y-31773D01*
X35788Y-31809D01*
X35823Y-31844D01*
X35857Y-31878D01*
X35890Y-31911D01*
X35921Y-31942D01*
X35950Y-31973D01*
X35977Y-32001D01*
X36002Y-32027D01*
X36025Y-32052D01*
X36044Y-32074D01*
X36061Y-32093D01*
X36074Y-32110D01*
X36127Y-32176D01*
X36203Y-32145D01*
X36238Y-32131D01*
X36273Y-32116D01*
X36309Y-32098D01*
X36344Y-32079D01*
X36379Y-32057D01*
X36413Y-32034D01*
X36446Y-32009D01*
X36479Y-32033D01*
X36510Y-32055D01*
X36540Y-32077D01*
X36568Y-32098D01*
X36596Y-32119D01*
X36623Y-32139D01*
X36649Y-32160D01*
X36675Y-32180D01*
X36701Y-32202D01*
X36728Y-32224D01*
X36755Y-32246D01*
X36782Y-32270D01*
X36811Y-32295D01*
X36841Y-32322D01*
X36872Y-32350D01*
X36905Y-32380D01*
X36940Y-32412D01*
X36977Y-32447D01*
X37004Y-32472D01*
X37031Y-32497D01*
X37058Y-32522D01*
X37086Y-32548D01*
X37114Y-32573D01*
X37143Y-32600D01*
X37172Y-32626D01*
X37201Y-32652D01*
X37230Y-32679D01*
X37260Y-32705D01*
X37290Y-32732D01*
X37320Y-32759D01*
X37350Y-32785D01*
X37381Y-32812D01*
X37411Y-32838D01*
X37442Y-32865D01*
X37472Y-32891D01*
X37503Y-32917D01*
X37534Y-32942D01*
X37564Y-32967D01*
X37595Y-32993D01*
X37625Y-33017D01*
X37656Y-33041D01*
X37686Y-33065D01*
X37716Y-33089D01*
X37746Y-33111D01*
X37775Y-33134D01*
X37805Y-33155D01*
X37834Y-33177D01*
X37863Y-33197D01*
X37891Y-33217D01*
X37920Y-33236D01*
X37950Y-33256D01*
X37981Y-33275D01*
X38012Y-33295D01*
X38044Y-33314D01*
X38076Y-33334D01*
X38108Y-33353D01*
X38141Y-33373D01*
X38175Y-33392D01*
X38208Y-33412D01*
X38242Y-33431D01*
X38276Y-33450D01*
X38294Y-33415D01*
X38312Y-33380D01*
X38331Y-33345D01*
X38351Y-33310D01*
X38371Y-33276D01*
X38391Y-33242D01*
X38412Y-33208D01*
X38433Y-33174D01*
X38454Y-33141D01*
X38476Y-33108D01*
X38499Y-33076D01*
X38522Y-33043D01*
X38545Y-33011D01*
X38569Y-32980D01*
X38593Y-32948D01*
X38617Y-32917D01*
X38642Y-32886D01*
X38668Y-32856D01*
X38693Y-32825D01*
X38719Y-32795D01*
X38746Y-32766D01*
X38773Y-32736D01*
X38800Y-32707D01*
X38770Y-32682D01*
X38740Y-32657D01*
X38710Y-32632D01*
X38681Y-32607D01*
X38651Y-32583D01*
X38621Y-32559D01*
X38591Y-32535D01*
X38562Y-32512D01*
X38533Y-32490D01*
X38504Y-32468D01*
X38475Y-32446D01*
X38446Y-32425D01*
X38418Y-32405D01*
X38389Y-32385D01*
X38360Y-32365D01*
X38329Y-32345D01*
X38298Y-32324D01*
X38266Y-32304D01*
X38234Y-32284D01*
X38202Y-32264D01*
X38168Y-32243D01*
X38135Y-32223D01*
X38101Y-32203D01*
X38067Y-32183D01*
X38032Y-32163D01*
X37997Y-32143D01*
X37962Y-32123D01*
X37927Y-32103D01*
X37892Y-32084D01*
X37857Y-32064D01*
X37821Y-32045D01*
X37786Y-32026D01*
X37751Y-32007D01*
X37715Y-31988D01*
X37680Y-31969D01*
X37646Y-31951D01*
X37611Y-31933D01*
X37577Y-31915D01*
X37543Y-31897D01*
X37509Y-31879D01*
X37476Y-31862D01*
X37443Y-31845D01*
X37411Y-31829D01*
X37366Y-31806D01*
X37324Y-31784D01*
X37284Y-31763D01*
X37247Y-31743D01*
X37212Y-31724D01*
X37178Y-31706D01*
X37147Y-31688D01*
X37116Y-31670D01*
X37086Y-31653D01*
X37057Y-31635D01*
X37029Y-31618D01*
X37000Y-31600D01*
X36972Y-31582D01*
X36943Y-31563D01*
X36913Y-31544D01*
X36883Y-31523D01*
X36851Y-31501D01*
X36818Y-31478D01*
X36829Y-31440D01*
X36839Y-31401D01*
X36847Y-31362D01*
X36854Y-31323D01*
X36859Y-31285D01*
X36862Y-31248D01*
X36863Y-31211D01*
X36863Y-31121D01*
X36779Y-31100D01*
X36759Y-31093D01*
X36735Y-31083D01*
X36708Y-31072D01*
X36678Y-31060D01*
X36646Y-31045D01*
X36611Y-31029D01*
X36573Y-31012D01*
X36534Y-30993D01*
X36493Y-30973D01*
X36450Y-30953D01*
X36405Y-30931D01*
X36359Y-30909D01*
X36433Y-30822D01*
X36509Y-30737D01*
X36586Y-30653D01*
X36664Y-30571D01*
X36745Y-30490D01*
X36826Y-30411D01*
X36910Y-30333D01*
X36995Y-30256D01*
X37081Y-30181D01*
X37169Y-30108D01*
X37258Y-30036D01*
X37349Y-29966D01*
X37441Y-29898D01*
X37534Y-29831D01*
X37629Y-29766D01*
X37726Y-29703D01*
X37823Y-29642D01*
X37922Y-29582D01*
X38023Y-29524D01*
X38124Y-29468D01*
X38227Y-29414D01*
X38331Y-29361D01*
X38437Y-29311D01*
X38543Y-29262D01*
X38651Y-29216D01*
X38760Y-29171D01*
X38871Y-29129D01*
X38982Y-29088D01*
X39095Y-29050D01*
X39208Y-29013D01*
X39323Y-28979D01*
X39439Y-28947D01*
X39440Y-28998D01*
X39440Y-29047D01*
X39441Y-29095D01*
X39441Y-29141D01*
X39441Y-29185D01*
X39440Y-29226D01*
X39440Y-29265D01*
X39439Y-29300D01*
X39438Y-29333D01*
X39436Y-29362D01*
X39434Y-29387D01*
X39432Y-29409D01*
X39422Y-29496D01*
X39502Y-29527D01*
X39536Y-29542D01*
X39571Y-29556D01*
X39608Y-29569D01*
X39646Y-29580D01*
X39685Y-29589D01*
X39724Y-29597D01*
X39765Y-29603D01*
X39772Y-29643D01*
X39779Y-29681D01*
X39784Y-29717D01*
X39790Y-29752D01*
X39795Y-29786D01*
X39800Y-29820D01*
X39804Y-29853D01*
X39808Y-29886D01*
X39812Y-29919D01*
X39815Y-29953D01*
X39818Y-29988D01*
X39821Y-30024D01*
X39824Y-30062D01*
X39826Y-30102D01*
X39829Y-30144D01*
X39831Y-30189D01*
X39833Y-30236D01*
X39835Y-30287D01*
X39836Y-30323D01*
X39838Y-30360D01*
X39839Y-30397D01*
X39841Y-30435D01*
X39842Y-30474D01*
X39844Y-30512D01*
X39846Y-30551D01*
X39848Y-30590D01*
X39849Y-30630D01*
X39852Y-30670D01*
X39854Y-30710D01*
X39856Y-30750D01*
X39859Y-30790D01*
X39861Y-30830D01*
X39864Y-30871D01*
X39867Y-30911D01*
X39870Y-30951D01*
X39873Y-30991D01*
X39877Y-31031D01*
X39880Y-31070D01*
X39884Y-31110D01*
X39888Y-31149D01*
X39893Y-31187D01*
X39897Y-31225D01*
X39902Y-31263D01*
X39907Y-31300D01*
X39912Y-31337D01*
X39917Y-31373D01*
X39923Y-31409D01*
X39929Y-31443D01*
X39935Y-31478D01*
X39942Y-31512D01*
X39949Y-31548D01*
X39956Y-31584D01*
X39964Y-31620D01*
X39973Y-31656D01*
X39981Y-31693D01*
X39990Y-31730D01*
X40000Y-31768D01*
X40010Y-31806D01*
X40019Y-31843D01*
X40029Y-31881D01*
X40040Y-31919D01*
X40076Y-31907D01*
X40112Y-31896D01*
X40148Y-31885D01*
X40185Y-31874D01*
X40221Y-31864D01*
X40258Y-31854D01*
X40295Y-31845D01*
X40333Y-31836D01*
X40370Y-31827D01*
X40408Y-31819D01*
X40446Y-31812D01*
X40484Y-31805D01*
X40522Y-31798D01*
X40560Y-31792D01*
X40598Y-31787D01*
X40636Y-31782D01*
X40674Y-31777D01*
X40712Y-31773D01*
X40750Y-31770D01*
X40788Y-31767D01*
X40826Y-31764D01*
X40864Y-31762D01*
X40902Y-31761D01*
X40939Y-31759D01*
X40936Y-31720D01*
X40932Y-31681D01*
X40929Y-31643D01*
X40925Y-31604D01*
X40921Y-31566D01*
X40916Y-31528D01*
X40912Y-31491D01*
X40907Y-31454D01*
X40902Y-31417D01*
X40897Y-31381D01*
X40891Y-31346D01*
X40886Y-31311D01*
X40880Y-31277D01*
X40874Y-31241D01*
X40867Y-31204D01*
X40859Y-31167D01*
X40851Y-31130D01*
X40843Y-31092D01*
X40835Y-31054D01*
X40826Y-31015D01*
X40816Y-30976D01*
X40807Y-30937D01*
X40797Y-30898D01*
X40787Y-30858D01*
X40776Y-30818D01*
X40766Y-30778D01*
X40755Y-30738D01*
X40744Y-30699D01*
X40732Y-30659D01*
X40721Y-30619D01*
X40710Y-30579D01*
X40698Y-30540D01*
X40686Y-30500D01*
X40675Y-30461D01*
X40663Y-30422D01*
X40651Y-30384D01*
X40639Y-30346D01*
X40628Y-30308D01*
X40616Y-30271D01*
X40604Y-30234D01*
X40593Y-30198D01*
X40581Y-30162D01*
X40566Y-30114D01*
X40552Y-30068D01*
X40538Y-30025D01*
X40526Y-29985D01*
X40514Y-29946D01*
X40504Y-29909D01*
X40493Y-29873D01*
X40484Y-29839D01*
X40475Y-29805D01*
X40467Y-29772D01*
X40459Y-29739D01*
X40451Y-29706D01*
X40444Y-29672D01*
X40437Y-29638D01*
X40429Y-29603D01*
X40422Y-29566D01*
X40415Y-29528D01*
X40408Y-29489D01*
X40443Y-29470D01*
X40477Y-29450D01*
X40509Y-29429D01*
X40540Y-29408D01*
X40569Y-29385D01*
X40597Y-29361D01*
X40623Y-29336D01*
X40689Y-29270D01*
X40644Y-29193D01*
X40634Y-29174D01*
X40624Y-29150D01*
X40613Y-29123D01*
X40601Y-29093D01*
X40588Y-29060D01*
X40574Y-29024D01*
X40560Y-28985D01*
X40545Y-28944D01*
X40530Y-28900D01*
X40514Y-28855D01*
X40498Y-28808D01*
X40481Y-28759D01*
X40533Y-28755D01*
X40586Y-28751D01*
X40638Y-28748D01*
X40690Y-28745D01*
X40743Y-28742D01*
X40795Y-28740D01*
X40847Y-28738D01*
X40899Y-28737D01*
X40952Y-28736D01*
X41004Y-28736D01*
X41056Y-28736D01*
X41108Y-28737D01*
X41159Y-28738D01*
X41211Y-28739D01*
X41263Y-28741D01*
X41314Y-28743D01*
X41366Y-28746D01*
X41417Y-28749D01*
X41469Y-28753D01*
X41520Y-28757D01*
X41571Y-28762D01*
X41622Y-28767D01*
X41673Y-28772D01*
X41724Y-28778D01*
X41775Y-28784D01*
X41825Y-28791D01*
X41876Y-28798D01*
X41926Y-28805D01*
X41977Y-28813D01*
X42027Y-28821D01*
X42077Y-28830D01*
X42127Y-28839D01*
X42164Y-28847D01*
X42202Y-28854D01*
X42240Y-28863D01*
X42277Y-28871D01*
X42315Y-28879D01*
X42352Y-28888D01*
X42408Y-28901D01*
X42465Y-28915D01*
X42520Y-28929D01*
X42576Y-28943D01*
X42632Y-28959D01*
X42687Y-28974D01*
X42742Y-28990D01*
X42797Y-29007D01*
X42852Y-29024D01*
X42906Y-29042D01*
X42961Y-29060D01*
X43015Y-29079D01*
X43069Y-29098D01*
X43123Y-29118D01*
X43176Y-29138D01*
X43229Y-29159D01*
X43283Y-29180D01*
X43335Y-29201D01*
X43388Y-29224D01*
X43440Y-29246D01*
X43493Y-29269D01*
X43545Y-29293D01*
X43596Y-29317D01*
X43648Y-29341D01*
X43699Y-29366D01*
X43750Y-29392D01*
X43801Y-29418D01*
X43851Y-29444D01*
X43901Y-29471D01*
X43951Y-29499D01*
X44001Y-29526D01*
X44050Y-29555D01*
X44015Y-29591D01*
X43980Y-29626D01*
X43947Y-29660D01*
X43915Y-29692D01*
X43884Y-29723D01*
X43855Y-29751D01*
X43827Y-29778D01*
X43801Y-29803D01*
X43778Y-29825D01*
X43756Y-29844D01*
X43737Y-29861D01*
X43720Y-29874D01*
X43651Y-29930D01*
X43679Y-30006D01*
X43692Y-30041D01*
X43709Y-30076D01*
X43727Y-30112D01*
X43747Y-30147D01*
X43769Y-30181D01*
X43792Y-30216D01*
X43818Y-30249D01*
X43794Y-30282D01*
X43772Y-30313D01*
X43750Y-30343D01*
X43729Y-30372D01*
X43708Y-30400D01*
X43688Y-30427D01*
X43667Y-30453D01*
X43647Y-30480D01*
X43625Y-30506D01*
X43603Y-30533D01*
X43581Y-30560D01*
X43557Y-30588D01*
X43532Y-30617D01*
X43505Y-30647D01*
X43477Y-30678D01*
X43447Y-30711D01*
X43415Y-30746D01*
X43380Y-30784D01*
X43355Y-30811D01*
X43329Y-30839D01*
X43303Y-30867D01*
X43276Y-30896D01*
X43249Y-30925D01*
X43222Y-30955D01*
X43195Y-30985D01*
X43168Y-31015D01*
X43141Y-31045D01*
X43113Y-31076D01*
X43086Y-31107D01*
X43059Y-31138D01*
X43031Y-31169D01*
X43004Y-31200D01*
X42977Y-31232D01*
X42950Y-31263D01*
X42923Y-31295D01*
X42897Y-31326D01*
X42871Y-31358D01*
X42845Y-31389D01*
X42819Y-31421D01*
X42794Y-31452D01*
X42770Y-31483D01*
X42746Y-31514D01*
X42722Y-31545D01*
X42699Y-31575D01*
X42676Y-31606D01*
X42655Y-31636D01*
X42634Y-31666D01*
X42614Y-31694D01*
X42594Y-31723D01*
X42574Y-31753D01*
X42554Y-31783D01*
X42535Y-31814D01*
X42515Y-31845D01*
X42495Y-31877D01*
X42475Y-31909D01*
X42455Y-31942D01*
X42435Y-31975D01*
X42416Y-32008D01*
X42396Y-32042D01*
X42377Y-32075D01*
X42411Y-32093D01*
X42444Y-32110D01*
X42477Y-32129D01*
X42510Y-32147D01*
X42543Y-32167D01*
X42575Y-32186D01*
X42608Y-32206D01*
X42640Y-32227D01*
X42671Y-32247D01*
X42703Y-32268D01*
X42734Y-32290D01*
X42765Y-32312D01*
X42797Y-32334D01*
X42827Y-32356D01*
X42858Y-32379D01*
X42888Y-32402D01*
X42918Y-32425D01*
X42948Y-32449D01*
X42977Y-32473D01*
X43006Y-32498D01*
X43035Y-32523D01*
X43064Y-32548D01*
X43092Y-32574D01*
X43120Y-32600D01*
X43145Y-32570D01*
X43170Y-32540D01*
X43194Y-32511D01*
X43219Y-32481D01*
X43243Y-32452D01*
X43266Y-32422D01*
X43290Y-32393D01*
X43312Y-32364D01*
X43335Y-32335D01*
X43357Y-32306D01*
X43378Y-32278D01*
X43398Y-32249D01*
X43418Y-32221D01*
X43438Y-32192D01*
X43459Y-32163D01*
X43479Y-32132D01*
X43499Y-32101D01*
X43519Y-32069D01*
X43540Y-32037D01*
X43560Y-32005D01*
X43580Y-31971D01*
X43600Y-31938D01*
X43621Y-31904D01*
X43641Y-31870D01*
X43661Y-31835D01*
X43681Y-31800D01*
X43701Y-31765D01*
X43720Y-31730D01*
X43740Y-31695D01*
X43759Y-31660D01*
X43779Y-31624D01*
X43798Y-31589D01*
X43817Y-31554D01*
X43836Y-31518D01*
X43854Y-31483D01*
X43873Y-31449D01*
X43891Y-31414D01*
X43909Y-31380D01*
X43927Y-31346D01*
X43944Y-31312D01*
X43961Y-31279D01*
X43978Y-31246D01*
X43995Y-31214D01*
X44019Y-31168D01*
X44042Y-31124D01*
X44063Y-31083D01*
X44084Y-31045D01*
X44103Y-31009D01*
X44122Y-30975D01*
X44141Y-30943D01*
X44159Y-30911D01*
X44177Y-30881D01*
X44195Y-30852D01*
X44213Y-30822D01*
X44232Y-30793D01*
X44252Y-30763D01*
X44269Y-30736D01*
X44288Y-30709D01*
X44307Y-30680D01*
X44328Y-30651D01*
X44349Y-30621D01*
X44387Y-30632D01*
X44425Y-30642D01*
X44464Y-30650D01*
X44501Y-30657D01*
X44539Y-30662D01*
X44576Y-30665D01*
X44613Y-30666D01*
X44703Y-30666D01*
X44731Y-30582D01*
X44739Y-30557D01*
X44750Y-30527D01*
X44763Y-30493D01*
X44779Y-30454D01*
X44797Y-30412D01*
X44811Y-30380D01*
X44826Y-30347D01*
X44843Y-30313D01*
X44860Y-30277D01*
X44877Y-30240D01*
X44896Y-30201D01*
X44915Y-30162D01*
X44991Y-30227D01*
X45067Y-30294D01*
X45141Y-30361D01*
X45214Y-30430D01*
X45286Y-30500D01*
X45357Y-30572D01*
X45427Y-30644D01*
X45495Y-30718D01*
X45563Y-30793D01*
X45629Y-30869D01*
X45694Y-30946D01*
X45757Y-31024D01*
X45820Y-31104D01*
X45881Y-31184D01*
X45941Y-31266D01*
X46000Y-31349D01*
X46057Y-31433D01*
X46113Y-31517D01*
X46167Y-31603D01*
X46221Y-31690D01*
X46272Y-31779D01*
X46323Y-31868D01*
X46372Y-31958D01*
X46419Y-32049D01*
X46465Y-32141D01*
X46510Y-32234D01*
X46553Y-32328D01*
X46594Y-32423D01*
X46634Y-32519D01*
X46673Y-32615D01*
X46709Y-32713D01*
X46745Y-32812D01*
X46757Y-32847D01*
X46770Y-32883D01*
X46782Y-32919D01*
X46794Y-32955D01*
X46806Y-32991D01*
X46818Y-33027D01*
X46845Y-33027D01*
X46873Y-33027D01*
X46904Y-33027D01*
X46940Y-33025D01*
X46980Y-33022D01*
X47019Y-33020D01*
X46984Y-32906D01*
X46947Y-32793D01*
X46907Y-32681D01*
X46866Y-32570D01*
X46823Y-32460D01*
X46778Y-32352D01*
X46731Y-32244D01*
X46682Y-32138D01*
X46631Y-32033D01*
X46578Y-31929D01*
X46524Y-31826D01*
X46467Y-31725D01*
X46409Y-31624D01*
X46349Y-31525D01*
X46288Y-31428D01*
X46225Y-31331D01*
X46160Y-31236D01*
X46093Y-31143D01*
X46025Y-31051D01*
X45955Y-30960D01*
X45884Y-30870D01*
X45811Y-30782D01*
X45736Y-30695D01*
X45660Y-30610D01*
X45583Y-30526D01*
X45504Y-30444D01*
X45424Y-30363D01*
X45342Y-30284D01*
X45259Y-30206D01*
X45174Y-30129D01*
X45089Y-30055D01*
X45002Y-29982D01*
X44970Y-29956D01*
X44939Y-29931D01*
X44909Y-29906D01*
X44878Y-29881D01*
X44846Y-29857D01*
X44814Y-29832D01*
X44786Y-29811D01*
X44758Y-29789D01*
X44729Y-29767D01*
X44700Y-29746D01*
X44671Y-29724D01*
X44641Y-29703D01*
X44613Y-29683D01*
X44583Y-29663D01*
X44553Y-29642D01*
X44523Y-29622D01*
X44492Y-29603D01*
X44462Y-29583D01*
X44431Y-29564D01*
X44401Y-29544D01*
X44372Y-29526D01*
X44343Y-29507D01*
X44314Y-29488D01*
X44284Y-29470D01*
X44255Y-29451D01*
X44226Y-29433D01*
X44196Y-29416D01*
X44189Y-29412D01*
X44120Y-29372D01*
X44051Y-29333D01*
X43981Y-29295D01*
X43910Y-29257D01*
X43840Y-29221D01*
X43768Y-29185D01*
X43696Y-29151D01*
X43624Y-29117D01*
X43551Y-29084D01*
X43478Y-29052D01*
X43405Y-29021D01*
X43331Y-28991D01*
X43256Y-28962D01*
X43181Y-28934D01*
X43106Y-28906D01*
X43030Y-28880D01*
X42954Y-28855D01*
X42878Y-28830D01*
X42801Y-28807D01*
X42724Y-28784D01*
X42647Y-28763D01*
X42569Y-28742D01*
X42491Y-28723D01*
X42412Y-28704D01*
X42333Y-28687D01*
X42254Y-28670D01*
X42174Y-28655D01*
X42095Y-28640D01*
X42015Y-28627D01*
X41934Y-28614D01*
X41853Y-28603D01*
X41772Y-28593D01*
X41735Y-28588D01*
X41698Y-28584D01*
X41660Y-28580D01*
X41622Y-28576D01*
X41584Y-28572D01*
X41546Y-28568D01*
X41509Y-28565D01*
X41470Y-28562D01*
X41431Y-28559D01*
X41393Y-28557D01*
X41354Y-28555D01*
X41316Y-28553D01*
X41277Y-28551D01*
X41238Y-28549D01*
X41199Y-28548D01*
X41161Y-28547D01*
X41122Y-28546D01*
X41083Y-28546D01*
X41044Y-28545D01*
X41005Y-28545D01*
X40966Y-28546D01*
X40927Y-28546D01*
X40888Y-28547D01*
X40849Y-28548D01*
X40849Y-28548D01*
X40849Y-28548D01*
G37*
G36*
X40949Y-31916D02*
X40913Y-31917D01*
X40877Y-31918D01*
X40840Y-31920D01*
X40803Y-31923D01*
X40767Y-31926D01*
X40730Y-31930D01*
X40693Y-31934D01*
X40656Y-31938D01*
X40619Y-31943D01*
X40582Y-31949D01*
X40545Y-31955D01*
X40509Y-31961D01*
X40440Y-31974D01*
X40372Y-31988D01*
X40304Y-32004D01*
X40237Y-32022D01*
X40172Y-32041D01*
X40106Y-32062D01*
X40042Y-32084D01*
X39978Y-32107D01*
X39915Y-32132D01*
X39853Y-32158D01*
X39792Y-32186D01*
X39732Y-32215D01*
X39672Y-32245D01*
X39614Y-32276D01*
X39556Y-32309D01*
X39499Y-32343D01*
X39443Y-32379D01*
X39388Y-32415D01*
X39334Y-32453D01*
X39281Y-32492D01*
X39229Y-32532D01*
X39178Y-32573D01*
X39128Y-32615D01*
X39079Y-32658D01*
X39031Y-32703D01*
X38984Y-32748D01*
X38938Y-32794D01*
X38893Y-32842D01*
X38849Y-32890D01*
X38806Y-32939D01*
X38764Y-32990D01*
X38724Y-33041D01*
X38703Y-33068D01*
X38681Y-33096D01*
X38661Y-33124D01*
X38640Y-33152D01*
X38601Y-33209D01*
X38563Y-33268D01*
X38527Y-33327D01*
X38492Y-33387D01*
X38458Y-33448D01*
X38426Y-33510D01*
X38396Y-33572D01*
X38366Y-33635D01*
X38339Y-33699D01*
X38313Y-33764D01*
X38288Y-33830D01*
X38265Y-33896D01*
X38244Y-33962D01*
X38224Y-34030D01*
X38206Y-34098D01*
X38189Y-34166D01*
X38174Y-34235D01*
X38161Y-34304D01*
X38149Y-34374D01*
X38140Y-34445D01*
X38131Y-34516D01*
X38125Y-34587D01*
X38121Y-34658D01*
X38118Y-34730D01*
X38117Y-34803D01*
X38117Y-34875D01*
X38120Y-34948D01*
X38125Y-35021D01*
X38131Y-35094D01*
X38139Y-35168D01*
X38149Y-35241D01*
X38161Y-35315D01*
X38191Y-35461D01*
X38227Y-35604D01*
X38271Y-35743D01*
X38321Y-35880D01*
X38377Y-36012D01*
X38439Y-36141D01*
X38508Y-36265D01*
X38582Y-36386D01*
X38661Y-36502D01*
X38746Y-36615D01*
X38836Y-36722D01*
X38931Y-36825D01*
X39030Y-36923D01*
X39134Y-37016D01*
X39242Y-37104D01*
X39354Y-37187D01*
X39470Y-37264D01*
X39589Y-37335D01*
X39712Y-37401D01*
X39838Y-37461D01*
X39967Y-37515D01*
X40099Y-37563D01*
X40233Y-37605D01*
X40369Y-37640D01*
X40508Y-37668D01*
X40648Y-37690D01*
X40790Y-37705D01*
X40934Y-37712D01*
X41079Y-37713D01*
X41225Y-37706D01*
X41372Y-37691D01*
X41519Y-37669D01*
X41665Y-37640D01*
X41808Y-37603D01*
X41947Y-37560D01*
X42083Y-37510D01*
X42215Y-37453D01*
X42344Y-37391D01*
X42468Y-37322D01*
X42589Y-37248D01*
X42705Y-37169D01*
X42817Y-37084D01*
X42924Y-36994D01*
X43027Y-36899D01*
X43124Y-36799D01*
X43217Y-36695D01*
X43305Y-36587D01*
X43387Y-36475D01*
X43464Y-36359D01*
X43535Y-36239D01*
X43601Y-36116D01*
X43661Y-35990D01*
X43714Y-35861D01*
X43762Y-35729D01*
X43803Y-35595D01*
X43838Y-35458D01*
X43866Y-35320D01*
X43888Y-35179D01*
X43902Y-35037D01*
X43910Y-34893D01*
X43910Y-34748D01*
X43903Y-34602D01*
X43888Y-34455D01*
X43866Y-34308D01*
X43852Y-34235D01*
X43837Y-34162D01*
X43819Y-34090D01*
X43800Y-34019D01*
X43779Y-33949D01*
X43757Y-33880D01*
X43733Y-33812D01*
X43707Y-33744D01*
X43680Y-33678D01*
X43651Y-33612D01*
X43620Y-33548D01*
X43588Y-33484D01*
X43555Y-33422D01*
X43520Y-33360D01*
X43484Y-33299D01*
X43446Y-33240D01*
X43407Y-33182D01*
X43367Y-33124D01*
X43325Y-33068D01*
X43282Y-33013D01*
X43238Y-32959D01*
X43193Y-32906D01*
X43146Y-32854D01*
X43098Y-32803D01*
X43049Y-32754D01*
X42999Y-32706D01*
X42947Y-32659D01*
X42895Y-32613D01*
X42842Y-32569D01*
X42787Y-32526D01*
X42732Y-32484D01*
X42675Y-32443D01*
X42629Y-32412D01*
X42581Y-32380D01*
X42534Y-32350D01*
X42485Y-32321D01*
X42436Y-32293D01*
X42387Y-32265D01*
X42337Y-32239D01*
X42286Y-32213D01*
X42235Y-32189D01*
X42183Y-32165D01*
X42131Y-32143D01*
X42079Y-32121D01*
X42026Y-32101D01*
X41972Y-32081D01*
X41918Y-32062D01*
X41864Y-32045D01*
X41809Y-32029D01*
X41754Y-32013D01*
X41699Y-31999D01*
X41643Y-31986D01*
X41586Y-31974D01*
X41530Y-31962D01*
X41473Y-31953D01*
X41416Y-31944D01*
X41358Y-31936D01*
X41301Y-31930D01*
X41243Y-31924D01*
X41185Y-31920D01*
X41126Y-31917D01*
X41067Y-31916D01*
X41009Y-31915D01*
X40949Y-31916D01*
X40956Y-32114D01*
X41011Y-32113D01*
X41066Y-32113D01*
X41121Y-32115D01*
X41175Y-32117D01*
X41230Y-32121D01*
X41284Y-32126D01*
X41337Y-32131D01*
X41391Y-32138D01*
X41444Y-32146D01*
X41497Y-32155D01*
X41550Y-32165D01*
X41602Y-32176D01*
X41654Y-32188D01*
X41706Y-32201D01*
X41757Y-32215D01*
X41808Y-32231D01*
X41859Y-32247D01*
X41909Y-32264D01*
X41959Y-32282D01*
X42008Y-32301D01*
X42057Y-32320D01*
X42106Y-32341D01*
X42154Y-32363D01*
X42202Y-32386D01*
X42249Y-32409D01*
X42295Y-32434D01*
X42342Y-32459D01*
X42387Y-32486D01*
X42432Y-32513D01*
X42477Y-32541D01*
X42521Y-32570D01*
X42564Y-32600D01*
X42617Y-32638D01*
X42668Y-32677D01*
X42719Y-32717D01*
X42769Y-32758D01*
X42817Y-32801D01*
X42865Y-32845D01*
X42912Y-32890D01*
X42957Y-32936D01*
X43002Y-32983D01*
X43045Y-33032D01*
X43088Y-33081D01*
X43129Y-33132D01*
X43169Y-33183D01*
X43208Y-33236D01*
X43245Y-33290D01*
X43281Y-33344D01*
X43316Y-33400D01*
X43350Y-33457D01*
X43382Y-33514D01*
X43413Y-33573D01*
X43443Y-33632D01*
X43471Y-33693D01*
X43498Y-33754D01*
X43523Y-33816D01*
X43547Y-33879D01*
X43570Y-33943D01*
X43591Y-34008D01*
X43610Y-34073D01*
X43628Y-34139D01*
X43644Y-34206D01*
X43659Y-34274D01*
X43672Y-34343D01*
X43692Y-34480D01*
X43706Y-34617D01*
X43713Y-34753D01*
X43712Y-34888D01*
X43705Y-35022D01*
X43692Y-35155D01*
X43672Y-35286D01*
X43645Y-35415D01*
X43613Y-35542D01*
X43574Y-35667D01*
X43530Y-35790D01*
X43480Y-35910D01*
X43424Y-36027D01*
X43363Y-36142D01*
X43296Y-36253D01*
X43224Y-36361D01*
X43148Y-36465D01*
X43066Y-36566D01*
X42979Y-36662D01*
X42888Y-36755D01*
X42792Y-36843D01*
X42692Y-36927D01*
X42588Y-37006D01*
X42479Y-37080D01*
X42367Y-37149D01*
X42251Y-37212D01*
X42131Y-37270D01*
X42007Y-37323D01*
X41881Y-37369D01*
X41750Y-37410D01*
X41617Y-37444D01*
X41481Y-37471D01*
X41343Y-37492D01*
X41206Y-37505D01*
X41070Y-37512D01*
X40935Y-37512D01*
X40801Y-37505D01*
X40669Y-37491D01*
X40538Y-37471D01*
X40408Y-37445D01*
X40281Y-37412D01*
X40156Y-37374D01*
X40034Y-37329D01*
X39913Y-37279D01*
X39796Y-37224D01*
X39682Y-37162D01*
X39571Y-37096D01*
X39463Y-37024D01*
X39358Y-36947D01*
X39258Y-36865D01*
X39161Y-36779D01*
X39069Y-36688D01*
X38980Y-36592D01*
X38897Y-36492D01*
X38818Y-36387D01*
X38744Y-36279D01*
X38675Y-36167D01*
X38611Y-36050D01*
X38553Y-35930D01*
X38501Y-35807D01*
X38454Y-35680D01*
X38414Y-35550D01*
X38380Y-35417D01*
X38352Y-35280D01*
X38341Y-35211D01*
X38332Y-35143D01*
X38324Y-35074D01*
X38318Y-35006D01*
X38314Y-34938D01*
X38312Y-34870D01*
X38311Y-34802D01*
X38312Y-34735D01*
X38315Y-34667D01*
X38319Y-34601D01*
X38325Y-34534D01*
X38332Y-34468D01*
X38342Y-34402D01*
X38353Y-34337D01*
X38365Y-34272D01*
X38379Y-34208D01*
X38394Y-34144D01*
X38411Y-34081D01*
X38430Y-34018D01*
X38450Y-33956D01*
X38471Y-33894D01*
X38494Y-33833D01*
X38519Y-33773D01*
X38545Y-33713D01*
X38572Y-33654D01*
X38600Y-33596D01*
X38630Y-33539D01*
X38662Y-33482D01*
X38694Y-33426D01*
X38728Y-33371D01*
X38764Y-33316D01*
X38800Y-33263D01*
X38819Y-33237D01*
X38838Y-33210D01*
X38857Y-33184D01*
X38877Y-33159D01*
X38914Y-33111D01*
X38953Y-33064D01*
X38993Y-33019D01*
X39034Y-32974D01*
X39076Y-32930D01*
X39119Y-32886D01*
X39163Y-32844D01*
X39208Y-32803D01*
X39254Y-32763D01*
X39301Y-32724D01*
X39349Y-32685D01*
X39398Y-32648D01*
X39448Y-32612D01*
X39498Y-32577D01*
X39550Y-32543D01*
X39602Y-32511D01*
X39655Y-32479D01*
X39710Y-32449D01*
X39764Y-32419D01*
X39820Y-32391D01*
X39877Y-32364D01*
X39934Y-32339D01*
X39992Y-32314D01*
X40051Y-32291D01*
X40111Y-32270D01*
X40171Y-32249D01*
X40232Y-32230D01*
X40293Y-32212D01*
X40356Y-32196D01*
X40419Y-32181D01*
X40482Y-32167D01*
X40547Y-32155D01*
X40584Y-32149D01*
X40622Y-32143D01*
X40659Y-32138D01*
X40696Y-32133D01*
X40734Y-32129D01*
X40771Y-32125D01*
X40808Y-32121D01*
X40845Y-32119D01*
X40882Y-32116D01*
X40919Y-32115D01*
X40956Y-32114D01*
X40949Y-31916D01*
X40949Y-31916D01*
G37*
G36*
X40946Y-32214D02*
X40908Y-32216D01*
X40870Y-32218D01*
X40831Y-32221D01*
X40793Y-32224D01*
X40754Y-32228D01*
X40715Y-32233D01*
X40677Y-32238D01*
X40638Y-32243D01*
X40599Y-32249D01*
X40561Y-32256D01*
X40497Y-32268D01*
X40433Y-32282D01*
X40371Y-32297D01*
X40309Y-32313D01*
X40247Y-32331D01*
X40187Y-32350D01*
X40127Y-32371D01*
X40068Y-32393D01*
X40009Y-32417D01*
X39952Y-32441D01*
X39895Y-32467D01*
X39839Y-32495D01*
X39784Y-32523D01*
X39730Y-32553D01*
X39676Y-32584D01*
X39624Y-32616D01*
X39572Y-32649D01*
X39521Y-32684D01*
X39471Y-32720D01*
X39422Y-32756D01*
X39375Y-32794D01*
X39328Y-32833D01*
X39282Y-32873D01*
X39237Y-32914D01*
X39193Y-32956D01*
X39150Y-32999D01*
X39108Y-33043D01*
X39067Y-33088D01*
X39027Y-33134D01*
X38989Y-33181D01*
X38951Y-33228D01*
X38915Y-33277D01*
X39078Y-33391D01*
X39105Y-33355D01*
X39133Y-33319D01*
X39162Y-33284D01*
X39191Y-33249D01*
X39221Y-33215D01*
X39252Y-33181D01*
X39283Y-33148D01*
X39315Y-33115D01*
X39347Y-33083D01*
X39380Y-33052D01*
X39414Y-33021D01*
X39448Y-32991D01*
X39483Y-32961D01*
X39519Y-32932D01*
X39555Y-32904D01*
X39592Y-32877D01*
X39629Y-32850D01*
X39667Y-32823D01*
X39705Y-32798D01*
X39744Y-32773D01*
X39784Y-32749D01*
X39824Y-32725D01*
X39865Y-32703D01*
X39906Y-32681D01*
X39947Y-32659D01*
X39989Y-32639D01*
X40032Y-32620D01*
X40075Y-32601D01*
X40118Y-32583D01*
X40162Y-32566D01*
X40207Y-32549D01*
X40252Y-32534D01*
X40331Y-32989D01*
X41033Y-32864D01*
X40953Y-32412D01*
X40994Y-32411D01*
X41034Y-32411D01*
X41074Y-32412D01*
X41114Y-32413D01*
X41154Y-32415D01*
X41194Y-32418D01*
X41234Y-32421D01*
X41273Y-32425D01*
X41313Y-32430D01*
X41352Y-32436D01*
X41391Y-32442D01*
X41430Y-32448D01*
X41468Y-32456D01*
X41507Y-32464D01*
X41545Y-32472D01*
X41583Y-32481D01*
X41621Y-32491D01*
X41658Y-32502D01*
X41696Y-32513D01*
X41733Y-32524D01*
X41770Y-32537D01*
X41807Y-32549D01*
X41843Y-32563D01*
X41879Y-32577D01*
X41915Y-32591D01*
X41951Y-32607D01*
X41987Y-32622D01*
X42022Y-32638D01*
X42057Y-32655D01*
X42092Y-32673D01*
X41193Y-33950D01*
X41356Y-34065D01*
X42265Y-32770D01*
X42292Y-32785D01*
X42319Y-32799D01*
X42345Y-32815D01*
X42460Y-32652D01*
X42419Y-32625D01*
X42377Y-32599D01*
X42335Y-32573D01*
X42292Y-32548D01*
X42249Y-32525D01*
X42205Y-32502D01*
X42161Y-32479D01*
X42117Y-32458D01*
X42072Y-32437D01*
X42026Y-32418D01*
X41980Y-32399D01*
X41934Y-32381D01*
X41887Y-32364D01*
X41841Y-32347D01*
X41793Y-32332D01*
X41746Y-32318D01*
X41698Y-32304D01*
X41649Y-32291D01*
X41601Y-32280D01*
X41552Y-32269D01*
X41502Y-32259D01*
X41453Y-32250D01*
X41403Y-32242D01*
X41353Y-32235D01*
X41303Y-32229D01*
X41253Y-32224D01*
X41202Y-32220D01*
X41151Y-32217D01*
X41100Y-32215D01*
X41049Y-32213D01*
X40998Y-32213D01*
X40946Y-32214D01*
X40946Y-32214D01*
X40946Y-32214D01*
G37*
G36*
X42547Y-32718D02*
X42432Y-32881D01*
X42459Y-32902D01*
X42486Y-32925D01*
X42512Y-32947D01*
X41606Y-34239D01*
X41765Y-34353D01*
X42661Y-33075D01*
X42689Y-33102D01*
X42717Y-33129D01*
X42744Y-33157D01*
X42770Y-33185D01*
X42796Y-33213D01*
X42822Y-33242D01*
X42848Y-33271D01*
X42873Y-33300D01*
X42897Y-33331D01*
X42921Y-33361D01*
X42945Y-33392D01*
X42968Y-33423D01*
X42990Y-33455D01*
X43013Y-33487D01*
X43034Y-33519D01*
X43055Y-33552D01*
X43076Y-33585D01*
X43096Y-33619D01*
X43116Y-33653D01*
X43135Y-33687D01*
X43153Y-33722D01*
X43171Y-33757D01*
X43189Y-33793D01*
X43205Y-33829D01*
X43222Y-33865D01*
X43237Y-33901D01*
X43252Y-33938D01*
X43266Y-33976D01*
X43280Y-34013D01*
X43293Y-34051D01*
X42838Y-34131D01*
X42963Y-34829D01*
X43418Y-34749D01*
X43419Y-34796D01*
X43419Y-34844D01*
X43418Y-34891D01*
X43416Y-34938D01*
X43413Y-34985D01*
X43409Y-35032D01*
X43404Y-35078D01*
X43398Y-35124D01*
X43392Y-35170D01*
X43384Y-35216D01*
X43376Y-35262D01*
X43366Y-35307D01*
X43356Y-35352D01*
X43345Y-35397D01*
X43334Y-35442D01*
X43321Y-35486D01*
X43307Y-35530D01*
X43293Y-35574D01*
X43278Y-35617D01*
X43262Y-35660D01*
X43245Y-35702D01*
X43228Y-35745D01*
X43210Y-35787D01*
X43191Y-35828D01*
X43171Y-35869D01*
X43150Y-35910D01*
X43129Y-35950D01*
X43107Y-35990D01*
X43084Y-36029D01*
X43061Y-36068D01*
X43037Y-36107D01*
X43012Y-36145D01*
X43172Y-36256D01*
X43205Y-36205D01*
X43237Y-36154D01*
X43268Y-36101D01*
X43297Y-36048D01*
X43325Y-35995D01*
X43352Y-35940D01*
X43378Y-35885D01*
X43403Y-35830D01*
X43426Y-35773D01*
X43448Y-35716D01*
X43469Y-35659D01*
X43488Y-35601D01*
X43506Y-35542D01*
X43523Y-35483D01*
X43538Y-35424D01*
X43552Y-35364D01*
X43564Y-35303D01*
X43575Y-35243D01*
X43585Y-35181D01*
X43593Y-35120D01*
X43599Y-35058D01*
X43604Y-34996D01*
X43608Y-34933D01*
X43610Y-34870D01*
X43611Y-34807D01*
X43610Y-34744D01*
X43607Y-34680D01*
X43603Y-34617D01*
X43598Y-34553D01*
X43590Y-34489D01*
X43582Y-34424D01*
X43571Y-34360D01*
X43559Y-34296D01*
X43545Y-34233D01*
X43530Y-34170D01*
X43514Y-34108D01*
X43496Y-34047D01*
X43476Y-33987D01*
X43455Y-33927D01*
X43433Y-33868D01*
X43410Y-33810D01*
X43385Y-33752D01*
X43359Y-33695D01*
X43331Y-33640D01*
X43303Y-33585D01*
X43273Y-33531D01*
X43242Y-33477D01*
X43209Y-33425D01*
X43176Y-33373D01*
X43141Y-33323D01*
X43105Y-33273D01*
X43068Y-33224D01*
X43030Y-33177D01*
X42991Y-33130D01*
X42951Y-33084D01*
X42910Y-33039D01*
X42868Y-32995D01*
X42825Y-32952D01*
X42781Y-32911D01*
X42736Y-32870D01*
X42690Y-32830D01*
X42643Y-32792D01*
X42595Y-32754D01*
X42547Y-32718D01*
X42547Y-32718D01*
X42547Y-32718D01*
G37*
G36*
X39759Y-32881D02*
X39397Y-33395D01*
X39981Y-33801D01*
X40068Y-33676D01*
X40877Y-33534D01*
X40783Y-33666D01*
X40606Y-33916D01*
X40571Y-33921D01*
X40538Y-33934D01*
X40509Y-33954D01*
X40484Y-33982D01*
X40465Y-34019D01*
X40456Y-34060D01*
X40458Y-34101D01*
X40470Y-34140D01*
X40491Y-34175D01*
X40522Y-34204D01*
X40560Y-34223D01*
X40601Y-34231D01*
X40642Y-34228D01*
X40681Y-34216D01*
X40716Y-34194D01*
X40745Y-34162D01*
X40761Y-34132D01*
X40770Y-34099D01*
X40771Y-34066D01*
X40765Y-34034D01*
X40946Y-33777D01*
X41443Y-33068D01*
X41283Y-32961D01*
X41015Y-33336D01*
X40203Y-33478D01*
X40338Y-33287D01*
X39759Y-32881D01*
X39759Y-32881D01*
G37*
G36*
X38859Y-33367D02*
X38826Y-33418D01*
X38794Y-33469D01*
X38763Y-33522D01*
X38734Y-33575D01*
X38705Y-33628D01*
X38678Y-33683D01*
X38652Y-33738D01*
X38628Y-33794D01*
X38604Y-33850D01*
X38582Y-33907D01*
X38561Y-33964D01*
X38542Y-34022D01*
X38524Y-34081D01*
X38507Y-34140D01*
X38492Y-34199D01*
X38478Y-34259D01*
X38465Y-34320D01*
X38454Y-34380D01*
X38444Y-34442D01*
X38436Y-34503D01*
X38429Y-34565D01*
X38424Y-34627D01*
X38420Y-34690D01*
X38418Y-34753D01*
X38417Y-34816D01*
X38418Y-34879D01*
X38420Y-34943D01*
X38424Y-35006D01*
X38430Y-35070D01*
X38437Y-35134D01*
X38446Y-35199D01*
X38456Y-35263D01*
X38464Y-35302D01*
X38471Y-35341D01*
X38480Y-35379D01*
X38488Y-35418D01*
X38498Y-35456D01*
X38508Y-35493D01*
X38518Y-35531D01*
X38529Y-35568D01*
X38541Y-35605D01*
X38553Y-35642D01*
X38565Y-35678D01*
X38578Y-35715D01*
X38592Y-35750D01*
X38606Y-35786D01*
X38621Y-35821D01*
X38636Y-35856D01*
X38651Y-35891D01*
X38667Y-35926D01*
X38684Y-35960D01*
X38701Y-35993D01*
X38719Y-36027D01*
X38737Y-36060D01*
X38755Y-36093D01*
X38770Y-36119D01*
X38786Y-36145D01*
X38801Y-36171D01*
X38818Y-36197D01*
X38839Y-36230D01*
X38861Y-36262D01*
X38883Y-36294D01*
X38905Y-36325D01*
X38929Y-36356D01*
X38952Y-36387D01*
X38976Y-36418D01*
X39001Y-36448D01*
X39026Y-36478D01*
X39051Y-36507D01*
X39077Y-36536D01*
X39103Y-36564D01*
X39130Y-36593D01*
X39157Y-36620D01*
X39184Y-36648D01*
X39212Y-36674D01*
X39240Y-36701D01*
X39268Y-36727D01*
X39297Y-36753D01*
X39323Y-36775D01*
X39349Y-36798D01*
X39375Y-36820D01*
X39402Y-36842D01*
X39429Y-36863D01*
X39456Y-36885D01*
X39484Y-36905D01*
X39595Y-36749D01*
X39570Y-36728D01*
X39544Y-36705D01*
X39519Y-36683D01*
X40425Y-35388D01*
X40265Y-35277D01*
X39627Y-36187D01*
X39397Y-36027D01*
X39392Y-35993D01*
X39379Y-35961D01*
X39359Y-35933D01*
X39331Y-35909D01*
X39294Y-35889D01*
X39253Y-35881D01*
X39212Y-35882D01*
X39173Y-35894D01*
X39138Y-35916D01*
X39109Y-35947D01*
X39090Y-35984D01*
X39082Y-36024D01*
X39085Y-36064D01*
X39097Y-36103D01*
X39120Y-36137D01*
X39151Y-36166D01*
X39179Y-36180D01*
X39213Y-36190D01*
X39248Y-36193D01*
X39283Y-36187D01*
X39512Y-36350D01*
X39366Y-36558D01*
X39339Y-36532D01*
X39312Y-36505D01*
X39285Y-36478D01*
X39259Y-36450D01*
X39233Y-36422D01*
X39207Y-36393D01*
X39182Y-36364D01*
X39158Y-36334D01*
X39134Y-36304D01*
X39110Y-36274D01*
X39087Y-36243D01*
X39064Y-36211D01*
X39042Y-36180D01*
X39020Y-36148D01*
X38998Y-36115D01*
X38978Y-36082D01*
X38957Y-36049D01*
X38938Y-36016D01*
X38918Y-35982D01*
X38900Y-35949D01*
X38883Y-35916D01*
X38865Y-35883D01*
X38849Y-35850D01*
X38833Y-35816D01*
X38818Y-35782D01*
X38803Y-35748D01*
X38789Y-35713D01*
X38776Y-35678D01*
X38762Y-35643D01*
X38750Y-35608D01*
X38738Y-35572D01*
X39182Y-35496D01*
X39064Y-34801D01*
X38620Y-34878D01*
X38619Y-34837D01*
X38619Y-34796D01*
X38619Y-34756D01*
X38621Y-34715D01*
X38623Y-34675D01*
X38625Y-34635D01*
X38629Y-34595D01*
X38633Y-34555D01*
X38638Y-34515D01*
X38643Y-34476D01*
X38649Y-34436D01*
X38655Y-34397D01*
X38663Y-34358D01*
X38671Y-34319D01*
X38679Y-34280D01*
X38688Y-34242D01*
X38698Y-34203D01*
X38708Y-34165D01*
X38720Y-34127D01*
X38731Y-34090D01*
X38743Y-34052D01*
X38756Y-34015D01*
X38770Y-33978D01*
X38784Y-33941D01*
X38798Y-33905D01*
X38813Y-33869D01*
X38829Y-33833D01*
X38845Y-33798D01*
X38861Y-33765D01*
X38877Y-33733D01*
X38894Y-33701D01*
X38911Y-33670D01*
X38929Y-33638D01*
X38947Y-33606D01*
X38965Y-33575D01*
X38983Y-33543D01*
X39003Y-33512D01*
X39022Y-33482D01*
X38859Y-33367D01*
X38859Y-33367D01*
G37*
G36*
X47120Y-33412D02*
X46661Y-33419D01*
X46671Y-33458D01*
X46680Y-33496D01*
X46688Y-33535D01*
X46696Y-33573D01*
X46704Y-33612D01*
X46712Y-33651D01*
X46720Y-33690D01*
X46727Y-33729D01*
X46734Y-33768D01*
X46741Y-33808D01*
X46748Y-33846D01*
X46754Y-33885D01*
X46760Y-33923D01*
X46766Y-33962D01*
X46772Y-34001D01*
X46778Y-34040D01*
X46783Y-34079D01*
X46788Y-34117D01*
X46792Y-34156D01*
X46797Y-34193D01*
X47043Y-34100D01*
X47057Y-34226D01*
X47068Y-34352D01*
X47076Y-34477D01*
X47082Y-34602D01*
X47085Y-34727D01*
X47086Y-34851D01*
X47084Y-34975D01*
X47079Y-35099D01*
X47072Y-35222D01*
X47063Y-35344D01*
X47051Y-35466D01*
X47037Y-35588D01*
X47020Y-35708D01*
X47001Y-35828D01*
X46979Y-35948D01*
X46955Y-36067D01*
X46929Y-36185D01*
X46900Y-36302D01*
X46869Y-36419D01*
X46836Y-36534D01*
X46801Y-36649D01*
X46763Y-36763D01*
X46723Y-36877D01*
X46681Y-36989D01*
X46637Y-37100D01*
X46591Y-37210D01*
X46542Y-37320D01*
X46492Y-37428D01*
X46439Y-37535D01*
X46384Y-37641D01*
X46328Y-37746D01*
X46269Y-37850D01*
X46233Y-37814D01*
X46197Y-37780D01*
X46164Y-37746D01*
X46131Y-37714D01*
X46101Y-37683D01*
X46072Y-37654D01*
X46045Y-37626D01*
X46021Y-37601D01*
X45999Y-37577D01*
X45980Y-37556D01*
X45963Y-37537D01*
X45950Y-37520D01*
X45897Y-37450D01*
X45818Y-37482D01*
X45783Y-37495D01*
X45748Y-37511D01*
X45713Y-37528D01*
X45679Y-37548D01*
X45645Y-37569D01*
X45611Y-37592D01*
X45578Y-37617D01*
X45545Y-37594D01*
X45514Y-37571D01*
X45484Y-37550D01*
X45456Y-37529D01*
X45428Y-37509D01*
X45401Y-37488D01*
X45375Y-37468D01*
X45349Y-37448D01*
X45323Y-37427D01*
X45296Y-37405D01*
X45269Y-37383D01*
X45242Y-37359D01*
X45213Y-37334D01*
X45183Y-37308D01*
X45152Y-37280D01*
X45119Y-37250D01*
X45084Y-37218D01*
X45047Y-37183D01*
X45019Y-37158D01*
X44991Y-37132D01*
X44963Y-37105D01*
X44934Y-37079D01*
X44905Y-37052D01*
X44876Y-37025D01*
X44846Y-36998D01*
X44816Y-36970D01*
X44785Y-36943D01*
X44755Y-36915D01*
X44724Y-36888D01*
X44693Y-36860D01*
X44662Y-36833D01*
X44630Y-36805D01*
X44599Y-36778D01*
X44567Y-36751D01*
X44536Y-36724D01*
X44504Y-36698D01*
X44473Y-36671D01*
X44441Y-36645D01*
X44410Y-36620D01*
X44379Y-36594D01*
X44347Y-36570D01*
X44316Y-36545D01*
X44286Y-36522D01*
X44255Y-36499D01*
X44225Y-36476D01*
X44195Y-36454D01*
X44165Y-36433D01*
X44136Y-36413D01*
X44107Y-36394D01*
X44077Y-36374D01*
X44046Y-36354D01*
X44014Y-36334D01*
X43982Y-36314D01*
X43950Y-36294D01*
X43917Y-36275D01*
X43884Y-36255D01*
X43850Y-36235D01*
X43816Y-36215D01*
X43782Y-36196D01*
X43748Y-36176D01*
X43730Y-36212D01*
X43712Y-36247D01*
X43693Y-36282D01*
X43673Y-36317D01*
X43653Y-36352D01*
X43633Y-36386D01*
X43612Y-36420D01*
X43591Y-36454D01*
X43570Y-36488D01*
X43548Y-36521D01*
X43525Y-36554D01*
X43502Y-36587D01*
X43479Y-36619D01*
X43455Y-36652D01*
X43431Y-36684D01*
X43407Y-36715D01*
X43382Y-36746D01*
X43356Y-36777D01*
X43331Y-36808D01*
X43305Y-36838D01*
X43278Y-36868D01*
X43251Y-36897D01*
X43224Y-36926D01*
X43254Y-36951D01*
X43283Y-36976D01*
X43313Y-37000D01*
X43343Y-37024D01*
X43373Y-37048D01*
X43403Y-37071D01*
X43433Y-37094D01*
X43462Y-37117D01*
X43491Y-37139D01*
X43521Y-37160D01*
X43549Y-37181D01*
X43578Y-37201D01*
X43606Y-37221D01*
X43636Y-37242D01*
X43667Y-37263D01*
X43698Y-37284D01*
X43730Y-37305D01*
X43763Y-37326D01*
X43796Y-37346D01*
X43830Y-37367D01*
X43865Y-37388D01*
X43900Y-37409D01*
X43935Y-37430D01*
X43970Y-37450D01*
X44006Y-37471D01*
X44042Y-37491D01*
X44079Y-37511D01*
X44115Y-37532D01*
X44152Y-37552D01*
X44188Y-37572D01*
X44225Y-37591D01*
X44261Y-37611D01*
X44298Y-37630D01*
X44334Y-37649D01*
X44370Y-37668D01*
X44406Y-37687D01*
X44441Y-37706D01*
X44476Y-37724D01*
X44511Y-37742D01*
X44546Y-37760D01*
X44579Y-37777D01*
X44613Y-37794D01*
X44658Y-37818D01*
X44700Y-37840D01*
X44740Y-37861D01*
X44777Y-37881D01*
X44812Y-37900D01*
X44846Y-37919D01*
X44878Y-37938D01*
X44908Y-37956D01*
X44938Y-37974D01*
X44967Y-37992D01*
X44995Y-38010D01*
X45024Y-38028D01*
X45052Y-38047D01*
X45081Y-38066D01*
X45111Y-38086D01*
X45141Y-38107D01*
X45173Y-38129D01*
X45206Y-38152D01*
X45195Y-38190D01*
X45184Y-38228D01*
X45175Y-38267D01*
X45168Y-38304D01*
X45162Y-38342D01*
X45159Y-38379D01*
X45158Y-38416D01*
X45158Y-38506D01*
X45245Y-38530D01*
X45265Y-38537D01*
X45289Y-38546D01*
X45315Y-38557D01*
X45345Y-38570D01*
X45377Y-38584D01*
X45412Y-38599D01*
X45448Y-38616D01*
X45488Y-38634D01*
X45528Y-38654D01*
X45571Y-38674D01*
X45616Y-38696D01*
X45661Y-38718D01*
X45587Y-38804D01*
X45512Y-38889D01*
X45435Y-38973D01*
X45356Y-39055D01*
X45276Y-39136D01*
X45194Y-39216D01*
X45111Y-39293D01*
X45026Y-39370D01*
X44939Y-39445D01*
X44851Y-39518D01*
X44762Y-39590D01*
X44671Y-39660D01*
X44579Y-39728D01*
X44486Y-39795D01*
X44391Y-39860D01*
X44294Y-39923D01*
X44197Y-39985D01*
X44098Y-40045D01*
X43997Y-40102D01*
X43896Y-40159D01*
X43793Y-40213D01*
X43689Y-40265D01*
X43583Y-40316D01*
X43477Y-40364D01*
X43369Y-40411D01*
X43260Y-40455D01*
X43150Y-40498D01*
X43038Y-40539D01*
X42926Y-40577D01*
X42812Y-40613D01*
X42697Y-40648D01*
X42581Y-40680D01*
X42581Y-40629D01*
X42581Y-40580D01*
X42581Y-40532D01*
X42581Y-40487D01*
X42581Y-40443D01*
X42582Y-40402D01*
X42583Y-40364D01*
X42584Y-40329D01*
X42586Y-40297D01*
X42588Y-40268D01*
X42590Y-40243D01*
X42592Y-40221D01*
X42602Y-40134D01*
X42522Y-40096D01*
X42488Y-40081D01*
X42452Y-40068D01*
X42415Y-40056D01*
X42376Y-40045D01*
X42337Y-40036D01*
X42296Y-40029D01*
X42255Y-40023D01*
X42248Y-39984D01*
X42242Y-39946D01*
X42237Y-39909D01*
X42232Y-39874D01*
X42227Y-39840D01*
X42223Y-39807D01*
X42219Y-39774D01*
X42215Y-39741D01*
X42212Y-39707D01*
X42210Y-39673D01*
X42207Y-39638D01*
X42205Y-39602D01*
X42202Y-39564D01*
X42200Y-39524D01*
X42198Y-39482D01*
X42196Y-39438D01*
X42194Y-39390D01*
X42193Y-39339D01*
X42191Y-39302D01*
X42190Y-39264D01*
X42188Y-39225D01*
X42186Y-39186D01*
X42185Y-39147D01*
X42183Y-39107D01*
X42181Y-39066D01*
X42179Y-39026D01*
X42177Y-38985D01*
X42174Y-38944D01*
X42172Y-38903D01*
X42169Y-38861D01*
X42166Y-38820D01*
X42163Y-38778D01*
X42160Y-38737D01*
X42157Y-38696D01*
X42153Y-38654D01*
X42150Y-38613D01*
X42146Y-38572D01*
X42142Y-38532D01*
X42137Y-38492D01*
X42133Y-38452D01*
X42128Y-38412D01*
X42123Y-38373D01*
X42118Y-38335D01*
X42113Y-38297D01*
X42107Y-38259D01*
X42101Y-38223D01*
X42095Y-38187D01*
X42089Y-38152D01*
X42083Y-38118D01*
X42076Y-38083D01*
X42068Y-38047D01*
X42061Y-38011D01*
X42053Y-37974D01*
X42044Y-37937D01*
X42036Y-37900D01*
X42027Y-37862D01*
X42017Y-37824D01*
X42008Y-37787D01*
X41998Y-37749D01*
X41988Y-37711D01*
X41952Y-37723D01*
X41916Y-37734D01*
X41880Y-37745D01*
X41843Y-37756D01*
X41806Y-37766D01*
X41769Y-37776D01*
X41732Y-37785D01*
X41695Y-37794D01*
X41657Y-37803D01*
X41619Y-37811D01*
X41581Y-37818D01*
X41543Y-37825D01*
X41505Y-37832D01*
X41467Y-37838D01*
X41429Y-37843D01*
X41391Y-37848D01*
X41353Y-37853D01*
X41315Y-37857D01*
X41277Y-37860D01*
X41239Y-37863D01*
X41202Y-37866D01*
X41164Y-37868D01*
X41126Y-37869D01*
X41088Y-37871D01*
X41092Y-37909D01*
X41095Y-37948D01*
X41098Y-37987D01*
X41102Y-38025D01*
X41106Y-38063D01*
X41110Y-38100D01*
X41114Y-38137D01*
X41118Y-38174D01*
X41123Y-38210D01*
X41128Y-38246D01*
X41133Y-38281D01*
X41138Y-38316D01*
X41144Y-38350D01*
X41150Y-38386D01*
X41157Y-38422D01*
X41165Y-38459D01*
X41173Y-38497D01*
X41181Y-38535D01*
X41190Y-38573D01*
X41199Y-38611D01*
X41208Y-38650D01*
X41218Y-38690D01*
X41228Y-38729D01*
X41238Y-38769D01*
X41249Y-38808D01*
X41260Y-38848D01*
X41271Y-38888D01*
X41282Y-38928D01*
X41294Y-38968D01*
X41305Y-39008D01*
X41317Y-39047D01*
X41328Y-39087D01*
X41340Y-39126D01*
X41352Y-39165D01*
X41364Y-39204D01*
X41376Y-39243D01*
X41388Y-39281D01*
X41400Y-39318D01*
X41411Y-39356D01*
X41423Y-39392D01*
X41435Y-39429D01*
X41446Y-39464D01*
X41461Y-39513D01*
X41476Y-39558D01*
X41489Y-39601D01*
X41501Y-39642D01*
X41513Y-39681D01*
X41523Y-39718D01*
X41533Y-39753D01*
X41542Y-39788D01*
X41551Y-39822D01*
X41559Y-39855D01*
X41566Y-39888D01*
X41574Y-39921D01*
X41581Y-39954D01*
X41588Y-39989D01*
X41595Y-40024D01*
X41602Y-40060D01*
X41609Y-40098D01*
X41616Y-40138D01*
X41581Y-40157D01*
X41547Y-40176D01*
X41514Y-40197D01*
X41482Y-40219D01*
X41452Y-40242D01*
X41424Y-40266D01*
X41397Y-40291D01*
X41331Y-40360D01*
X41380Y-40437D01*
X41389Y-40456D01*
X41400Y-40479D01*
X41411Y-40505D01*
X41422Y-40535D01*
X41435Y-40568D01*
X41448Y-40603D01*
X41462Y-40641D01*
X41476Y-40682D01*
X41491Y-40724D01*
X41507Y-40769D01*
X41523Y-40816D01*
X41540Y-40864D01*
X41500Y-40867D01*
X41460Y-40870D01*
X41420Y-40873D01*
X41380Y-40876D01*
X41340Y-40878D01*
X41300Y-40880D01*
X41260Y-40882D01*
X41221Y-40884D01*
X41181Y-40885D01*
X41141Y-40886D01*
X41101Y-40887D01*
X41062Y-40887D01*
X41022Y-40888D01*
X40983Y-40888D01*
X40943Y-40887D01*
X40904Y-40887D01*
X40864Y-40886D01*
X40825Y-40885D01*
X40785Y-40884D01*
X40746Y-40882D01*
X40707Y-40881D01*
X40668Y-40879D01*
X40628Y-40876D01*
X40589Y-40874D01*
X40550Y-40871D01*
X40511Y-40868D01*
X40472Y-40865D01*
X40433Y-40861D01*
X40395Y-40857D01*
X40356Y-40853D01*
X40317Y-40849D01*
X40279Y-40845D01*
X40241Y-40840D01*
X40203Y-40836D01*
X40165Y-40831D01*
X40127Y-40825D01*
X40062Y-40816D01*
X39997Y-40805D01*
X39933Y-40794D01*
X39869Y-40782D01*
X39805Y-40769D01*
X39741Y-40756D01*
X39678Y-40742D01*
X39614Y-40728D01*
X39551Y-40713D01*
X39489Y-40697D01*
X39426Y-40680D01*
X39364Y-40663D01*
X39301Y-40645D01*
X39239Y-40627D01*
X39178Y-40608D01*
X39116Y-40588D01*
X39055Y-40568D01*
X38994Y-40546D01*
X38934Y-40525D01*
X38873Y-40503D01*
X38813Y-40480D01*
X38753Y-40456D01*
X38694Y-40432D01*
X38635Y-40407D01*
X38576Y-40382D01*
X38517Y-40356D01*
X38459Y-40329D01*
X38401Y-40302D01*
X38343Y-40274D01*
X38286Y-40245D01*
X38228Y-40216D01*
X38172Y-40187D01*
X38138Y-40169D01*
X38104Y-40150D01*
X38070Y-40132D01*
X38037Y-40113D01*
X38003Y-40094D01*
X37970Y-40075D01*
X38006Y-40039D01*
X38041Y-40004D01*
X38075Y-39970D01*
X38108Y-39938D01*
X38140Y-39907D01*
X38170Y-39878D01*
X38198Y-39852D01*
X38224Y-39827D01*
X38249Y-39805D01*
X38271Y-39786D01*
X38290Y-39770D01*
X38307Y-39756D01*
X38373Y-39700D01*
X38342Y-39621D01*
X38328Y-39585D01*
X38313Y-39550D01*
X38295Y-39515D01*
X38276Y-39480D01*
X38254Y-39445D01*
X38231Y-39411D01*
X38206Y-39378D01*
X38231Y-39343D01*
X38254Y-39311D01*
X38276Y-39281D01*
X38298Y-39251D01*
X38319Y-39223D01*
X38341Y-39195D01*
X38362Y-39168D01*
X38384Y-39141D01*
X38406Y-39114D01*
X38429Y-39087D01*
X38453Y-39058D01*
X38478Y-39029D01*
X38505Y-38999D01*
X38525Y-38976D01*
X38547Y-38952D01*
X38569Y-38927D01*
X38593Y-38902D01*
X38618Y-38874D01*
X38644Y-38846D01*
X38669Y-38819D01*
X38695Y-38791D01*
X38722Y-38763D01*
X38748Y-38734D01*
X38775Y-38705D01*
X38802Y-38675D01*
X38829Y-38645D01*
X38857Y-38615D01*
X38884Y-38585D01*
X38912Y-38554D01*
X38939Y-38523D01*
X38967Y-38492D01*
X38994Y-38461D01*
X39022Y-38430D01*
X39049Y-38398D01*
X39076Y-38367D01*
X39103Y-38335D01*
X39129Y-38304D01*
X39156Y-38272D01*
X39182Y-38241D01*
X39207Y-38209D01*
X39233Y-38178D01*
X39257Y-38147D01*
X39282Y-38116D01*
X39305Y-38085D01*
X39328Y-38055D01*
X39351Y-38024D01*
X39373Y-37994D01*
X39394Y-37964D01*
X39414Y-37936D01*
X39434Y-37907D01*
X39454Y-37877D01*
X39474Y-37847D01*
X39494Y-37816D01*
X39514Y-37785D01*
X39535Y-37753D01*
X39555Y-37721D01*
X39575Y-37689D01*
X39595Y-37656D01*
X39615Y-37622D01*
X39635Y-37589D01*
X39654Y-37555D01*
X39619Y-37537D01*
X39583Y-37518D01*
X39548Y-37499D01*
X39513Y-37480D01*
X39479Y-37460D01*
X39444Y-37440D01*
X39410Y-37419D01*
X39376Y-37398D01*
X39343Y-37376D01*
X39309Y-37354D01*
X39276Y-37332D01*
X39244Y-37309D01*
X39211Y-37285D01*
X39179Y-37262D01*
X39147Y-37238D01*
X39116Y-37213D01*
X39084Y-37188D01*
X39054Y-37163D01*
X39023Y-37137D01*
X38993Y-37111D01*
X38963Y-37084D01*
X38933Y-37058D01*
X38904Y-37030D01*
X38879Y-37060D01*
X38854Y-37090D01*
X38829Y-37120D01*
X38805Y-37149D01*
X38781Y-37179D01*
X38757Y-37208D01*
X38734Y-37237D01*
X38712Y-37266D01*
X38689Y-37295D01*
X38668Y-37324D01*
X38646Y-37352D01*
X38626Y-37381D01*
X38606Y-37409D01*
X38586Y-37438D01*
X38565Y-37467D01*
X38545Y-37498D01*
X38525Y-37529D01*
X38505Y-37561D01*
X38484Y-37593D01*
X38464Y-37625D01*
X38444Y-37659D01*
X38424Y-37692D01*
X38403Y-37726D01*
X38383Y-37760D01*
X38363Y-37795D01*
X38343Y-37830D01*
X38324Y-37865D01*
X38304Y-37900D01*
X38284Y-37935D01*
X38265Y-37970D01*
X38245Y-38006D01*
X38226Y-38041D01*
X38207Y-38076D01*
X38188Y-38112D01*
X38170Y-38147D01*
X38151Y-38181D01*
X38133Y-38216D01*
X38115Y-38250D01*
X38097Y-38284D01*
X38080Y-38318D01*
X38063Y-38351D01*
X38046Y-38384D01*
X38029Y-38416D01*
X38006Y-38461D01*
X37984Y-38503D01*
X37963Y-38542D01*
X37943Y-38580D01*
X37924Y-38615D01*
X37905Y-38648D01*
X37887Y-38679D01*
X37869Y-38710D01*
X37852Y-38739D01*
X37834Y-38768D01*
X37816Y-38796D01*
X37798Y-38824D01*
X37780Y-38852D01*
X37761Y-38881D01*
X37741Y-38911D01*
X37720Y-38941D01*
X37698Y-38973D01*
X37675Y-39006D01*
X37637Y-38995D01*
X37598Y-38985D01*
X37559Y-38977D01*
X37520Y-38972D01*
X37482Y-38968D01*
X37445Y-38965D01*
X37408Y-38964D01*
X37321Y-38961D01*
X37297Y-39048D01*
X37288Y-39072D01*
X37277Y-39102D01*
X37263Y-39135D01*
X37246Y-39173D01*
X37227Y-39214D01*
X37214Y-39242D01*
X37201Y-39272D01*
X37186Y-39302D01*
X37171Y-39334D01*
X37155Y-39366D01*
X37139Y-39399D01*
X37123Y-39433D01*
X37106Y-39468D01*
X37065Y-39433D01*
X37024Y-39398D01*
X36984Y-39363D01*
X36944Y-39327D01*
X36905Y-39291D01*
X36866Y-39255D01*
X36827Y-39218D01*
X36788Y-39181D01*
X36750Y-39144D01*
X36712Y-39106D01*
X36674Y-39068D01*
X36637Y-39029D01*
X36600Y-38990D01*
X36563Y-38951D01*
X36527Y-38912D01*
X36491Y-38872D01*
X36455Y-38832D01*
X36420Y-38791D01*
X36385Y-38750D01*
X36350Y-38709D01*
X36316Y-38668D01*
X36282Y-38626D01*
X36249Y-38584D01*
X36216Y-38541D01*
X36183Y-38498D01*
X36150Y-38455D01*
X36118Y-38412D01*
X36087Y-38368D01*
X36055Y-38324D01*
X36024Y-38280D01*
X35994Y-38235D01*
X35963Y-38190D01*
X35944Y-38160D01*
X35924Y-38129D01*
X35905Y-38099D01*
X35886Y-38068D01*
X35868Y-38037D01*
X35849Y-38006D01*
X35824Y-37965D01*
X35800Y-37925D01*
X35775Y-37883D01*
X35751Y-37842D01*
X35728Y-37801D01*
X35704Y-37759D01*
X35681Y-37717D01*
X35659Y-37675D01*
X35636Y-37633D01*
X35614Y-37590D01*
X35592Y-37547D01*
X35570Y-37505D01*
X35549Y-37461D01*
X35528Y-37418D01*
X35508Y-37374D01*
X35487Y-37331D01*
X35468Y-37287D01*
X35448Y-37243D01*
X35429Y-37198D01*
X35410Y-37154D01*
X35391Y-37109D01*
X35373Y-37064D01*
X35355Y-37019D01*
X35337Y-36973D01*
X35320Y-36928D01*
X35303Y-36882D01*
X35287Y-36836D01*
X35271Y-36790D01*
X35255Y-36743D01*
X35240Y-36697D01*
X35225Y-36650D01*
X35210Y-36603D01*
X35179Y-36603D01*
X35147Y-36603D01*
X35113Y-36603D01*
X35078Y-36603D01*
X35042Y-36603D01*
X35005Y-36603D01*
X35040Y-36718D01*
X35077Y-36831D01*
X35116Y-36943D01*
X35158Y-37054D01*
X35201Y-37164D01*
X35246Y-37273D01*
X35292Y-37380D01*
X35341Y-37487D01*
X35392Y-37592D01*
X35444Y-37696D01*
X35499Y-37799D01*
X35555Y-37901D01*
X35613Y-38001D01*
X35672Y-38100D01*
X35734Y-38198D01*
X35797Y-38294D01*
X35862Y-38389D01*
X35928Y-38483D01*
X35996Y-38575D01*
X36066Y-38666D01*
X36137Y-38756D01*
X36210Y-38844D01*
X36284Y-38931D01*
X36360Y-39016D01*
X36437Y-39100D01*
X36516Y-39183D01*
X36597Y-39263D01*
X36678Y-39343D01*
X36761Y-39421D01*
X36846Y-39497D01*
X36932Y-39572D01*
X37019Y-39645D01*
X37036Y-39659D01*
X37063Y-39681D01*
X37090Y-39702D01*
X37117Y-39724D01*
X37144Y-39745D01*
X37172Y-39766D01*
X37200Y-39788D01*
X37228Y-39810D01*
X37257Y-39831D01*
X37285Y-39853D01*
X37314Y-39874D01*
X37345Y-39897D01*
X37376Y-39921D01*
X37408Y-39943D01*
X37434Y-39961D01*
X37460Y-39978D01*
X37486Y-39996D01*
X37512Y-40013D01*
X37538Y-40030D01*
X37564Y-40048D01*
X37590Y-40066D01*
X37616Y-40082D01*
X37623Y-40086D01*
X37654Y-40106D01*
X37684Y-40126D01*
X37715Y-40146D01*
X37745Y-40165D01*
X37776Y-40185D01*
X37807Y-40204D01*
X37835Y-40218D01*
X37866Y-40236D01*
X37898Y-40254D01*
X37930Y-40272D01*
X37961Y-40290D01*
X37993Y-40308D01*
X38025Y-40325D01*
X38057Y-40343D01*
X38163Y-40398D01*
X38270Y-40452D01*
X38379Y-40503D01*
X38488Y-40552D01*
X38598Y-40600D01*
X38710Y-40645D01*
X38822Y-40688D01*
X38935Y-40729D01*
X39049Y-40768D01*
X39164Y-40804D01*
X39280Y-40839D01*
X39396Y-40871D01*
X39514Y-40901D01*
X39632Y-40929D01*
X39751Y-40954D01*
X39870Y-40978D01*
X39990Y-40998D01*
X40111Y-41017D01*
X40232Y-41033D01*
X40354Y-41047D01*
X40477Y-41059D01*
X40600Y-41068D01*
X40723Y-41075D01*
X40847Y-41079D01*
X40972Y-41081D01*
X41097Y-41080D01*
X41222Y-41077D01*
X41347Y-41071D01*
X41473Y-41063D01*
X41599Y-41053D01*
X41726Y-41039D01*
X41852Y-41023D01*
X41887Y-41019D01*
X41921Y-41014D01*
X41955Y-41010D01*
X41989Y-41005D01*
X42023Y-41000D01*
X42058Y-40994D01*
X42092Y-40989D01*
X42128Y-40982D01*
X42163Y-40976D01*
X42198Y-40969D01*
X42233Y-40962D01*
X42268Y-40955D01*
X42303Y-40948D01*
X42338Y-40940D01*
X42374Y-40932D01*
X42409Y-40924D01*
X42444Y-40916D01*
X42480Y-40907D01*
X42515Y-40899D01*
X42550Y-40890D01*
X42585Y-40881D01*
X42708Y-40848D01*
X42830Y-40812D01*
X42950Y-40775D01*
X43070Y-40735D01*
X43188Y-40692D01*
X43305Y-40648D01*
X43420Y-40601D01*
X43535Y-40552D01*
X43648Y-40501D01*
X43759Y-40448D01*
X43870Y-40393D01*
X43979Y-40335D01*
X44086Y-40276D01*
X44193Y-40215D01*
X44297Y-40152D01*
X44401Y-40086D01*
X44503Y-40019D01*
X44603Y-39950D01*
X44702Y-39879D01*
X44799Y-39807D01*
X44895Y-39732D01*
X44989Y-39656D01*
X45082Y-39578D01*
X45173Y-39499D01*
X45263Y-39417D01*
X45351Y-39335D01*
X45437Y-39250D01*
X45521Y-39164D01*
X45604Y-39076D01*
X45685Y-38987D01*
X45764Y-38897D01*
X45842Y-38805D01*
X45867Y-38775D01*
X45893Y-38746D01*
X45918Y-38717D01*
X45943Y-38687D01*
X45960Y-38661D01*
X45977Y-38635D01*
X45995Y-38610D01*
X46019Y-38579D01*
X46042Y-38549D01*
X46066Y-38519D01*
X46090Y-38489D01*
X46113Y-38457D01*
X46127Y-38437D01*
X46140Y-38416D01*
X46161Y-38384D01*
X46183Y-38353D01*
X46205Y-38320D01*
X46227Y-38288D01*
X46249Y-38256D01*
X46270Y-38223D01*
X46292Y-38191D01*
X46313Y-38158D01*
X46334Y-38125D01*
X46354Y-38092D01*
X46375Y-38059D01*
X46395Y-38025D01*
X46415Y-37992D01*
X46482Y-37875D01*
X46547Y-37757D01*
X46609Y-37637D01*
X46669Y-37516D01*
X46726Y-37394D01*
X46780Y-37270D01*
X46832Y-37145D01*
X46881Y-37019D01*
X46928Y-36892D01*
X46972Y-36764D01*
X47013Y-36634D01*
X47051Y-36504D01*
X47086Y-36372D01*
X47119Y-36239D01*
X47149Y-36106D01*
X47176Y-35972D01*
X47200Y-35837D01*
X47221Y-35701D01*
X47239Y-35564D01*
X47254Y-35426D01*
X47266Y-35288D01*
X47275Y-35149D01*
X47281Y-35010D01*
X47283Y-34870D01*
X47283Y-34730D01*
X47279Y-34589D01*
X47272Y-34447D01*
X47262Y-34306D01*
X47249Y-34163D01*
X47232Y-34021D01*
X47212Y-33878D01*
X47189Y-33735D01*
X47182Y-33696D01*
X47175Y-33657D01*
X47167Y-33617D01*
X47159Y-33578D01*
X47150Y-33538D01*
X47142Y-33499D01*
X47134Y-33461D01*
X47130Y-33461D01*
X47125Y-33436D01*
X47120Y-33412D01*
X47120Y-33412D01*
X47120Y-33412D01*
G37*
G36*
X39130Y-33784D02*
X38765Y-34298D01*
X39349Y-34707D01*
X39453Y-34555D01*
X41547Y-36023D01*
X41158Y-36096D01*
X41252Y-35964D01*
X41085Y-35846D01*
X40585Y-36562D01*
X40745Y-36673D01*
X41019Y-36294D01*
X41050Y-36287D01*
X41259Y-36437D01*
X41265Y-36470D01*
X41278Y-36502D01*
X41298Y-36531D01*
X41325Y-36555D01*
X41362Y-36574D01*
X41402Y-36582D01*
X41442Y-36579D01*
X41480Y-36566D01*
X41515Y-36544D01*
X41543Y-36513D01*
X41563Y-36476D01*
X41571Y-36437D01*
X41570Y-36397D01*
X41558Y-36360D01*
X41536Y-36326D01*
X41505Y-36298D01*
X41477Y-36282D01*
X41448Y-36272D01*
X41417Y-36268D01*
X41387Y-36270D01*
X41370Y-36277D01*
X41318Y-36239D01*
X41745Y-36159D01*
X41790Y-36190D01*
X41686Y-36343D01*
X42262Y-36746D01*
X42370Y-36600D01*
X42484Y-36437D01*
X42627Y-36232D01*
X42047Y-35829D01*
X41960Y-35950D01*
X41818Y-35975D01*
X39564Y-34391D01*
X39710Y-34193D01*
X39130Y-33784D01*
X39130Y-33784D01*
G37*
G36*
X42509Y-33815D02*
X42012Y-34523D01*
X41835Y-34777D01*
X41801Y-34783D01*
X41769Y-34796D01*
X41741Y-34816D01*
X41717Y-34843D01*
X41697Y-34881D01*
X41688Y-34921D01*
X41689Y-34962D01*
X41700Y-35001D01*
X41721Y-35036D01*
X41752Y-35065D01*
X41789Y-35084D01*
X41830Y-35092D01*
X41871Y-35090D01*
X41910Y-35077D01*
X41945Y-35055D01*
X41974Y-35023D01*
X41992Y-34991D01*
X42001Y-34957D01*
X42002Y-34922D01*
X41995Y-34888D01*
X42262Y-34509D01*
X42404Y-35318D01*
X42318Y-35443D01*
X42897Y-35843D01*
X43259Y-35329D01*
X42679Y-34919D01*
X42543Y-35114D01*
X42401Y-34305D01*
X42672Y-33933D01*
X42509Y-33815D01*
X42509Y-33815D01*
G37*
G36*
X39335Y-34832D02*
X39306Y-34840D01*
X39279Y-34854D01*
X39255Y-34874D01*
X39234Y-34898D01*
X39215Y-34936D01*
X39206Y-34976D01*
X39208Y-35016D01*
X39220Y-35054D01*
X39241Y-35089D01*
X39272Y-35117D01*
X39300Y-35131D01*
X39336Y-35142D01*
X39372Y-35144D01*
X39408Y-35138D01*
X39634Y-35298D01*
X39356Y-35697D01*
X39519Y-35808D01*
X40015Y-35100D01*
X39852Y-34989D01*
X39748Y-35138D01*
X39519Y-34978D01*
X39513Y-34944D01*
X39500Y-34913D01*
X39480Y-34884D01*
X39453Y-34860D01*
X39425Y-34844D01*
X39396Y-34834D01*
X39365Y-34830D01*
X39335Y-34832D01*
X39335Y-34832D01*
X39335Y-34832D01*
G37*
G36*
X40675Y-35562D02*
X39762Y-36857D01*
X39735Y-36842D01*
X39709Y-36827D01*
X39682Y-36812D01*
X39568Y-36971D01*
X39618Y-37004D01*
X39670Y-37036D01*
X39722Y-37067D01*
X39775Y-37097D01*
X39829Y-37125D01*
X39884Y-37152D01*
X39939Y-37178D01*
X39995Y-37203D01*
X40051Y-37226D01*
X40108Y-37248D01*
X40166Y-37269D01*
X40224Y-37289D01*
X40282Y-37307D01*
X40342Y-37323D01*
X40401Y-37339D01*
X40461Y-37353D01*
X40522Y-37365D01*
X40583Y-37377D01*
X40644Y-37386D01*
X40706Y-37395D01*
X40768Y-37401D01*
X40831Y-37407D01*
X40893Y-37410D01*
X40956Y-37413D01*
X41019Y-37413D01*
X41083Y-37413D01*
X41146Y-37410D01*
X41210Y-37406D01*
X41274Y-37401D01*
X41338Y-37393D01*
X41403Y-37385D01*
X41467Y-37374D01*
X41531Y-37362D01*
X41594Y-37348D01*
X41657Y-37333D01*
X41719Y-37317D01*
X41780Y-37298D01*
X41840Y-37279D01*
X41900Y-37258D01*
X41959Y-37236D01*
X42017Y-37212D01*
X42075Y-37187D01*
X42131Y-37161D01*
X42187Y-37133D01*
X42242Y-37104D01*
X42296Y-37074D01*
X42350Y-37043D01*
X42402Y-37010D01*
X42454Y-36977D01*
X42504Y-36942D01*
X42554Y-36906D01*
X42603Y-36869D01*
X42650Y-36831D01*
X42697Y-36791D01*
X42743Y-36751D01*
X42788Y-36710D01*
X42832Y-36668D01*
X42875Y-36624D01*
X42916Y-36580D01*
X42957Y-36535D01*
X42997Y-36489D01*
X43035Y-36442D01*
X43073Y-36395D01*
X43109Y-36346D01*
X42946Y-36235D01*
X42924Y-36264D01*
X42903Y-36293D01*
X42881Y-36322D01*
X42858Y-36350D01*
X42835Y-36378D01*
X42809Y-36407D01*
X42782Y-36437D01*
X42755Y-36466D01*
X42728Y-36495D01*
X42700Y-36523D01*
X42671Y-36551D01*
X42642Y-36578D01*
X42613Y-36605D01*
X42583Y-36632D01*
X42553Y-36658D01*
X42522Y-36683D01*
X42491Y-36708D01*
X42459Y-36733D01*
X42427Y-36757D01*
X42395Y-36780D01*
X42362Y-36803D01*
X42328Y-36826D01*
X42295Y-36848D01*
X42260Y-36869D01*
X42226Y-36890D01*
X42191Y-36910D01*
X42155Y-36929D01*
X42119Y-36949D01*
X42083Y-36967D01*
X42047Y-36985D01*
X42010Y-37002D01*
X41972Y-37019D01*
X41934Y-37035D01*
X41896Y-37050D01*
X41858Y-37065D01*
X41819Y-37079D01*
X41779Y-37093D01*
X41696Y-36638D01*
X40998Y-36759D01*
X41078Y-37214D01*
X41040Y-37215D01*
X41002Y-37215D01*
X40964Y-37215D01*
X40926Y-37214D01*
X40888Y-37212D01*
X40851Y-37210D01*
X40813Y-37207D01*
X40776Y-37204D01*
X40739Y-37200D01*
X40703Y-37196D01*
X40666Y-37192D01*
X40630Y-37187D01*
X40592Y-37180D01*
X40554Y-37173D01*
X40516Y-37165D01*
X40478Y-37157D01*
X40441Y-37148D01*
X40403Y-37138D01*
X40366Y-37128D01*
X40329Y-37117D01*
X40293Y-37106D01*
X40256Y-37094D01*
X40220Y-37081D01*
X40184Y-37068D01*
X40148Y-37054D01*
X40113Y-37040D01*
X40078Y-37025D01*
X40043Y-37010D01*
X40008Y-36994D01*
X39973Y-36978D01*
X39939Y-36961D01*
X40085Y-36749D01*
X40314Y-36909D01*
X40320Y-36943D01*
X40333Y-36974D01*
X40353Y-37003D01*
X40380Y-37027D01*
X40418Y-37046D01*
X40457Y-37055D01*
X40497Y-37053D01*
X40536Y-37041D01*
X40570Y-37020D01*
X40599Y-36989D01*
X40618Y-36951D01*
X40627Y-36910D01*
X40625Y-36869D01*
X40613Y-36830D01*
X40592Y-36795D01*
X40561Y-36766D01*
X40528Y-36749D01*
X40494Y-36740D01*
X40459Y-36739D01*
X40425Y-36746D01*
X40199Y-36586D01*
X40835Y-35676D01*
X40675Y-35562D01*
X40675Y-35562D01*
G37*
G36*
X26623Y-43107D02*
X26577Y-43105D01*
X26532Y-43101D01*
X26488Y-43095D01*
X26445Y-43085D01*
X26403Y-43074D01*
X26361Y-43060D01*
X26321Y-43043D01*
X26282Y-43025D01*
X26245Y-43004D01*
X26208Y-42982D01*
X26173Y-42957D01*
X26140Y-42930D01*
X26108Y-42902D01*
X26078Y-42872D01*
X26050Y-42840D01*
X26023Y-42806D01*
X25998Y-42772D01*
X25976Y-42735D01*
X25955Y-42698D01*
X25936Y-42659D01*
X25920Y-42618D01*
X25906Y-42577D01*
X25894Y-42535D01*
X25885Y-42491D01*
X25879Y-42447D01*
X25874Y-42402D01*
X25873Y-42357D01*
X25874Y-42316D01*
X25877Y-42276D01*
X25883Y-42236D01*
X25890Y-42197D01*
X25900Y-42159D01*
X25911Y-42121D01*
X25924Y-42084D01*
X25939Y-42049D01*
X25956Y-42014D01*
X25974Y-41980D01*
X25994Y-41948D01*
X26016Y-41916D01*
X26039Y-41886D01*
X26064Y-41857D01*
X26039Y-41828D01*
X26016Y-41797D01*
X25994Y-41766D01*
X25974Y-41733D01*
X25955Y-41699D01*
X25939Y-41665D01*
X25924Y-41629D01*
X25911Y-41593D01*
X25899Y-41555D01*
X25890Y-41517D01*
X25883Y-41478D01*
X25877Y-41438D01*
X25874Y-41398D01*
X25873Y-41357D01*
X25874Y-41316D01*
X25877Y-41276D01*
X25883Y-41236D01*
X25890Y-41197D01*
X25900Y-41159D01*
X25911Y-41121D01*
X25924Y-41084D01*
X25939Y-41049D01*
X25956Y-41014D01*
X25974Y-40980D01*
X25994Y-40948D01*
X26016Y-40916D01*
X26039Y-40886D01*
X26064Y-40857D01*
X26039Y-40828D01*
X26016Y-40797D01*
X25994Y-40766D01*
X25974Y-40733D01*
X25955Y-40699D01*
X25939Y-40665D01*
X25924Y-40629D01*
X25911Y-40593D01*
X25899Y-40555D01*
X25890Y-40517D01*
X25883Y-40478D01*
X25877Y-40438D01*
X25874Y-40398D01*
X25873Y-40357D01*
X25874Y-40311D01*
X25879Y-40266D01*
X25885Y-40222D01*
X25894Y-40179D01*
X25906Y-40136D01*
X25920Y-40095D01*
X25936Y-40055D01*
X25955Y-40016D01*
X25976Y-39978D01*
X25998Y-39942D01*
X26023Y-39907D01*
X26050Y-39873D01*
X26078Y-39842D01*
X26108Y-39811D01*
X26140Y-39783D01*
X26173Y-39756D01*
X26208Y-39732D01*
X26245Y-39709D01*
X26282Y-39688D01*
X26321Y-39670D01*
X26361Y-39654D01*
X26403Y-39640D01*
X26445Y-39628D01*
X26488Y-39619D01*
X26532Y-39612D01*
X26577Y-39608D01*
X26623Y-39607D01*
X26664Y-39608D01*
X26704Y-39611D01*
X26744Y-39616D01*
X26783Y-39624D01*
X26821Y-39633D01*
X26859Y-39644D01*
X26895Y-39657D01*
X26931Y-39672D01*
X26966Y-39689D01*
X27000Y-39708D01*
X27032Y-39728D01*
X27064Y-39750D01*
X27094Y-39773D01*
X27123Y-39798D01*
X27152Y-39773D01*
X27183Y-39750D01*
X27214Y-39728D01*
X27247Y-39708D01*
X27280Y-39689D01*
X27315Y-39672D01*
X27351Y-39657D01*
X27387Y-39644D01*
X27425Y-39633D01*
X27463Y-39624D01*
X27502Y-39616D01*
X27542Y-39611D01*
X27582Y-39608D01*
X27623Y-39607D01*
X27669Y-39608D01*
X27714Y-39612D01*
X27758Y-39619D01*
X27801Y-39628D01*
X27844Y-39640D01*
X27885Y-39654D01*
X27925Y-39670D01*
X27964Y-39688D01*
X28002Y-39709D01*
X28038Y-39732D01*
X28073Y-39756D01*
X28106Y-39783D01*
X28138Y-39811D01*
X28168Y-39842D01*
X28197Y-39873D01*
X28223Y-39907D01*
X28248Y-39942D01*
X28271Y-39978D01*
X28291Y-40016D01*
X28310Y-40055D01*
X28326Y-40095D01*
X28340Y-40136D01*
X28352Y-40179D01*
X28361Y-40222D01*
X28368Y-40266D01*
X28372Y-40311D01*
X28373Y-40357D01*
X28372Y-40398D01*
X28369Y-40438D01*
X28364Y-40478D01*
X28356Y-40517D01*
X28347Y-40555D01*
X28336Y-40593D01*
X28322Y-40629D01*
X28308Y-40665D01*
X28291Y-40699D01*
X28272Y-40733D01*
X28252Y-40766D01*
X28230Y-40797D01*
X28207Y-40828D01*
X28182Y-40857D01*
X28207Y-40886D01*
X28230Y-40916D01*
X28252Y-40948D01*
X28272Y-40980D01*
X28290Y-41014D01*
X28307Y-41049D01*
X28322Y-41084D01*
X28335Y-41121D01*
X28347Y-41159D01*
X28356Y-41197D01*
X28363Y-41236D01*
X28369Y-41276D01*
X28372Y-41316D01*
X28373Y-41357D01*
X28372Y-41398D01*
X28369Y-41438D01*
X28364Y-41478D01*
X28356Y-41517D01*
X28347Y-41555D01*
X28336Y-41593D01*
X28322Y-41629D01*
X28308Y-41665D01*
X28291Y-41699D01*
X28272Y-41733D01*
X28252Y-41766D01*
X28230Y-41797D01*
X28207Y-41828D01*
X28182Y-41857D01*
X28207Y-41886D01*
X28230Y-41916D01*
X28252Y-41948D01*
X28272Y-41980D01*
X28290Y-42014D01*
X28307Y-42049D01*
X28322Y-42084D01*
X28335Y-42121D01*
X28347Y-42159D01*
X28356Y-42197D01*
X28363Y-42236D01*
X28369Y-42276D01*
X28372Y-42316D01*
X28373Y-42357D01*
X28372Y-42402D01*
X28368Y-42447D01*
X28361Y-42491D01*
X28352Y-42535D01*
X28340Y-42577D01*
X28326Y-42618D01*
X28310Y-42659D01*
X28291Y-42698D01*
X28271Y-42735D01*
X28248Y-42772D01*
X28223Y-42806D01*
X28197Y-42840D01*
X28168Y-42872D01*
X28138Y-42902D01*
X28106Y-42930D01*
X28073Y-42957D01*
X28038Y-42982D01*
X28002Y-43004D01*
X27964Y-43025D01*
X27925Y-43043D01*
X27885Y-43060D01*
X27844Y-43074D01*
X27801Y-43085D01*
X27758Y-43095D01*
X27714Y-43101D01*
X27669Y-43105D01*
X27623Y-43107D01*
X27582Y-43106D01*
X27542Y-43102D01*
X27502Y-43097D01*
X27463Y-43089D01*
X27425Y-43079D01*
X27387Y-43068D01*
X27351Y-43054D01*
X27315Y-43039D01*
X27280Y-43022D01*
X27247Y-43003D01*
X27214Y-42982D01*
X27183Y-42961D01*
X27152Y-42937D01*
X27123Y-42912D01*
X27094Y-42937D01*
X27064Y-42961D01*
X27032Y-42982D01*
X27000Y-43003D01*
X26966Y-43022D01*
X26931Y-43039D01*
X26895Y-43054D01*
X26859Y-43068D01*
X26821Y-43079D01*
X26783Y-43089D01*
X26744Y-43097D01*
X26704Y-43102D01*
X26664Y-43106D01*
X26623Y-43107D01*
X26623Y-43673D01*
X41616Y-43673D01*
X41619Y-43631D01*
X41624Y-43591D01*
X41630Y-43553D01*
X41637Y-43516D01*
X41639Y-43480D01*
X41643Y-43444D01*
X41651Y-43409D01*
X41669Y-43346D01*
X41684Y-43299D01*
X41695Y-43269D01*
X41702Y-43255D01*
X41703Y-43256D01*
X41706Y-43242D01*
X41710Y-43226D01*
X41712Y-43207D01*
X41715Y-43185D01*
X41716Y-43158D01*
X41716Y-43126D01*
X41715Y-43089D01*
X41712Y-43044D01*
X41706Y-42992D01*
X41699Y-42932D01*
X41688Y-42863D01*
X41675Y-42784D01*
X41668Y-42744D01*
X41660Y-42704D01*
X41652Y-42665D01*
X41643Y-42627D01*
X41634Y-42589D01*
X41624Y-42552D01*
X41615Y-42516D01*
X41605Y-42480D01*
X41594Y-42444D01*
X41584Y-42408D01*
X41573Y-42373D01*
X41563Y-42338D01*
X41552Y-42303D01*
X41541Y-42268D01*
X41530Y-42233D01*
X41519Y-42197D01*
X41509Y-42162D01*
X41476Y-42144D01*
X41446Y-42124D01*
X41417Y-42101D01*
X41390Y-42076D01*
X41365Y-42049D01*
X41342Y-42020D01*
X41321Y-41990D01*
X41304Y-41957D01*
X41290Y-41931D01*
X41279Y-41905D01*
X41269Y-41878D01*
X41265Y-41867D01*
X41265Y-41864D01*
X41257Y-41834D01*
X41248Y-41805D01*
X41135Y-41808D01*
X41022Y-41809D01*
X40909Y-41808D01*
X40796Y-41806D01*
X40684Y-41801D01*
X40573Y-41795D01*
X40461Y-41787D01*
X40351Y-41778D01*
X40240Y-41766D01*
X40130Y-41753D01*
X40020Y-41738D01*
X39911Y-41722D01*
X39802Y-41704D01*
X39694Y-41684D01*
X39586Y-41662D01*
X39479Y-41639D01*
X39373Y-41614D01*
X39266Y-41587D01*
X39161Y-41559D01*
X39056Y-41529D01*
X38951Y-41497D01*
X38847Y-41464D01*
X38744Y-41430D01*
X38642Y-41393D01*
X38540Y-41356D01*
X38438Y-41316D01*
X38338Y-41275D01*
X38238Y-41233D01*
X38139Y-41189D01*
X38040Y-41143D01*
X37942Y-41096D01*
X37845Y-41048D01*
X37823Y-41072D01*
X37800Y-41096D01*
X37786Y-41114D01*
X37758Y-41142D01*
X37728Y-41168D01*
X37695Y-41192D01*
X37661Y-41212D01*
X37624Y-41229D01*
X37587Y-41244D01*
X37548Y-41255D01*
X37509Y-41262D01*
X37469Y-41266D01*
X37429Y-41266D01*
X37405Y-41292D01*
X37380Y-41320D01*
X37355Y-41349D01*
X37330Y-41377D01*
X37307Y-41403D01*
X37286Y-41426D01*
X37257Y-41459D01*
X37231Y-41489D01*
X37206Y-41517D01*
X37183Y-41545D01*
X37161Y-41572D01*
X37141Y-41598D01*
X37120Y-41626D01*
X37099Y-41655D01*
X37077Y-41686D01*
X37053Y-41718D01*
X37029Y-41753D01*
X37008Y-41784D01*
X36987Y-41815D01*
X36967Y-41844D01*
X36949Y-41873D01*
X36931Y-41902D01*
X36915Y-41930D01*
X36882Y-41987D01*
X36857Y-42034D01*
X36840Y-42072D01*
X36828Y-42102D01*
X36820Y-42128D01*
X36815Y-42149D01*
X36811Y-42169D01*
X36809Y-42180D01*
X36806Y-42200D01*
X36802Y-42232D01*
X36796Y-42274D01*
X36786Y-42329D01*
X36778Y-42368D01*
X36765Y-42405D01*
X36759Y-42434D01*
X36752Y-42464D01*
X36743Y-42495D01*
X36732Y-42529D01*
X36719Y-42564D01*
X36704Y-42600D01*
X36687Y-42637D01*
X36667Y-42676D01*
X36643Y-42716D01*
X36616Y-42756D01*
X36590Y-42792D01*
X36562Y-42827D01*
X36532Y-42859D01*
X36502Y-42891D01*
X36470Y-42920D01*
X36438Y-42948D01*
X36404Y-42974D01*
X36369Y-42999D01*
X36334Y-43022D01*
X36297Y-43043D01*
X36260Y-43062D01*
X36222Y-43080D01*
X36183Y-43096D01*
X36144Y-43111D01*
X36104Y-43123D01*
X36064Y-43134D01*
X36023Y-43143D01*
X35982Y-43151D01*
X35941Y-43156D01*
X35900Y-43160D01*
X35858Y-43162D01*
X35816Y-43162D01*
X35774Y-43161D01*
X35732Y-43157D01*
X35691Y-43152D01*
X35649Y-43145D01*
X35608Y-43137D01*
X35567Y-43126D01*
X35526Y-43114D01*
X35504Y-43107D01*
X35476Y-43097D01*
X35442Y-43084D01*
X35403Y-43067D01*
X35359Y-43044D01*
X35309Y-43013D01*
X35284Y-42995D01*
X35283Y-42992D01*
X35243Y-42963D01*
X35206Y-42932D01*
X35170Y-42900D01*
X35137Y-42866D01*
X35105Y-42830D01*
X35075Y-42794D01*
X35048Y-42756D01*
X35022Y-42716D01*
X34998Y-42676D01*
X34976Y-42635D01*
X34957Y-42593D01*
X34939Y-42550D01*
X34924Y-42507D01*
X34910Y-42462D01*
X34899Y-42417D01*
X34890Y-42372D01*
X34883Y-42327D01*
X34878Y-42281D01*
X34875Y-42234D01*
X34875Y-42188D01*
X34877Y-42142D01*
X34880Y-42096D01*
X34887Y-42050D01*
X34895Y-42004D01*
X34906Y-41958D01*
X34919Y-41913D01*
X34934Y-41868D01*
X34952Y-41824D01*
X34972Y-41781D01*
X34995Y-41738D01*
X35020Y-41696D01*
X35047Y-41655D01*
X35073Y-41620D01*
X35099Y-41588D01*
X35126Y-41558D01*
X35153Y-41531D01*
X35181Y-41505D01*
X35208Y-41481D01*
X35236Y-41459D01*
X35263Y-41439D01*
X35290Y-41419D01*
X35319Y-41392D01*
X35350Y-41368D01*
X35384Y-41346D01*
X35431Y-41319D01*
X35470Y-41299D01*
X35499Y-41285D01*
X35519Y-41275D01*
X35529Y-41270D01*
X35545Y-41260D01*
X35561Y-41250D01*
X35578Y-41238D01*
X35597Y-41223D01*
X35617Y-41206D01*
X35640Y-41184D01*
X35665Y-41157D01*
X35694Y-41124D01*
X35726Y-41085D01*
X35762Y-41038D01*
X35803Y-40983D01*
X35849Y-40919D01*
X35873Y-40884D01*
X35897Y-40849D01*
X35919Y-40814D01*
X35941Y-40779D01*
X35962Y-40745D01*
X35983Y-40710D01*
X36002Y-40676D01*
X36022Y-40642D01*
X36041Y-40608D01*
X36059Y-40574D01*
X36078Y-40540D01*
X36096Y-40506D01*
X36114Y-40472D01*
X36132Y-40438D01*
X36150Y-40405D01*
X36168Y-40371D01*
X36157Y-40334D01*
X36148Y-40296D01*
X36143Y-40257D01*
X36141Y-40219D01*
X36142Y-40180D01*
X36147Y-40142D01*
X36154Y-40104D01*
X36165Y-40066D01*
X36179Y-40030D01*
X36196Y-39996D01*
X36206Y-39982D01*
X36206Y-39978D01*
X36220Y-39950D01*
X36231Y-39933D01*
X36238Y-39923D01*
X36159Y-39848D01*
X36081Y-39772D01*
X36004Y-39695D01*
X35929Y-39617D01*
X35855Y-39537D01*
X35782Y-39457D01*
X35710Y-39375D01*
X35639Y-39292D01*
X35570Y-39208D01*
X35502Y-39123D01*
X35435Y-39037D01*
X35370Y-38949D01*
X35306Y-38861D01*
X35243Y-38771D01*
X35181Y-38680D01*
X35121Y-38589D01*
X35063Y-38496D01*
X35005Y-38402D01*
X34950Y-38307D01*
X34895Y-38211D01*
X34842Y-38114D01*
X34791Y-38016D01*
X34740Y-37917D01*
X34692Y-37817D01*
X34645Y-37716D01*
X34599Y-37614D01*
X34555Y-37511D01*
X34513Y-37407D01*
X34472Y-37302D01*
X34433Y-37196D01*
X34395Y-37089D01*
X34359Y-36982D01*
X34330Y-36983D01*
X34300Y-36985D01*
X34274Y-36986D01*
X34255Y-36985D01*
X34215Y-36983D01*
X34175Y-36978D01*
X34136Y-36969D01*
X34097Y-36957D01*
X34060Y-36942D01*
X34024Y-36923D01*
X33990Y-36902D01*
X33958Y-36877D01*
X33929Y-36850D01*
X33892Y-36851D01*
X33855Y-36853D01*
X33818Y-36854D01*
X33782Y-36856D01*
X33745Y-36857D01*
X33708Y-36859D01*
X33671Y-36861D01*
X33634Y-36863D01*
X33597Y-36865D01*
X33560Y-36868D01*
X33523Y-36871D01*
X33485Y-36875D01*
X33447Y-36879D01*
X33408Y-36884D01*
X33369Y-36889D01*
X33330Y-36895D01*
X33290Y-36902D01*
X33213Y-36916D01*
X33147Y-36929D01*
X33090Y-36942D01*
X33042Y-36954D01*
X33002Y-36966D01*
X32968Y-36977D01*
X32940Y-36988D01*
X32916Y-37000D01*
X32895Y-37011D01*
X32876Y-37022D01*
X32859Y-37033D01*
X32842Y-37044D01*
X32823Y-37057D01*
X32802Y-37073D01*
X32777Y-37093D01*
X32746Y-37115D01*
X32710Y-37141D01*
X32696Y-37148D01*
X32672Y-37162D01*
X32658Y-37169D01*
X32634Y-37187D01*
X32605Y-37203D01*
X32574Y-37220D01*
X32541Y-37237D01*
X32505Y-37253D01*
X32466Y-37269D01*
X32425Y-37284D01*
X32387Y-37296D01*
X32351Y-37305D01*
X32318Y-37312D01*
X32286Y-37318D01*
X32241Y-37325D01*
X32195Y-37330D01*
X32150Y-37333D01*
X32105Y-37333D01*
X32060Y-37331D01*
X32016Y-37327D01*
X31972Y-37322D01*
X31929Y-37314D01*
X31886Y-37304D01*
X31844Y-37293D01*
X31803Y-37279D01*
X31762Y-37264D01*
X31722Y-37247D01*
X31683Y-37228D01*
X31645Y-37208D01*
X31608Y-37185D01*
X31572Y-37161D01*
X31537Y-37136D01*
X31504Y-37109D01*
X31471Y-37081D01*
X31440Y-37051D01*
X31410Y-37019D01*
X31381Y-36986D01*
X31354Y-36952D01*
X31329Y-36917D01*
X31304Y-36880D01*
X31282Y-36842D01*
X31261Y-36803D01*
X31242Y-36762D01*
X31225Y-36721D01*
X31210Y-36678D01*
X31196Y-36634D01*
X31182Y-36577D01*
X31176Y-36546D01*
X31175Y-36541D01*
X31179Y-36541D01*
X31171Y-36492D01*
X31167Y-36444D01*
X31165Y-36396D01*
X31165Y-36349D01*
X31167Y-36302D01*
X31172Y-36255D01*
X31179Y-36208D01*
X31188Y-36163D01*
X31200Y-36118D01*
X31213Y-36073D01*
X31229Y-36030D01*
X31247Y-35987D01*
X31266Y-35945D01*
X31288Y-35905D01*
X31311Y-35865D01*
X31337Y-35826D01*
X31364Y-35789D01*
X31393Y-35753D01*
X31423Y-35719D01*
X31455Y-35686D01*
X31489Y-35654D01*
X31524Y-35624D01*
X31561Y-35596D01*
X31600Y-35570D01*
X31639Y-35545D01*
X31680Y-35522D01*
X31723Y-35501D01*
X31766Y-35483D01*
X31811Y-35466D01*
X31857Y-35452D01*
X31905Y-35439D01*
X31953Y-35430D01*
X32000Y-35423D01*
X32045Y-35418D01*
X32088Y-35416D01*
X32129Y-35416D01*
X32168Y-35418D01*
X32206Y-35421D01*
X32243Y-35425D01*
X32277Y-35431D01*
X32311Y-35437D01*
X32321Y-35437D01*
X32351Y-35439D01*
X32382Y-35444D01*
X32411Y-35450D01*
X32475Y-35469D01*
X32521Y-35485D01*
X32551Y-35497D01*
X32565Y-35505D01*
X32564Y-35506D01*
X32579Y-35509D01*
X32596Y-35513D01*
X32616Y-35516D01*
X32639Y-35518D01*
X32666Y-35519D01*
X32698Y-35519D01*
X32736Y-35518D01*
X32780Y-35515D01*
X32832Y-35509D01*
X32892Y-35502D01*
X32961Y-35491D01*
X33040Y-35478D01*
X33082Y-35470D01*
X33124Y-35462D01*
X33165Y-35453D01*
X33205Y-35444D01*
X33244Y-35435D01*
X33284Y-35425D01*
X33322Y-35414D01*
X33360Y-35404D01*
X33398Y-35393D01*
X33436Y-35382D01*
X33473Y-35371D01*
X33510Y-35360D01*
X33547Y-35349D01*
X33584Y-35337D01*
X33621Y-35326D01*
X33658Y-35315D01*
X33676Y-35281D01*
X33696Y-35250D01*
X33720Y-35220D01*
X33746Y-35192D01*
X33773Y-35166D01*
X33803Y-35142D01*
X33835Y-35121D01*
X33868Y-35103D01*
X33903Y-35088D01*
X33939Y-35075D01*
X33963Y-35068D01*
X33943Y-35072D01*
X33986Y-35059D01*
X34011Y-35051D01*
X34019Y-35048D01*
X34016Y-34934D01*
X34015Y-34821D01*
X34016Y-34709D01*
X34019Y-34596D01*
X34023Y-34484D01*
X34029Y-34373D01*
X34037Y-34261D01*
X34047Y-34150D01*
X34058Y-34040D01*
X34072Y-33930D01*
X34087Y-33820D01*
X34103Y-33711D01*
X34122Y-33602D01*
X34142Y-33494D01*
X34164Y-33386D01*
X34187Y-33279D01*
X34212Y-33172D01*
X34239Y-33066D01*
X34267Y-32960D01*
X34297Y-32855D01*
X34329Y-32751D01*
X34362Y-32647D01*
X34397Y-32544D01*
X34433Y-32441D01*
X34471Y-32339D01*
X34511Y-32238D01*
X34552Y-32137D01*
X34594Y-32037D01*
X34638Y-31938D01*
X34684Y-31840D01*
X34731Y-31742D01*
X34779Y-31645D01*
X34755Y-31624D01*
X34731Y-31603D01*
X34727Y-31600D01*
X34717Y-31589D01*
X34697Y-31570D01*
X34679Y-31549D01*
X34661Y-31527D01*
X34639Y-31496D01*
X34620Y-31464D01*
X34603Y-31430D01*
X34589Y-31394D01*
X34578Y-31358D01*
X34571Y-31321D01*
X34566Y-31283D01*
X34564Y-31246D01*
X34537Y-31221D01*
X34510Y-31195D01*
X34483Y-31170D01*
X34456Y-31145D01*
X34429Y-31120D01*
X34402Y-31095D01*
X34375Y-31071D01*
X34347Y-31046D01*
X34319Y-31021D01*
X34291Y-30997D01*
X34263Y-30972D01*
X34233Y-30948D01*
X34204Y-30924D01*
X34173Y-30900D01*
X34142Y-30876D01*
X34111Y-30852D01*
X34078Y-30829D01*
X34013Y-30784D01*
X33956Y-30747D01*
X33907Y-30716D01*
X33863Y-30691D01*
X33825Y-30671D01*
X33791Y-30655D01*
X33762Y-30643D01*
X33737Y-30633D01*
X33714Y-30627D01*
X33693Y-30622D01*
X33673Y-30617D01*
X33654Y-30614D01*
X33635Y-30610D01*
X33604Y-30606D01*
X33559Y-30599D01*
X33498Y-30589D01*
X33491Y-30586D01*
X33454Y-30579D01*
X33418Y-30568D01*
X33388Y-30561D01*
X33357Y-30553D01*
X33324Y-30543D01*
X33290Y-30532D01*
X33255Y-30519D01*
X33220Y-30503D01*
X33183Y-30485D01*
X33145Y-30465D01*
X33107Y-30442D01*
X33068Y-30416D01*
X33030Y-30388D01*
X32995Y-30359D01*
X32961Y-30329D01*
X32929Y-30297D01*
X32899Y-30264D01*
X32871Y-30230D01*
X32844Y-30195D01*
X32819Y-30159D01*
X32796Y-30122D01*
X32775Y-30083D01*
X32756Y-30045D01*
X32738Y-30005D01*
X32722Y-29964D01*
X32709Y-29923D01*
X32697Y-29882D01*
X32687Y-29840D01*
X32678Y-29798D01*
X32672Y-29755D01*
X32667Y-29712D01*
X32665Y-29669D01*
X32664Y-29625D01*
X32666Y-29582D01*
X32669Y-29539D01*
X32674Y-29496D01*
X32681Y-29452D01*
X32690Y-29410D01*
X32701Y-29367D01*
X32714Y-29325D01*
X32729Y-29284D01*
X32746Y-29243D01*
X32765Y-29202D01*
X32786Y-29162D01*
X32817Y-29111D01*
X32836Y-29084D01*
X32838Y-29082D01*
X32863Y-29049D01*
X32888Y-29018D01*
X32914Y-28988D01*
X32942Y-28959D01*
X32971Y-28931D01*
X33001Y-28905D01*
X33031Y-28879D01*
X33063Y-28856D01*
X33095Y-28834D01*
X33128Y-28813D01*
X33162Y-28793D01*
X33197Y-28775D01*
X33232Y-28759D01*
X33268Y-28743D01*
X33304Y-28730D01*
X33341Y-28718D01*
X33378Y-28707D01*
X33415Y-28698D01*
X33453Y-28690D01*
X33490Y-28684D01*
X33528Y-28680D01*
X33565Y-28677D01*
X33604Y-28675D01*
X33642Y-28675D01*
X33681Y-28677D01*
X33719Y-28680D01*
X33758Y-28685D01*
X33797Y-28691D01*
X33836Y-28699D01*
X33874Y-28708D01*
X33912Y-28720D01*
X33950Y-28733D01*
X33988Y-28747D01*
X34025Y-28764D01*
X34062Y-28782D01*
X34098Y-28801D01*
X34133Y-28823D01*
X34168Y-28846D01*
X34205Y-28873D01*
X34240Y-28901D01*
X34272Y-28930D01*
X34303Y-28958D01*
X34331Y-28987D01*
X34357Y-29016D01*
X34381Y-29045D01*
X34404Y-29074D01*
X34424Y-29103D01*
X34443Y-29131D01*
X34461Y-29159D01*
X34477Y-29187D01*
X34504Y-29234D01*
X34524Y-29273D01*
X34538Y-29301D01*
X34548Y-29321D01*
X34554Y-29332D01*
X34563Y-29347D01*
X34572Y-29362D01*
X34584Y-29379D01*
X34598Y-29397D01*
X34615Y-29417D01*
X34636Y-29439D01*
X34663Y-29464D01*
X34695Y-29493D01*
X34734Y-29525D01*
X34781Y-29561D01*
X34836Y-29602D01*
X34901Y-29648D01*
X34934Y-29671D01*
X34967Y-29693D01*
X35000Y-29715D01*
X35033Y-29735D01*
X35066Y-29755D01*
X35099Y-29775D01*
X35131Y-29793D01*
X35164Y-29812D01*
X35196Y-29830D01*
X35229Y-29847D01*
X35261Y-29865D01*
X35294Y-29882D01*
X35326Y-29899D01*
X35359Y-29916D01*
X35391Y-29933D01*
X35424Y-29950D01*
X35456Y-29968D01*
X35493Y-29956D01*
X35531Y-29948D01*
X35570Y-29943D01*
X35609Y-29942D01*
X35647Y-29943D01*
X35686Y-29948D01*
X35724Y-29956D01*
X35761Y-29967D01*
X35797Y-29982D01*
X35831Y-29999D01*
X35849Y-30009D01*
X35852Y-30009D01*
X35879Y-30025D01*
X35904Y-30041D01*
X35982Y-29958D01*
X36062Y-29877D01*
X36143Y-29797D01*
X36225Y-29718D01*
X36308Y-29641D01*
X36393Y-29565D01*
X36478Y-29490D01*
X36566Y-29416D01*
X36654Y-29344D01*
X36744Y-29274D01*
X36834Y-29204D01*
X36926Y-29136D01*
X37020Y-29070D01*
X37114Y-29005D01*
X37210Y-28942D01*
X37307Y-28880D01*
X37405Y-28820D01*
X37504Y-28761D01*
X37604Y-28703D01*
X37705Y-28648D01*
X37808Y-28594D01*
X37911Y-28541D01*
X38016Y-28490D01*
X38122Y-28441D01*
X38228Y-28394D01*
X38336Y-28348D01*
X38445Y-28304D01*
X38555Y-28262D01*
X38666Y-28221D01*
X38778Y-28182D01*
X38891Y-28145D01*
X39005Y-28110D01*
X39005Y-28103D01*
X39001Y-28042D01*
X38997Y-27985D01*
X38994Y-27931D01*
X38991Y-27880D01*
X38989Y-27832D01*
X38986Y-27787D01*
X38984Y-27744D01*
X38982Y-27704D01*
X38980Y-27665D01*
X38979Y-27628D01*
X38977Y-27593D01*
X38975Y-27559D01*
X38973Y-27526D01*
X38971Y-27494D01*
X38969Y-27463D01*
X38967Y-27431D01*
X38964Y-27400D01*
X38961Y-27369D01*
X38958Y-27338D01*
X38954Y-27306D01*
X38950Y-27273D01*
X38946Y-27239D01*
X38940Y-27204D01*
X38935Y-27168D01*
X38929Y-27130D01*
X38922Y-27089D01*
X38908Y-27012D01*
X38894Y-26946D01*
X38881Y-26889D01*
X38869Y-26841D01*
X38857Y-26800D01*
X38845Y-26766D01*
X38834Y-26737D01*
X38823Y-26713D01*
X38812Y-26693D01*
X38801Y-26674D01*
X38790Y-26658D01*
X38779Y-26641D01*
X38767Y-26626D01*
X38750Y-26605D01*
X38729Y-26579D01*
X38705Y-26547D01*
X38679Y-26509D01*
X38668Y-26492D01*
X38650Y-26464D01*
X38632Y-26434D01*
X38614Y-26402D01*
X38597Y-26368D01*
X38580Y-26333D01*
X38565Y-26296D01*
X38550Y-26258D01*
X38537Y-26217D01*
X38525Y-26175D01*
X38514Y-26131D01*
X38505Y-26086D01*
X38500Y-26053D01*
X38498Y-26021D01*
X38496Y-25989D01*
X38495Y-25957D01*
X25265Y-25957D01*
X25265Y-43673D01*
X26623Y-43673D01*
X26623Y-43107D01*
X26623Y-43107D01*
G37*
G36*
X40422Y-25957D02*
X40420Y-25999D01*
X40417Y-26040D01*
X40413Y-26078D01*
X40408Y-26115D01*
X40402Y-26150D01*
X40395Y-26184D01*
X40387Y-26214D01*
X40380Y-26228D01*
X40373Y-26253D01*
X40364Y-26283D01*
X40354Y-26316D01*
X40343Y-26353D01*
X40331Y-26391D01*
X40328Y-26408D01*
X40324Y-26427D01*
X40321Y-26447D01*
X40319Y-26470D01*
X40318Y-26497D01*
X40318Y-26529D01*
X40319Y-26565D01*
X40322Y-26607D01*
X40327Y-26655D01*
X40334Y-26711D01*
X40344Y-26774D01*
X40356Y-26846D01*
X40363Y-26888D01*
X40372Y-26929D01*
X40380Y-26970D01*
X40389Y-27009D01*
X40399Y-27049D01*
X40409Y-27087D01*
X40419Y-27125D01*
X40430Y-27163D01*
X40441Y-27200D01*
X40452Y-27237D01*
X40463Y-27274D01*
X40474Y-27311D01*
X40485Y-27348D01*
X40496Y-27384D01*
X40508Y-27421D01*
X40519Y-27457D01*
X40553Y-27476D01*
X40586Y-27497D01*
X40617Y-27520D01*
X40646Y-27547D01*
X40673Y-27575D01*
X40697Y-27606D01*
X40718Y-27639D01*
X40737Y-27673D01*
X40753Y-27709D01*
X40765Y-27746D01*
X40776Y-27782D01*
X40786Y-27818D01*
X40899Y-27816D01*
X41012Y-27815D01*
X41125Y-27815D01*
X41237Y-27818D01*
X41349Y-27822D01*
X41461Y-27829D01*
X41572Y-27837D01*
X41683Y-27846D01*
X41793Y-27858D01*
X41903Y-27871D01*
X42013Y-27886D01*
X42122Y-27902D01*
X42230Y-27920D01*
X42338Y-27940D01*
X42446Y-27962D01*
X42553Y-27985D01*
X42660Y-28010D01*
X42766Y-28037D01*
X42871Y-28065D01*
X42976Y-28095D01*
X43081Y-28126D01*
X43184Y-28159D01*
X43288Y-28194D01*
X43390Y-28230D01*
X43492Y-28268D01*
X43593Y-28307D01*
X43694Y-28348D01*
X43794Y-28391D01*
X43893Y-28435D01*
X43991Y-28480D01*
X44089Y-28527D01*
X44186Y-28575D01*
X44205Y-28554D01*
X44225Y-28534D01*
X44245Y-28513D01*
X44271Y-28486D01*
X44300Y-28462D01*
X44330Y-28440D01*
X44363Y-28421D01*
X44396Y-28404D01*
X44431Y-28390D01*
X44467Y-28379D01*
X44503Y-28371D01*
X44541Y-28366D01*
X44578Y-28364D01*
X44603Y-28336D01*
X44628Y-28309D01*
X44653Y-28281D01*
X44678Y-28254D01*
X44703Y-28227D01*
X44727Y-28199D01*
X44752Y-28172D01*
X44777Y-28144D01*
X44802Y-28116D01*
X44826Y-28087D01*
X44851Y-28058D01*
X44875Y-28028D01*
X44899Y-27998D01*
X44923Y-27967D01*
X44947Y-27936D01*
X44971Y-27904D01*
X44995Y-27871D01*
X45039Y-27806D01*
X45076Y-27751D01*
X45108Y-27702D01*
X45133Y-27660D01*
X45153Y-27624D01*
X45169Y-27593D01*
X45181Y-27566D01*
X45191Y-27543D01*
X45197Y-27522D01*
X45202Y-27503D01*
X45206Y-27485D01*
X45206Y-27478D01*
X45210Y-27453D01*
X45216Y-27422D01*
X45222Y-27385D01*
X45229Y-27345D01*
X45238Y-27301D01*
X45241Y-27287D01*
X45246Y-27261D01*
X45252Y-27233D01*
X45259Y-27202D01*
X45268Y-27170D01*
X45278Y-27136D01*
X45290Y-27101D01*
X45303Y-27065D01*
X45319Y-27027D01*
X45337Y-26989D01*
X45358Y-26950D01*
X45381Y-26910D01*
X45408Y-26871D01*
X45435Y-26833D01*
X45465Y-26797D01*
X45495Y-26763D01*
X45527Y-26731D01*
X45560Y-26701D01*
X45594Y-26672D01*
X45630Y-26645D01*
X45666Y-26620D01*
X45704Y-26597D01*
X45742Y-26575D01*
X45781Y-26556D01*
X45821Y-26538D01*
X45861Y-26522D01*
X45903Y-26508D01*
X45944Y-26496D01*
X45987Y-26485D01*
X46029Y-26477D01*
X46072Y-26470D01*
X46116Y-26466D01*
X46159Y-26463D01*
X46203Y-26462D01*
X46247Y-26463D01*
X46290Y-26467D01*
X46334Y-26472D01*
X46377Y-26479D01*
X46421Y-26488D01*
X46464Y-26499D01*
X46506Y-26513D01*
X46548Y-26528D01*
X46590Y-26545D01*
X46631Y-26564D01*
X46672Y-26586D01*
X46691Y-26598D01*
X46710Y-26610D01*
X46715Y-26614D01*
X46755Y-26641D01*
X46762Y-26645D01*
X46776Y-26655D01*
X46772Y-26659D01*
X46810Y-26688D01*
X46846Y-26720D01*
X46880Y-26752D01*
X46912Y-26786D01*
X46942Y-26822D01*
X46971Y-26858D01*
X46998Y-26896D01*
X47022Y-26935D01*
X47045Y-26975D01*
X47066Y-27016D01*
X47085Y-27058D01*
X47101Y-27100D01*
X47116Y-27143D01*
X47129Y-27187D01*
X47140Y-27231D01*
X47148Y-27276D01*
X47155Y-27321D01*
X47159Y-27366D01*
X47162Y-27411D01*
X47162Y-27457D01*
X47160Y-27502D01*
X47156Y-27548D01*
X47150Y-27593D01*
X47141Y-27638D01*
X47131Y-27683D01*
X47118Y-27728D01*
X47102Y-27772D01*
X47085Y-27815D01*
X47065Y-27858D01*
X47043Y-27900D01*
X47018Y-27941D01*
X46991Y-27982D01*
X46988Y-27985D01*
X46959Y-28023D01*
X46931Y-28057D01*
X46903Y-28088D01*
X46874Y-28117D01*
X46846Y-28143D01*
X46819Y-28166D01*
X46792Y-28188D01*
X46766Y-28209D01*
X46740Y-28228D01*
X46716Y-28246D01*
X46693Y-28263D01*
X46670Y-28277D01*
X46647Y-28291D01*
X46600Y-28317D01*
X46562Y-28338D01*
X46533Y-28354D01*
X46513Y-28364D01*
X46502Y-28371D01*
X46487Y-28379D01*
X46472Y-28389D01*
X46456Y-28400D01*
X46439Y-28414D01*
X46419Y-28431D01*
X46397Y-28453D01*
X46372Y-28479D01*
X46344Y-28512D01*
X46312Y-28551D01*
X46276Y-28598D01*
X46235Y-28653D01*
X46189Y-28718D01*
X46165Y-28753D01*
X46141Y-28788D01*
X46119Y-28823D01*
X46097Y-28858D01*
X46076Y-28893D01*
X46055Y-28927D01*
X46036Y-28962D01*
X46016Y-28996D01*
X45997Y-29030D01*
X45979Y-29064D01*
X45960Y-29099D01*
X45942Y-29133D01*
X45924Y-29167D01*
X45906Y-29201D01*
X45888Y-29235D01*
X45870Y-29270D01*
X45880Y-29306D01*
X45888Y-29344D01*
X45892Y-29381D01*
X45894Y-29419D01*
X45892Y-29457D01*
X45887Y-29495D01*
X45879Y-29532D01*
X45869Y-29568D01*
X45855Y-29604D01*
X45838Y-29638D01*
X45821Y-29673D01*
X45804Y-29707D01*
X45882Y-29782D01*
X45960Y-29858D01*
X46036Y-29935D01*
X46111Y-30013D01*
X46185Y-30093D01*
X46258Y-30173D01*
X46330Y-30255D01*
X46400Y-30338D01*
X46469Y-30422D01*
X46537Y-30507D01*
X46603Y-30594D01*
X46668Y-30681D01*
X46732Y-30770D01*
X46795Y-30860D01*
X46856Y-30950D01*
X46916Y-31042D01*
X46974Y-31135D01*
X47031Y-31229D01*
X47087Y-31324D01*
X47141Y-31420D01*
X47194Y-31517D01*
X47245Y-31615D01*
X47295Y-31714D01*
X47344Y-31814D01*
X47390Y-31915D01*
X47436Y-32017D01*
X47480Y-32120D01*
X47522Y-32224D01*
X47563Y-32328D01*
X47602Y-32434D01*
X47639Y-32541D01*
X47675Y-32648D01*
X47699Y-32647D01*
X47724Y-32645D01*
X47741Y-32641D01*
X47781Y-32641D01*
X47820Y-32643D01*
X47859Y-32649D01*
X47897Y-32659D01*
X47934Y-32671D01*
X47971Y-32686D01*
X48005Y-32705D01*
X48039Y-32726D01*
X48070Y-32750D01*
X48099Y-32777D01*
X48136Y-32775D01*
X48173Y-32774D01*
X48210Y-32772D01*
X48246Y-32770D01*
X48283Y-32769D01*
X48320Y-32767D01*
X48357Y-32765D01*
X48394Y-32763D01*
X48431Y-32761D01*
X48469Y-32758D01*
X48506Y-32755D01*
X48544Y-32751D01*
X48582Y-32747D01*
X48620Y-32742D01*
X48659Y-32737D01*
X48698Y-32731D01*
X48738Y-32725D01*
X48814Y-32711D01*
X48881Y-32697D01*
X48937Y-32685D01*
X48985Y-32672D01*
X49026Y-32660D01*
X49060Y-32649D01*
X49088Y-32637D01*
X49113Y-32626D01*
X49133Y-32615D01*
X49152Y-32604D01*
X49169Y-32593D01*
X49186Y-32582D01*
X49205Y-32568D01*
X49231Y-32549D01*
X49267Y-32522D01*
X49314Y-32489D01*
X49318Y-32489D01*
X49343Y-32471D01*
X49370Y-32454D01*
X49397Y-32440D01*
X49404Y-32437D01*
X49431Y-32421D01*
X49459Y-32406D01*
X49488Y-32391D01*
X49519Y-32376D01*
X49551Y-32363D01*
X49585Y-32349D01*
X49621Y-32337D01*
X49659Y-32326D01*
X49699Y-32316D01*
X49741Y-32308D01*
X49781Y-32302D01*
X49821Y-32298D01*
X49861Y-32295D01*
X49901Y-32294D01*
X49941Y-32294D01*
X49981Y-32297D01*
X50020Y-32300D01*
X50059Y-32306D01*
X50098Y-32313D01*
X50137Y-32321D01*
X50175Y-32331D01*
X50213Y-32343D01*
X50250Y-32356D01*
X50287Y-32371D01*
X50322Y-32387D01*
X50357Y-32404D01*
X50392Y-32423D01*
X50425Y-32443D01*
X50458Y-32465D01*
X50490Y-32489D01*
X50521Y-32513D01*
X50550Y-32538D01*
X50579Y-32565D01*
X50606Y-32593D01*
X50632Y-32622D01*
X50657Y-32651D01*
X50681Y-32682D01*
X50703Y-32714D01*
X50724Y-32747D01*
X50744Y-32780D01*
X50763Y-32815D01*
X50780Y-32850D01*
X50796Y-32886D01*
X50810Y-32923D01*
X50823Y-32961D01*
X50835Y-32999D01*
X50845Y-33040D01*
X50850Y-33071D01*
X50852Y-33093D01*
X50859Y-33141D01*
X50864Y-33189D01*
X50866Y-33237D01*
X50866Y-33285D01*
X50863Y-33332D01*
X50858Y-33379D01*
X50851Y-33425D01*
X50842Y-33471D01*
X50830Y-33516D01*
X50817Y-33561D01*
X50801Y-33605D01*
X50783Y-33648D01*
X50763Y-33690D01*
X50741Y-33731D01*
X50718Y-33770D01*
X50692Y-33809D01*
X50665Y-33846D01*
X50636Y-33883D01*
X50605Y-33917D01*
X50573Y-33951D01*
X50539Y-33982D01*
X50504Y-34012D01*
X50467Y-34041D01*
X50428Y-34067D01*
X50389Y-34092D01*
X50347Y-34115D01*
X50305Y-34136D01*
X50261Y-34155D01*
X50216Y-34171D01*
X50170Y-34186D01*
X50123Y-34198D01*
X50075Y-34207D01*
X50031Y-34214D01*
X49989Y-34219D01*
X49947Y-34222D01*
X49906Y-34224D01*
X49866Y-34225D01*
X49827Y-34223D01*
X49789Y-34221D01*
X49752Y-34217D01*
X49716Y-34212D01*
X49680Y-34206D01*
X49646Y-34198D01*
X49613Y-34190D01*
X49613Y-34187D01*
X49609Y-34187D01*
X49588Y-34180D01*
X49568Y-34173D01*
X49523Y-34159D01*
X49484Y-34146D01*
X49456Y-34138D01*
X49441Y-34134D01*
X49423Y-34130D01*
X49403Y-34127D01*
X49381Y-34125D01*
X49354Y-34123D01*
X49322Y-34123D01*
X49285Y-34124D01*
X49241Y-34127D01*
X49190Y-34132D01*
X49131Y-34139D01*
X49063Y-34149D01*
X48984Y-34162D01*
X48942Y-34170D01*
X48901Y-34178D01*
X48860Y-34187D01*
X48820Y-34196D01*
X48781Y-34206D01*
X48742Y-34215D01*
X48704Y-34226D01*
X48666Y-34236D01*
X48628Y-34247D01*
X48591Y-34258D01*
X48554Y-34269D01*
X48517Y-34280D01*
X48480Y-34292D01*
X48443Y-34303D01*
X48407Y-34314D01*
X48370Y-34325D01*
X48352Y-34357D01*
X48333Y-34388D01*
X48311Y-34416D01*
X48287Y-34443D01*
X48261Y-34468D01*
X48233Y-34491D01*
X48203Y-34512D01*
X48172Y-34530D01*
X48146Y-34542D01*
X48119Y-34553D01*
X48092Y-34562D01*
X48085Y-34565D01*
X48071Y-34572D01*
X48064Y-34575D01*
X48037Y-34583D01*
X48012Y-34589D01*
X48015Y-34703D01*
X48016Y-34815D01*
X48015Y-34928D01*
X48012Y-35040D01*
X48008Y-35152D01*
X48001Y-35264D01*
X47993Y-35375D01*
X47984Y-35486D01*
X47972Y-35596D01*
X47959Y-35706D01*
X47944Y-35816D01*
X47927Y-35925D01*
X47909Y-36033D01*
X47889Y-36142D01*
X47867Y-36249D01*
X47843Y-36356D01*
X47818Y-36463D01*
X47792Y-36569D01*
X47763Y-36675D01*
X47733Y-36780D01*
X47702Y-36884D01*
X47669Y-36988D01*
X47634Y-37091D01*
X47598Y-37193D01*
X47560Y-37295D01*
X47520Y-37396D01*
X47479Y-37497D01*
X47437Y-37597D01*
X47393Y-37696D01*
X47347Y-37794D01*
X47300Y-37892D01*
X47252Y-37989D01*
X47274Y-38008D01*
X47297Y-38027D01*
X47321Y-38051D01*
X47347Y-38078D01*
X47371Y-38106D01*
X47392Y-38136D01*
X47411Y-38168D01*
X47427Y-38201D01*
X47441Y-38236D01*
X47452Y-38271D01*
X47460Y-38307D01*
X47465Y-38344D01*
X47467Y-38381D01*
X47494Y-38406D01*
X47521Y-38431D01*
X47548Y-38456D01*
X47575Y-38481D01*
X47602Y-38506D01*
X47629Y-38531D01*
X47656Y-38556D01*
X47683Y-38581D01*
X47711Y-38605D01*
X47740Y-38630D01*
X47768Y-38655D01*
X47797Y-38679D01*
X47827Y-38703D01*
X47858Y-38727D01*
X47889Y-38751D01*
X47920Y-38774D01*
X47953Y-38798D01*
X48017Y-38842D01*
X48073Y-38879D01*
X48121Y-38910D01*
X48164Y-38935D01*
X48200Y-38955D01*
X48232Y-38971D01*
X48260Y-38983D01*
X48285Y-38992D01*
X48308Y-38999D01*
X48329Y-39004D01*
X48349Y-39009D01*
X48370Y-39013D01*
X48388Y-39016D01*
X48412Y-39019D01*
X48443Y-39023D01*
X48482Y-39029D01*
X48529Y-39037D01*
X48559Y-39043D01*
X48588Y-39052D01*
X48616Y-39062D01*
X48630Y-39068D01*
X48660Y-39077D01*
X48691Y-39086D01*
X48723Y-39096D01*
X48755Y-39107D01*
X48788Y-39120D01*
X48822Y-39135D01*
X48856Y-39151D01*
X48890Y-39170D01*
X48925Y-39191D01*
X48960Y-39214D01*
X48997Y-39242D01*
X49033Y-39271D01*
X49067Y-39302D01*
X49099Y-39333D01*
X49130Y-39366D01*
X49158Y-39401D01*
X49185Y-39436D01*
X49210Y-39473D01*
X49234Y-39510D01*
X49255Y-39548D01*
X49275Y-39587D01*
X49293Y-39627D01*
X49309Y-39668D01*
X49323Y-39709D01*
X49335Y-39751D01*
X49345Y-39793D01*
X49354Y-39836D01*
X49360Y-39879D01*
X49365Y-39922D01*
X49368Y-39966D01*
X49368Y-40009D01*
X49367Y-40053D01*
X49364Y-40097D01*
X49359Y-40140D01*
X49352Y-40184D01*
X49342Y-40227D01*
X49331Y-40270D01*
X49318Y-40313D01*
X49303Y-40355D01*
X49285Y-40397D01*
X49266Y-40438D01*
X49245Y-40478D01*
X49222Y-40517D01*
X49204Y-40543D01*
X49193Y-40558D01*
X49189Y-40565D01*
X49160Y-40604D01*
X49128Y-40641D01*
X49096Y-40677D01*
X49061Y-40710D01*
X49026Y-40741D01*
X48989Y-40771D01*
X48951Y-40798D01*
X48911Y-40824D01*
X48871Y-40847D01*
X48829Y-40869D01*
X48787Y-40888D01*
X48744Y-40906D01*
X48700Y-40921D01*
X48656Y-40934D01*
X48611Y-40945D01*
X48565Y-40954D01*
X48519Y-40961D01*
X48473Y-40966D01*
X48427Y-40968D01*
X48381Y-40968D01*
X48334Y-40966D01*
X48288Y-40962D01*
X48241Y-40956D01*
X48195Y-40947D01*
X48150Y-40936D01*
X48104Y-40923D01*
X48059Y-40907D01*
X48015Y-40889D01*
X47971Y-40869D01*
X47929Y-40847D01*
X47886Y-40822D01*
X47845Y-40794D01*
X47808Y-40766D01*
X47773Y-40738D01*
X47740Y-40709D01*
X47710Y-40680D01*
X47682Y-40651D01*
X47656Y-40621D01*
X47632Y-40592D01*
X47610Y-40563D01*
X47590Y-40534D01*
X47572Y-40507D01*
X47555Y-40480D01*
X47540Y-40454D01*
X47540Y-40450D01*
X47513Y-40403D01*
X47492Y-40365D01*
X47477Y-40336D01*
X47466Y-40316D01*
X47460Y-40305D01*
X47451Y-40290D01*
X47441Y-40275D01*
X47430Y-40259D01*
X47416Y-40242D01*
X47399Y-40222D01*
X47378Y-40200D01*
X47351Y-40175D01*
X47319Y-40147D01*
X47279Y-40115D01*
X47232Y-40079D01*
X47177Y-40038D01*
X47113Y-39992D01*
X47077Y-39968D01*
X47042Y-39944D01*
X47008Y-39922D01*
X46973Y-39900D01*
X46938Y-39879D01*
X46904Y-39859D01*
X46870Y-39839D01*
X46836Y-39819D01*
X46802Y-39800D01*
X46768Y-39782D01*
X46734Y-39763D01*
X46700Y-39745D01*
X46666Y-39727D01*
X46632Y-39709D01*
X46598Y-39691D01*
X46564Y-39673D01*
X46528Y-39684D01*
X46491Y-39692D01*
X46453Y-39697D01*
X46415Y-39698D01*
X46378Y-39697D01*
X46340Y-39693D01*
X46303Y-39686D01*
X46266Y-39675D01*
X46231Y-39662D01*
X46210Y-39654D01*
X46172Y-39634D01*
X46168Y-39631D01*
X46144Y-39617D01*
X46120Y-39603D01*
X46042Y-39685D01*
X45962Y-39766D01*
X45881Y-39846D01*
X45799Y-39924D01*
X45716Y-40001D01*
X45631Y-40077D01*
X45546Y-40151D01*
X45458Y-40224D01*
X45370Y-40296D01*
X45280Y-40366D01*
X45190Y-40434D01*
X45098Y-40502D01*
X45004Y-40567D01*
X44910Y-40632D01*
X44814Y-40695D01*
X44718Y-40756D01*
X44620Y-40816D01*
X44521Y-40874D01*
X44421Y-40931D01*
X44320Y-40986D01*
X44217Y-41040D01*
X44114Y-41092D01*
X44009Y-41142D01*
X43904Y-41191D01*
X43797Y-41238D01*
X43689Y-41283D01*
X43581Y-41327D01*
X43471Y-41369D01*
X43360Y-41409D01*
X43249Y-41448D01*
X43136Y-41485D01*
X43022Y-41520D01*
X43022Y-41527D01*
X43026Y-41588D01*
X43030Y-41645D01*
X43033Y-41699D01*
X43036Y-41749D01*
X43039Y-41797D01*
X43041Y-41842D01*
X43043Y-41885D01*
X43045Y-41925D01*
X43047Y-41964D01*
X43049Y-42000D01*
X43050Y-42036D01*
X43052Y-42070D01*
X43054Y-42102D01*
X43056Y-42135D01*
X43058Y-42166D01*
X43061Y-42197D01*
X43063Y-42228D01*
X43066Y-42259D01*
X43070Y-42291D01*
X43073Y-42323D01*
X43077Y-42356D01*
X43082Y-42390D01*
X43087Y-42425D01*
X43093Y-42462D01*
X43099Y-42500D01*
X43106Y-42541D01*
X43120Y-42619D01*
X43133Y-42686D01*
X43146Y-42743D01*
X43158Y-42791D01*
X43170Y-42832D01*
X43181Y-42866D01*
X43191Y-42894D01*
X43201Y-42918D01*
X43212Y-42937D01*
X43221Y-42955D01*
X43231Y-42970D01*
X43241Y-42985D01*
X43251Y-42999D01*
X43265Y-43018D01*
X43285Y-43043D01*
X43309Y-43076D01*
X43338Y-43117D01*
X43338Y-43121D01*
X43356Y-43146D01*
X43373Y-43173D01*
X43387Y-43200D01*
X43402Y-43225D01*
X43418Y-43252D01*
X43433Y-43280D01*
X43449Y-43311D01*
X43463Y-43343D01*
X43478Y-43377D01*
X43491Y-43414D01*
X43503Y-43454D01*
X43513Y-43496D01*
X43522Y-43541D01*
X43527Y-43574D01*
X43530Y-43607D01*
X43532Y-43640D01*
X43533Y-43673D01*
X56759Y-43673D01*
X56759Y-25957D01*
X40422Y-25957D01*
X40422Y-25957D01*
G37*
G54D12*
X24280Y-24972D02*
X57744Y-24972D01*
X57744Y-24972D02*
X57744Y-44658D01*
X57744Y-44658D02*
X24280Y-44658D01*
X24280Y-44658D02*
X24280Y-24972D01*
G54D13*
X26623Y-40354D03*
X26623Y-41354D03*
X26623Y-42354D03*
X27623Y-40354D03*
X27623Y-41354D03*
X27623Y-42354D03*
G54D14*
X39240Y-36039D03*
X41417Y-36429D03*
X40472Y-36897D03*
X39362Y-34984D03*
X41842Y-34933D03*
X40610Y-34075D03*
M02*
