G04 (created by PCBNEW-RS274X (2012-apr-16-27)-stable) date Thu 15 Aug 2013 10:18:15 PM CEST*
G01*
G70*
G90*
%MOIN*%
G04 Gerber Fmt 3.4, Leading zero omitted, Abs format*
%FSLAX34Y34*%
G04 APERTURE LIST*
%ADD10C,0.006000*%
%ADD11C,0.000100*%
%ADD12C,0.010000*%
%ADD13C,0.060000*%
%ADD14C,0.032000*%
G04 APERTURE END LIST*
G54D10*
G54D11*
G36*
X40613Y-33916D02*
X40577Y-33920D01*
X40544Y-33932D01*
X40515Y-33951D01*
X40491Y-33975D01*
X38731Y-33975D01*
X34686Y-39749D01*
X27328Y-39749D01*
X26637Y-40235D01*
X26623Y-40232D01*
X26584Y-40238D01*
X26549Y-40256D01*
X26522Y-40283D01*
X26504Y-40317D01*
X26498Y-40357D01*
X26504Y-40396D01*
X26522Y-40430D01*
X26549Y-40458D01*
X26584Y-40475D01*
X26623Y-40482D01*
X26660Y-40476D01*
X26693Y-40460D01*
X26719Y-40436D01*
X26738Y-40405D01*
X27390Y-39947D01*
X34790Y-39947D01*
X38831Y-34173D01*
X40491Y-34173D01*
X40515Y-34197D01*
X40544Y-34216D01*
X40577Y-34228D01*
X40613Y-34232D01*
X40655Y-34226D01*
X40693Y-34210D01*
X40725Y-34186D01*
X40750Y-34155D01*
X40767Y-34117D01*
X40772Y-34075D01*
X40767Y-34033D01*
X40750Y-33995D01*
X40725Y-33963D01*
X40693Y-33938D01*
X40655Y-33921D01*
X40613Y-33916D01*
X40613Y-33916D01*
X40613Y-33916D01*
G37*
G36*
X38939Y-34548D02*
X34946Y-40249D01*
X27686Y-40249D01*
X27656Y-40236D01*
X27623Y-40232D01*
X27584Y-40238D01*
X27549Y-40256D01*
X27522Y-40283D01*
X27504Y-40317D01*
X27498Y-40357D01*
X27504Y-40396D01*
X27522Y-40430D01*
X27549Y-40458D01*
X27584Y-40475D01*
X27623Y-40482D01*
X27654Y-40477D01*
X27682Y-40465D01*
X27706Y-40447D01*
X35050Y-40447D01*
X39040Y-34746D01*
X39738Y-34746D01*
X40147Y-35037D01*
X41724Y-35037D01*
X41748Y-35060D01*
X41777Y-35078D01*
X41810Y-35089D01*
X41845Y-35093D01*
X41887Y-35087D01*
X41924Y-35071D01*
X41956Y-35046D01*
X41980Y-35013D01*
X41996Y-34975D01*
X42002Y-34933D01*
X41996Y-34891D01*
X41980Y-34854D01*
X41956Y-34822D01*
X41924Y-34798D01*
X41887Y-34782D01*
X41845Y-34777D01*
X41809Y-34781D01*
X41775Y-34793D01*
X41745Y-34811D01*
X41720Y-34836D01*
X40206Y-34839D01*
X39790Y-34548D01*
X38939Y-34548D01*
X38939Y-34548D01*
X38939Y-34548D01*
G37*
G36*
X39363Y-34832D02*
X39321Y-34838D01*
X39284Y-34854D01*
X39252Y-34878D01*
X39228Y-34909D01*
X39212Y-34947D01*
X39206Y-34989D01*
X39208Y-35014D01*
X39213Y-35037D01*
X35206Y-40759D01*
X27304Y-40759D01*
X26627Y-41232D01*
X26623Y-41232D01*
X26584Y-41238D01*
X26549Y-41256D01*
X26522Y-41283D01*
X26504Y-41317D01*
X26498Y-41357D01*
X26504Y-41396D01*
X26522Y-41430D01*
X26549Y-41458D01*
X26584Y-41475D01*
X26623Y-41482D01*
X26663Y-41475D01*
X26697Y-41457D01*
X26724Y-41430D01*
X26741Y-41395D01*
X27370Y-40954D01*
X35307Y-40954D01*
X39373Y-35148D01*
X39412Y-35140D01*
X39447Y-35123D01*
X39477Y-35098D01*
X39499Y-35066D01*
X39514Y-35029D01*
X39519Y-34989D01*
X39513Y-34947D01*
X39498Y-34909D01*
X39473Y-34878D01*
X39442Y-34854D01*
X39404Y-34838D01*
X39363Y-34832D01*
X39363Y-34832D01*
X39363Y-34832D01*
G37*
G36*
X39238Y-35878D02*
X39196Y-35883D01*
X39159Y-35900D01*
X39127Y-35925D01*
X39103Y-35957D01*
X39087Y-35995D01*
X39081Y-36037D01*
X39083Y-36060D01*
X39088Y-36082D01*
X34762Y-42259D01*
X27699Y-42259D01*
X27677Y-42244D01*
X27651Y-42235D01*
X27623Y-42232D01*
X27584Y-42238D01*
X27549Y-42256D01*
X27522Y-42283D01*
X27504Y-42317D01*
X27498Y-42357D01*
X27504Y-42396D01*
X27522Y-42430D01*
X27549Y-42458D01*
X27584Y-42475D01*
X27623Y-42482D01*
X27662Y-42474D01*
X27696Y-42454D01*
X34870Y-42454D01*
X39255Y-36190D01*
X39293Y-36181D01*
X39327Y-36164D01*
X39356Y-36141D01*
X39378Y-36111D01*
X39392Y-36076D01*
X39397Y-36037D01*
X39392Y-35995D01*
X39375Y-35957D01*
X39350Y-35925D01*
X39318Y-35900D01*
X39280Y-35883D01*
X39238Y-35878D01*
X39238Y-35878D01*
X39238Y-35878D01*
G37*
G36*
X41415Y-36266D02*
X41378Y-36271D01*
X41344Y-36284D01*
X41314Y-36303D01*
X41290Y-36329D01*
X39543Y-36329D01*
X35036Y-42766D01*
X27036Y-42766D01*
X26748Y-42357D01*
X26748Y-42353D01*
X26741Y-42315D01*
X26723Y-42281D01*
X26696Y-42255D01*
X26662Y-42238D01*
X26623Y-42232D01*
X26584Y-42238D01*
X26549Y-42256D01*
X26522Y-42283D01*
X26504Y-42317D01*
X26498Y-42357D01*
X26505Y-42398D01*
X26525Y-42432D01*
X26555Y-42458D01*
X26592Y-42475D01*
X26932Y-42961D01*
X35137Y-42961D01*
X39644Y-36523D01*
X41293Y-36523D01*
X41318Y-36547D01*
X41346Y-36566D01*
X41379Y-36578D01*
X41415Y-36582D01*
X41457Y-36577D01*
X41494Y-36560D01*
X41526Y-36535D01*
X41550Y-36503D01*
X41565Y-36465D01*
X41571Y-36423D01*
X41565Y-36381D01*
X41550Y-36343D01*
X41526Y-36312D01*
X41494Y-36288D01*
X41457Y-36272D01*
X41415Y-36266D01*
X41415Y-36266D01*
X41415Y-36266D01*
G37*
G36*
X40470Y-36742D02*
X40432Y-36747D01*
X40397Y-36760D01*
X40367Y-36781D01*
X40342Y-36808D01*
X39835Y-36808D01*
X35328Y-43246D01*
X26338Y-43246D01*
X25859Y-42562D01*
X25859Y-42096D01*
X26061Y-41954D01*
X26939Y-41954D01*
X27616Y-41482D01*
X27623Y-41482D01*
X27663Y-41475D01*
X27697Y-41458D01*
X27724Y-41430D01*
X27742Y-41396D01*
X27748Y-41357D01*
X27742Y-41317D01*
X27724Y-41283D01*
X27697Y-41256D01*
X27663Y-41238D01*
X27623Y-41232D01*
X27584Y-41238D01*
X27550Y-41255D01*
X27523Y-41282D01*
X27505Y-41315D01*
X26877Y-41759D01*
X26002Y-41759D01*
X25665Y-41996D01*
X25665Y-42624D01*
X26238Y-43440D01*
X35429Y-43440D01*
X39936Y-37003D01*
X40352Y-37003D01*
X40376Y-37024D01*
X40405Y-37041D01*
X40436Y-37051D01*
X40470Y-37055D01*
X40512Y-37049D01*
X40549Y-37033D01*
X40581Y-37009D01*
X40605Y-36977D01*
X40621Y-36940D01*
X40627Y-36898D01*
X40621Y-36857D01*
X40605Y-36819D01*
X40581Y-36788D01*
X40549Y-36763D01*
X40512Y-36748D01*
X40470Y-36742D01*
X40470Y-36742D01*
X40470Y-36742D01*
G37*
G36*
X28321Y-27152D02*
X28321Y-29541D01*
X30713Y-29541D01*
X30713Y-29284D01*
X34515Y-29284D01*
X42189Y-34655D01*
X42193Y-35145D01*
X41331Y-36371D01*
X41488Y-36489D01*
X42387Y-35204D01*
X42387Y-34558D01*
X34571Y-29086D01*
X30713Y-29086D01*
X30713Y-27152D01*
X28321Y-27152D01*
X28321Y-27152D01*
X28321Y-27152D01*
G37*
G36*
X28321Y-32006D02*
X28321Y-34395D01*
X30713Y-34395D01*
X30713Y-34173D01*
X38821Y-34173D01*
X38818Y-33975D01*
X30713Y-33975D01*
X30713Y-32006D01*
X28321Y-32006D01*
X28321Y-32006D01*
X28321Y-32006D01*
G37*
G36*
X28321Y-36860D02*
X28321Y-39249D01*
X30713Y-39249D01*
X30713Y-36860D01*
X28321Y-36860D01*
X28321Y-36860D01*
X28321Y-36860D01*
G37*
G36*
X31563Y-26959D02*
X32148Y-26959D01*
X32148Y-25959D01*
X31563Y-25959D01*
X31563Y-26959D01*
X31563Y-26959D01*
G37*
G36*
X32296Y-26959D02*
X32881Y-26959D01*
X32881Y-25959D01*
X32296Y-25959D01*
X32296Y-26959D01*
X32296Y-26959D01*
G37*
G36*
X33028Y-26959D02*
X33613Y-26959D01*
X33613Y-25959D01*
X33028Y-25959D01*
X33028Y-26959D01*
X33028Y-26959D01*
G37*
G36*
X33761Y-26959D02*
X34346Y-26959D01*
X34346Y-25959D01*
X33761Y-25959D01*
X33761Y-26959D01*
X33761Y-26959D01*
G37*
G36*
X34493Y-26959D02*
X35078Y-26959D01*
X35078Y-25959D01*
X34493Y-25959D01*
X34493Y-26959D01*
X34493Y-26959D01*
G37*
G36*
X35226Y-26959D02*
X35811Y-26959D01*
X35811Y-25959D01*
X35226Y-25959D01*
X35226Y-26959D01*
X35226Y-26959D01*
G37*
G36*
X35958Y-26959D02*
X36543Y-26959D01*
X36543Y-25959D01*
X35958Y-25959D01*
X35958Y-26959D01*
X35958Y-26959D01*
G37*
G36*
X36691Y-26959D02*
X37276Y-26959D01*
X37276Y-25959D01*
X36691Y-25959D01*
X36691Y-26959D01*
X36691Y-26959D01*
G37*
G36*
X37423Y-26959D02*
X38008Y-26959D01*
X38008Y-25959D01*
X37423Y-25959D01*
X37423Y-26959D01*
X37423Y-26959D01*
G37*
G36*
X38156Y-26959D02*
X38741Y-26959D01*
X38741Y-25959D01*
X38156Y-25959D01*
X38156Y-26959D01*
X38156Y-26959D01*
G37*
G36*
X38888Y-26959D02*
X39473Y-26959D01*
X39473Y-25959D01*
X38888Y-25959D01*
X38888Y-26959D01*
X38888Y-26959D01*
G37*
G36*
X39621Y-26959D02*
X40206Y-26959D01*
X40206Y-25959D01*
X39621Y-25959D01*
X39621Y-26959D01*
X39621Y-26959D01*
G37*
G36*
X40353Y-26959D02*
X40938Y-26959D01*
X40938Y-25959D01*
X40353Y-25959D01*
X40353Y-26959D01*
X40353Y-26959D01*
G37*
G36*
X41086Y-26959D02*
X41671Y-26959D01*
X41671Y-25959D01*
X41086Y-25959D01*
X41086Y-26959D01*
X41086Y-26959D01*
G37*
G36*
X41818Y-26959D02*
X42403Y-26959D01*
X42403Y-25959D01*
X41818Y-25959D01*
X41818Y-26959D01*
X41818Y-26959D01*
G37*
G36*
X42551Y-26959D02*
X43136Y-26959D01*
X43136Y-25959D01*
X42551Y-25959D01*
X42551Y-26959D01*
X42551Y-26959D01*
G37*
G36*
X43283Y-26959D02*
X43868Y-26959D01*
X43868Y-25959D01*
X43283Y-25959D01*
X43283Y-26959D01*
X43283Y-26959D01*
G37*
G36*
X44016Y-26959D02*
X44601Y-26959D01*
X44601Y-25959D01*
X44016Y-25959D01*
X44016Y-26959D01*
X44016Y-26959D01*
G37*
G36*
X44748Y-26959D02*
X45333Y-26959D01*
X45333Y-25959D01*
X44748Y-25959D01*
X44748Y-26959D01*
X44748Y-26959D01*
G37*
G36*
X45481Y-26959D02*
X46066Y-26959D01*
X46066Y-25959D01*
X45481Y-25959D01*
X45481Y-26959D01*
X45481Y-26959D01*
G37*
G36*
X46213Y-26959D02*
X46798Y-26959D01*
X46798Y-25959D01*
X46213Y-25959D01*
X46213Y-26959D01*
X46213Y-26959D01*
G37*
G36*
X46946Y-26959D02*
X47531Y-26959D01*
X47531Y-25959D01*
X46946Y-25959D01*
X46946Y-26959D01*
X46946Y-26959D01*
G37*
G36*
X47678Y-26959D02*
X48263Y-26959D01*
X48263Y-25959D01*
X47678Y-25959D01*
X47678Y-26959D01*
X47678Y-26959D01*
G37*
G36*
X48411Y-26959D02*
X48996Y-26959D01*
X48996Y-25959D01*
X48411Y-25959D01*
X48411Y-26959D01*
X48411Y-26959D01*
G37*
G36*
X49143Y-26959D02*
X49728Y-26959D01*
X49728Y-25959D01*
X49143Y-25959D01*
X49143Y-26959D01*
X49143Y-26959D01*
G37*
G36*
X49876Y-26959D02*
X50461Y-26959D01*
X50461Y-25959D01*
X49876Y-25959D01*
X49876Y-26959D01*
X49876Y-26959D01*
G37*
G54D12*
X24280Y-24972D02*
X57744Y-24972D01*
X57744Y-24972D02*
X57744Y-44658D01*
X57744Y-44658D02*
X24280Y-44658D01*
X24280Y-44658D02*
X24280Y-24972D01*
G54D13*
X26623Y-40354D03*
X26623Y-41354D03*
X26623Y-42354D03*
X27623Y-40354D03*
X27623Y-41354D03*
X27623Y-42354D03*
G54D14*
X39240Y-36039D03*
X41417Y-36429D03*
X40472Y-36897D03*
X39362Y-34984D03*
X41842Y-34933D03*
X40610Y-34075D03*
M02*
