G04 (created by PCBNEW-RS274X (2012-apr-16-27)-stable) date Thu 15 Aug 2013 10:18:16 PM CEST*
G01*
G70*
G90*
%MOIN*%
G04 Gerber Fmt 3.4, Leading zero omitted, Abs format*
%FSLAX34Y34*%
G04 APERTURE LIST*
%ADD10C,0.006000*%
%ADD11C,0.010000*%
%ADD12C,0.000100*%
%ADD13C,0.080000*%
G04 APERTURE END LIST*
G54D10*
G54D11*
X24280Y-24972D02*
X57744Y-24972D01*
X57744Y-24972D02*
X57744Y-44658D01*
X57744Y-44658D02*
X24280Y-44658D01*
X24280Y-44658D02*
X24280Y-24972D01*
X47441Y-43265D02*
X47086Y-43265D01*
X47441Y-43265D02*
X47086Y-43265D01*
X47256Y-42185D02*
X47256Y-43265D01*
X47256Y-42185D02*
X47256Y-43265D01*
X47441Y-42185D02*
X47256Y-42185D01*
X47441Y-42185D02*
X47256Y-42185D01*
X47810Y-42725D02*
X47810Y-43265D01*
X47810Y-42725D02*
X47810Y-43265D01*
X47995Y-42541D02*
X47810Y-42725D01*
X47995Y-42541D02*
X47810Y-42725D01*
X48535Y-42541D02*
X47995Y-42541D01*
X48535Y-42541D02*
X47995Y-42541D01*
X48535Y-43265D02*
X48535Y-42541D01*
X48535Y-43265D02*
X48535Y-42541D01*
X48905Y-43265D02*
X49089Y-43265D01*
X48905Y-43265D02*
X49089Y-43265D01*
X48905Y-43081D02*
X48905Y-43265D01*
X48905Y-43081D02*
X48905Y-43265D01*
X49089Y-43081D02*
X48905Y-43081D01*
X49089Y-43081D02*
X48905Y-43081D01*
X49089Y-43265D02*
X49089Y-43081D01*
X49089Y-43265D02*
X49089Y-43081D01*
X50013Y-43265D02*
X49459Y-43265D01*
X50013Y-43265D02*
X49459Y-43265D01*
X50184Y-43081D02*
X50013Y-43265D01*
X50184Y-43081D02*
X50013Y-43265D01*
X50184Y-42725D02*
X50184Y-43081D01*
X50184Y-42725D02*
X50184Y-43081D01*
X50013Y-42541D02*
X50184Y-42725D01*
X50013Y-42541D02*
X50184Y-42725D01*
X49459Y-42541D02*
X50013Y-42541D01*
X49459Y-42541D02*
X50013Y-42541D01*
X50553Y-42725D02*
X50553Y-43265D01*
X50553Y-42725D02*
X50553Y-43265D01*
X50738Y-42541D02*
X50553Y-42725D01*
X50738Y-42541D02*
X50553Y-42725D01*
X51292Y-42541D02*
X50738Y-42541D01*
X51292Y-42541D02*
X50738Y-42541D01*
X51292Y-43265D02*
X51292Y-42541D01*
X51292Y-43265D02*
X51292Y-42541D01*
X51832Y-42001D02*
X51832Y-42185D01*
X51832Y-42001D02*
X51832Y-42185D01*
X52017Y-43265D02*
X51661Y-43265D01*
X52017Y-43265D02*
X51661Y-43265D01*
X51832Y-42541D02*
X51832Y-43265D01*
X51832Y-42541D02*
X51832Y-43265D01*
X52017Y-42541D02*
X51832Y-42541D01*
X52017Y-42541D02*
X51832Y-42541D01*
X52386Y-42725D02*
X52386Y-43265D01*
X52386Y-42725D02*
X52386Y-43265D01*
X52571Y-42541D02*
X52386Y-42725D01*
X52571Y-42541D02*
X52386Y-42725D01*
X52940Y-42541D02*
X52571Y-42541D01*
X52940Y-42541D02*
X52571Y-42541D01*
X53111Y-42725D02*
X52940Y-42541D01*
X53111Y-42725D02*
X52940Y-42541D01*
X53111Y-42185D02*
X53111Y-43265D01*
X53111Y-42185D02*
X53111Y-43265D01*
X54035Y-43265D02*
X53480Y-43265D01*
X54035Y-43265D02*
X53480Y-43265D01*
X54219Y-43081D02*
X54035Y-43265D01*
X54219Y-43081D02*
X54035Y-43265D01*
X54219Y-42725D02*
X54219Y-43081D01*
X54219Y-42725D02*
X54219Y-43081D01*
X54035Y-42541D02*
X54219Y-42725D01*
X54035Y-42541D02*
X54219Y-42725D01*
X53480Y-42541D02*
X54035Y-42541D01*
X53480Y-42541D02*
X54035Y-42541D01*
X54589Y-42910D02*
X55314Y-42910D01*
X54589Y-42910D02*
X55314Y-42910D01*
X54589Y-42725D02*
X54589Y-42910D01*
X54589Y-42725D02*
X54589Y-42910D01*
X54774Y-42541D02*
X54589Y-42725D01*
X54774Y-42541D02*
X54589Y-42725D01*
X55129Y-42541D02*
X54774Y-42541D01*
X55129Y-42541D02*
X54774Y-42541D01*
X55314Y-42725D02*
X55129Y-42541D01*
X55314Y-42725D02*
X55129Y-42541D01*
X55314Y-43081D02*
X55314Y-42725D01*
X55314Y-43081D02*
X55314Y-42725D01*
X55129Y-43265D02*
X55314Y-43081D01*
X55129Y-43265D02*
X55314Y-43081D01*
X54774Y-43265D02*
X55129Y-43265D01*
X54774Y-43265D02*
X55129Y-43265D01*
X56038Y-42541D02*
X55683Y-42541D01*
X56038Y-42541D02*
X55683Y-42541D01*
X55868Y-43081D02*
X55683Y-43265D01*
X55868Y-43081D02*
X55683Y-43265D01*
X55868Y-42356D02*
X55868Y-43081D01*
X55868Y-42356D02*
X55868Y-43081D01*
%LPC*%
G54D12*
G36*
X30713Y-27152D02*
X28320Y-27152D01*
X28320Y-29541D01*
X30713Y-29541D01*
X30713Y-27152D01*
X30713Y-27152D01*
X30713Y-27152D01*
G37*
G36*
X30713Y-32006D02*
X28320Y-32006D01*
X28320Y-34395D01*
X30713Y-34395D01*
X30713Y-32006D01*
X30713Y-32006D01*
X30713Y-32006D01*
G37*
G36*
X30713Y-36860D02*
X28320Y-36860D01*
X28320Y-39249D01*
X30713Y-39249D01*
X30713Y-36860D01*
X30713Y-36860D01*
X30713Y-36860D01*
G37*
G36*
X31563Y-26959D02*
X32148Y-26959D01*
X32148Y-25959D01*
X31563Y-25959D01*
X31563Y-26959D01*
X31563Y-26959D01*
G37*
G36*
X32296Y-26959D02*
X32881Y-26959D01*
X32881Y-25959D01*
X32296Y-25959D01*
X32296Y-26959D01*
X32296Y-26959D01*
G37*
G36*
X33028Y-26959D02*
X33613Y-26959D01*
X33613Y-25959D01*
X33028Y-25959D01*
X33028Y-26959D01*
X33028Y-26959D01*
G37*
G36*
X33761Y-26959D02*
X34346Y-26959D01*
X34346Y-25959D01*
X33761Y-25959D01*
X33761Y-26959D01*
X33761Y-26959D01*
G37*
G36*
X34493Y-26959D02*
X35078Y-26959D01*
X35078Y-25959D01*
X34493Y-25959D01*
X34493Y-26959D01*
X34493Y-26959D01*
G37*
G36*
X35226Y-26959D02*
X35811Y-26959D01*
X35811Y-25959D01*
X35226Y-25959D01*
X35226Y-26959D01*
X35226Y-26959D01*
G37*
G36*
X35958Y-26959D02*
X36543Y-26959D01*
X36543Y-25959D01*
X35958Y-25959D01*
X35958Y-26959D01*
X35958Y-26959D01*
G37*
G36*
X36691Y-26959D02*
X37276Y-26959D01*
X37276Y-25959D01*
X36691Y-25959D01*
X36691Y-26959D01*
X36691Y-26959D01*
G37*
G36*
X37423Y-26959D02*
X38008Y-26959D01*
X38008Y-25959D01*
X37423Y-25959D01*
X37423Y-26959D01*
X37423Y-26959D01*
G37*
G36*
X38156Y-26959D02*
X38741Y-26959D01*
X38741Y-25959D01*
X38156Y-25959D01*
X38156Y-26959D01*
X38156Y-26959D01*
G37*
G36*
X38888Y-26959D02*
X39473Y-26959D01*
X39473Y-25959D01*
X38888Y-25959D01*
X38888Y-26959D01*
X38888Y-26959D01*
G37*
G36*
X39621Y-26959D02*
X40206Y-26959D01*
X40206Y-25959D01*
X39621Y-25959D01*
X39621Y-26959D01*
X39621Y-26959D01*
G37*
G36*
X40353Y-26959D02*
X40938Y-26959D01*
X40938Y-25959D01*
X40353Y-25959D01*
X40353Y-26959D01*
X40353Y-26959D01*
G37*
G36*
X41086Y-26959D02*
X41671Y-26959D01*
X41671Y-25959D01*
X41086Y-25959D01*
X41086Y-26959D01*
X41086Y-26959D01*
G37*
G36*
X41818Y-26959D02*
X42403Y-26959D01*
X42403Y-25959D01*
X41818Y-25959D01*
X41818Y-26959D01*
X41818Y-26959D01*
G37*
G36*
X42551Y-26959D02*
X43136Y-26959D01*
X43136Y-25959D01*
X42551Y-25959D01*
X42551Y-26959D01*
X42551Y-26959D01*
G37*
G36*
X43283Y-26959D02*
X43868Y-26959D01*
X43868Y-25959D01*
X43283Y-25959D01*
X43283Y-26959D01*
X43283Y-26959D01*
G37*
G36*
X44016Y-26959D02*
X44601Y-26959D01*
X44601Y-25959D01*
X44016Y-25959D01*
X44016Y-26959D01*
X44016Y-26959D01*
G37*
G36*
X44748Y-26959D02*
X45333Y-26959D01*
X45333Y-25959D01*
X44748Y-25959D01*
X44748Y-26959D01*
X44748Y-26959D01*
G37*
G36*
X45481Y-26959D02*
X46066Y-26959D01*
X46066Y-25959D01*
X45481Y-25959D01*
X45481Y-26959D01*
X45481Y-26959D01*
G37*
G36*
X46213Y-26959D02*
X46798Y-26959D01*
X46798Y-25959D01*
X46213Y-25959D01*
X46213Y-26959D01*
X46213Y-26959D01*
G37*
G36*
X46946Y-26959D02*
X47531Y-26959D01*
X47531Y-25959D01*
X46946Y-25959D01*
X46946Y-26959D01*
X46946Y-26959D01*
G37*
G36*
X47678Y-26959D02*
X48263Y-26959D01*
X48263Y-25959D01*
X47678Y-25959D01*
X47678Y-26959D01*
X47678Y-26959D01*
G37*
G36*
X48411Y-26959D02*
X48996Y-26959D01*
X48996Y-25959D01*
X48411Y-25959D01*
X48411Y-26959D01*
X48411Y-26959D01*
G37*
G36*
X49143Y-26959D02*
X49728Y-26959D01*
X49728Y-25959D01*
X49143Y-25959D01*
X49143Y-26959D01*
X49143Y-26959D01*
G37*
G36*
X49876Y-26959D02*
X50461Y-26959D01*
X50461Y-25959D01*
X49876Y-25959D01*
X49876Y-26959D01*
X49876Y-26959D01*
G37*
G54D13*
X26623Y-40354D03*
X26623Y-41354D03*
X26623Y-42354D03*
X27623Y-40354D03*
X27623Y-41354D03*
X27623Y-42354D03*
M02*
